g bread
v -0.56505 0.7319906 0.7518251
v 0.4382459 0.8295102 0.7352962
v 0.5589059 0.7501721 0.7501721
v 0.7506396 0.5600914 -0.7539453
v -0.5716616 0.7452135 -0.730805
v -0.738602 0.5931489 -0.7506396
v -0.56505 0.7319906 0.7518251
v -0.3700106 0.8344688 0.7369492
v 0.4382459 0.8295102 0.7352962
v -0.365052 0.8295102 -0.7126234
v -0.5716616 0.7452135 -0.730805
v 0.4580804 0.8262045 -0.7126234
v 0.4580804 0.8262045 -0.7126234
v -0.5716616 0.7452135 -0.730805
v 0.5787404 0.7518251 -0.7258464
v 0.7506396 0.5600914 -0.7539453
v 0.7572511 0.4179441 -0.7357637
v -0.738602 0.5931489 -0.7506396
v -0.7518251 0.4427372 -0.7638626
v 0.6861774 0.2229047 -0.772127
v -0.6956273 0.2278633 -0.772127
v 0.6349382 -0.5952692 -0.7688212
v -0.6344708 -0.5952692 -0.7688212
v 0.6713015 -0.5952692 -0.7374166
v 0.6349382 -0.5952692 -0.7688212
v -0.6344708 -0.5952692 -0.7688212
v -0.6708342 -0.5952692 -0.7374166
v 0.6713015 -0.5952692 0.7485193
v -0.6691812 -0.5936163 0.7468665
v -0.6377766 -0.5936163 0.7749653
v 0.6398969 -0.5952692 0.7766182
v -0.7352962 0.5419098 0.7633952
v -0.56505 0.7319906 0.7518251
v 0.5589059 0.7501721 0.7501721
v 0.7324579 0.5286868 0.7633952
v 0.7390695 0.3749692 0.765048
v -0.7220733 0.3898451 0.765048
v 0.7027062 0.2179461 0.7633952
v -0.6757928 0.2179461 0.7633952
v 0.6398969 -0.5952692 0.7766182
v -0.6377766 -0.5936163 0.7749653
v 0.8101431 0.4179441 -0.7341108
v 0.7969201 0.5303396 0.7138089
v 0.7820442 0.5766202 -0.7225407
v 0.8051845 0.3749692 0.7171147
v 0.7341108 0.2179461 0.7352962
v 0.7241936 0.2212517 -0.7407223
v 0.6713015 -0.5952692 -0.7374166
v 0.6713015 -0.5952692 0.7485193
v 0.7820442 0.5766202 -0.7225407
v 0.7969201 0.5303396 0.7138089
v 0.6266738 0.7485193 0.700586
v 0.6266738 0.7501721 -0.6960946
v 0.7506396 0.5600914 -0.7539453
v 0.7820442 0.5766202 -0.7225407
v 0.8101431 0.4179441 -0.7341108
v 0.7572511 0.4179441 -0.7357637
v 0.6861774 0.2229047 -0.772127
v 0.7241936 0.2212517 -0.7407223
v 0.6349382 -0.5952692 -0.7688212
v 0.6713015 -0.5952692 -0.7374166
v 0.5787404 0.7518251 -0.7258464
v 0.4613862 0.8559563 -0.6762601
v 0.4580804 0.8262045 -0.7126234
v 0.6266738 0.7485193 0.700586
v -0.3733164 0.859262 -0.6762601
v -0.365052 0.8295102 -0.7126234
v -0.5799259 0.7733124 -0.6977475
v -0.5716616 0.7452135 -0.730805
v -0.3848865 0.8807495 0.6774457
v 0.4349402 0.8774437 0.6774457
v -0.7782711 0.5931489 -0.7208878
v -0.738602 0.5931489 -0.7506396
v -0.7898412 0.4476959 -0.7341108
v -0.7518251 0.4427372 -0.7638626
v -0.6956273 0.2278633 -0.772127
v -0.7303377 0.2278633 -0.7407223
v -0.6708342 -0.5952692 -0.7374166
v -0.6344708 -0.5952692 -0.7688212
v -0.7964528 0.5435627 0.7138089
v -0.7898412 0.4476959 -0.7341108
v -0.7832297 0.391498 0.7171147
v -0.7071974 0.2179461 0.7352962
v -0.7303377 0.2278633 -0.7407223
v -0.6708342 -0.5952692 -0.7374166
v -0.6691812 -0.5936163 0.7468665
v -0.5914961 0.7733124 0.7022388
v -0.7352962 0.5419098 0.7633952
v -0.56505 0.7319906 0.7518251
v -0.3700106 0.8344688 0.7369492
v 0.4382459 0.8295102 0.7352962
v 0.5589059 0.7501721 0.7501721
v 0.7969201 0.5303396 0.7138089
v 0.7324579 0.5286868 0.7633952
v -0.7220733 0.3898451 0.765048
v -0.7832297 0.391498 0.7171147
v 0.8051845 0.3749692 0.7171147
v 0.7390695 0.3749692 0.765048
v -0.7071974 0.2179461 0.7352962
v -0.6757928 0.2179461 0.7633952
v -0.6377766 -0.5936163 0.7749653
v -0.6691812 -0.5936163 0.7468665
v 0.7027062 0.2179461 0.7633952
v 0.7341108 0.2179461 0.7352962
v 0.6713015 -0.5952692 0.7485193
v 0.6398969 -0.5952692 0.7766182
vt 0.7859093 0.904204
vt 0.7859093 0.904204
vt 0.7859093 0.904204
vt 0.7859093 0.904204
vt 0.7859093 0.904204
vt 0.7859093 0.904204
vt 0.7859093 0.904204
vt 0.7859093 0.904204
vt 0.7859093 0.904204
vt 0.7859093 0.904204
vt 0.7859093 0.904204
vt 0.7859093 0.904204
vt 0.7859093 0.904204
vt 0.7859093 0.904204
vt 0.7859093 0.904204
vt 0.7859093 0.904204
vt 0.7859093 0.904204
vt 0.7859093 0.904204
vt 0.7859093 0.904204
vt 0.7859093 0.904204
vt 0.7859093 0.904204
vt 0.7859093 0.904204
vt 0.7859093 0.904204
vt 0.9105792 0.966539
vt 0.9105792 0.966539
vt 0.9105792 0.966539
vt 0.9105792 0.966539
vt 0.9105792 0.966539
vt 0.9105792 0.966539
vt 0.9105792 0.966539
vt 0.9105792 0.966539
vt 0.7859093 0.904204
vt 0.7859093 0.904204
vt 0.7859093 0.904204
vt 0.7859093 0.904204
vt 0.7859093 0.904204
vt 0.7859093 0.904204
vt 0.7859093 0.904204
vt 0.7859093 0.904204
vt 0.7859093 0.904204
vt 0.7859093 0.904204
vt 0.9105792 0.966539
vt 0.9105792 0.966539
vt 0.9105792 0.966539
vt 0.9105792 0.966539
vt 0.9105792 0.966539
vt 0.9105792 0.966539
vt 0.9105792 0.966539
vt 0.9105792 0.966539
vt 0.9105792 0.966539
vt 0.9105792 0.966539
vt 0.9105792 0.966539
vt 0.9105792 0.966539
vt 0.9105792 0.966539
vt 0.9105792 0.966539
vt 0.9105792 0.966539
vt 0.9105792 0.966539
vt 0.9105792 0.966539
vt 0.9105792 0.966539
vt 0.9105792 0.966539
vt 0.9105792 0.966539
vt 0.9105792 0.966539
vt 0.9105792 0.966539
vt 0.9105792 0.966539
vt 0.9105792 0.966539
vt 0.9105792 0.966539
vt 0.9105792 0.966539
vt 0.9105792 0.966539
vt 0.9105792 0.966539
vt 0.9105792 0.966539
vt 0.9105792 0.966539
vt 0.9105792 0.966539
vt 0.9105792 0.966539
vt 0.9105792 0.966539
vt 0.9105792 0.966539
vt 0.9105792 0.966539
vt 0.9105792 0.966539
vt 0.9105792 0.966539
vt 0.9105792 0.966539
vt 0.9105792 0.966539
vt 0.9105792 0.966539
vt 0.9105792 0.966539
vt 0.9105792 0.966539
vt 0.9105792 0.966539
vt 0.9105792 0.966539
vt 0.9105792 0.966539
vt 0.9105792 0.966539
vt 0.9105792 0.966539
vt 0.9105792 0.966539
vt 0.9105792 0.966539
vt 0.9105792 0.966539
vt 0.9105792 0.966539
vt 0.9105792 0.966539
vt 0.9105792 0.966539
vt 0.9105792 0.966539
vt 0.9105792 0.966539
vt 0.9105792 0.966539
vt 0.9105792 0.966539
vt 0.9105792 0.966539
vt 0.9105792 0.966539
vt 0.9105792 0.966539
vt 0.9105792 0.966539
vt 0.9105792 0.966539
vt 0.9105792 0.966539
vt 0.9105792 0.966539
vt 0.9105792 0.966539
vn 0.01674044 0.078403 0.9967812
vn -0.014974 0.1735463 0.9847118
vn -0.014974 0.078403 0.9968093
vn 0.01674044 0.04668856 -0.9987692
vn 0.01674044 0.1418319 -0.9897492
vn 0.01674044 0.04668856 -0.9987692
vn 0.01674044 0.078403 0.9967812
vn 0.01674044 0.1418319 0.9897492
vn -0.014974 0.1735463 0.9847118
vn 0.01674044 0.2052609 -0.9785641
vn 0.01674044 0.1418319 -0.9897492
vn 0.01674044 0.2052609 -0.9785641
vn 0.01674044 0.2052609 -0.9785641
vn 0.01674044 0.1418319 -0.9897492
vn 0.01674044 0.1418319 -0.9897492
vn 0.01674044 0.04668856 -0.9987692
vn 0.01674044 0.078403 -0.9967812
vn 0.01674044 0.04668856 -0.9987692
vn 0.01674044 0.014974 -0.9997477
vn 0.01674044 0.078403 -0.9967812
vn -0.014974 0.014974 -0.9997758
vn -0.014974 -0.01674044 -0.9997477
vn -0.014974 -0.01674044 -0.9997477
vn -0.01497399 -0.9998879 0
vn -0.01497399 -0.9998879 0
vn -0.01497399 -0.9998879 0
vn -0.01497399 -0.9998879 0
vn -0.01497399 -0.9998879 0
vn -0.01497399 -0.9998879 0
vn -0.01497399 -0.9998879 0
vn -0.01497399 -0.9998879 0
vn -0.014974 0.014974 0.9997758
vn 0.01674044 0.078403 0.9967812
vn -0.014974 0.078403 0.9968093
vn -0.014974 0.014974 0.9997758
vn -0.014974 0.014974 0.9997758
vn -0.014974 0.014974 0.9997758
vn -0.014974 0.014974 0.9997758
vn -0.014974 0.014974 0.9997758
vn -0.014974 0.014974 0.9997758
vn -0.014974 0.014974 0.9997758
vn 0.9898443 -0.1421557 0
vn 0.9211954 0.3891001 0
vn 0.9211954 0.3891001 0
vn 0.9849749 -0.1726979 0
vn 0.9681743 -0.2387416 -0.07510588
vn 0.9681743 -0.2387416 -0.07510588
vn 0.9968011 -0.07992176 0
vn 0.9968011 -0.07992176 0
vn 0.9211954 0.3891001 0
vn 0.9211954 0.3891001 0
vn 0.6193152 0.6809778 0.3907913
vn 0.5876008 0.7126923 -0.3831384
vn 0.397314 0.2686898 -0.8774665
vn 0.4290285 0.3004042 -0.8518755
vn 0.3338851 -0.01674044 -0.9424651
vn 0.3338851 -0.01674044 -0.9424651
vn 0.5241718 -0.04845488 -0.850233
vn 0.4924574 -0.04845488 -0.8689867
vn 0.6510297 -0.04845488 -0.7575041
vn 0.6510297 -0.04845488 -0.7575041
vn 0.397314 0.6492633 -0.6485359
vn 0.2387416 0.902979 -0.3572553
vn 0.2070272 0.7444067 -0.6348215
vn 0.6193152 0.6809778 0.3907913
vn -0.1735463 0.9346935 -0.3102093
vn -0.1101174 0.7444067 -0.6585839
vn -0.4906909 0.8078356 -0.3265334
vn -0.3955476 0.6492633 -0.6496148
vn -0.2052609 0.9346935 0.2902001
vn 0.2387416 0.9346935 0.263345
vn -0.8395501 0.3638332 -0.4034613
vn -0.5541199 0.4272621 -0.7144216
vn -0.6175488 0.014974 -0.78639
vn -0.6175488 -0.01674044 -0.7863544
vn -0.6492633 -0.08016932 -0.7563267
vn -0.6492633 -0.1118838 -0.7522894
vn -0.6492633 -0.04845488 -0.7590187
vn -0.6492633 -0.04845488 -0.7590187
vn -0.8712646 0.3321186 0.3613796
vn -0.9849228 -0.1729943 0
vn -0.9849228 -0.1729943 0
vn -0.9664079 -0.1753128 0.1879394
vn -0.9664079 -0.2070272 0.1523007
vn -0.9981225 -0.04845488 0.03746599
vn -0.9981225 -0.04845488 0.03746599
vn -0.5224055 0.7761211 0.3531692
vn -0.5858344 0.2686898 0.764594
vn -0.4272621 0.5858344 0.6886546
vn -0.1418319 0.7444067 0.6524894
vn 0.2387416 0.7761211 0.5836424
vn 0.4607429 0.6492633 0.6051224
vn 0.5876008 0.2052609 0.7826834
vn 0.5558863 0.2686898 0.7866361
vn -0.6175488 -0.1118838 0.7785342
vn -0.6175488 -0.1118838 0.7785342
vn 0.6193152 -0.04845488 0.7836458
vn 0.6193152 -0.08016932 0.7810388
vn -0.6492633 -0.1118838 0.7522894
vn -0.6492633 -0.08016932 0.7563267
vn -0.6492633 -0.01674044 0.7603795
vn -0.6492633 -0.01674044 0.7603795
vn 0.6510297 -0.1118838 0.7507612
vn 0.6193152 -0.1118838 0.7771298
vn 0.6510297 -0.04845488 0.7575041
vn 0.6510297 -0.04845488 0.7575041
g bread_0
f 3/3/3 2/2/2 1/1/1
f 6/6/6 5/5/5 4/4/4
f 9/9/9 8/8/8 7/7/7
f 12/12/12 11/11/11 10/10/10
f 15/15/15 14/14/14 13/13/13
f 15/15/15 16/16/16 14/14/14
f 18/18/18 16/16/16 17/17/17
f 19/19/19 18/18/18 17/17/17
f 20/20/20 19/19/19 17/17/17
f 21/21/21 19/19/19 20/20/20
f 21/21/21 20/20/20 22/22/22
f 23/23/23 21/21/21 22/22/22
f 26/26/26 25/25/25 24/24/24
f 24/24/24 27/27/27 26/26/26
f 24/24/24 28/28/28 27/27/27
f 28/28/28 29/29/29 27/27/27
f 28/28/28 30/30/30 29/29/29
f 28/28/28 31/31/31 30/30/30
f 34/34/34 33/33/33 32/32/32
f 35/35/35 34/34/34 32/32/32
f 35/35/35 32/32/32 36/36/36
f 32/32/32 37/37/37 36/36/36
f 36/36/36 37/37/37 38/38/38
f 37/37/37 39/39/39 38/38/38
f 38/38/38 39/39/39 40/40/40
f 39/39/39 41/41/41 40/40/40
f 44/44/44 43/43/43 42/42/42
f 43/43/43 45/45/45 42/42/42
f 45/45/45 46/46/46 42/42/42
f 46/46/46 47/47/47 42/42/42
f 47/47/47 46/46/46 48/48/48
f 46/46/46 49/49/49 48/48/48
f 52/52/52 51/51/51 50/50/50
f 53/53/53 52/52/52 50/50/50
f 53/53/53 55/55/55 54/54/54
f 54/54/54 55/55/55 56/56/56
f 57/57/57 54/54/54 56/56/56
f 58/58/58 57/57/57 56/56/56
f 59/59/59 58/58/58 56/56/56
f 58/58/58 59/59/59 60/60/60
f 59/59/59 61/61/61 60/60/60
f 62/62/62 53/53/53 54/54/54
f 63/63/63 53/53/53 62/62/62
f 64/64/64 63/63/63 62/62/62
f 65/65/65 53/53/53 63/63/63
f 66/66/66 63/63/63 64/64/64
f 67/67/67 66/66/66 64/64/64
f 68/68/68 66/66/66 67/67/67
f 69/69/69 68/68/68 67/67/67
f 66/66/66 70/70/70 63/63/63
f 66/66/66 68/68/68 70/70/70
f 71/71/71 65/65/65 63/63/63
f 70/70/70 71/71/71 63/63/63
f 72/72/72 68/68/68 69/69/69
f 73/73/73 72/72/72 69/69/69
f 74/74/74 72/72/72 73/73/73
f 75/75/75 74/74/74 73/73/73
f 75/75/75 76/76/76 74/74/74
f 76/76/76 77/77/77 74/74/74
f 78/78/78 77/77/77 76/76/76
f 79/79/79 78/78/78 76/76/76
f 68/68/68 72/72/72 80/80/80
f 72/72/72 81/81/81 80/80/80
f 81/81/81 82/82/82 80/80/80
f 82/82/82 81/81/81 83/83/83
f 81/81/81 84/84/84 83/83/83
f 84/84/84 85/85/85 83/83/83
f 85/85/85 86/86/86 83/83/83
f 87/87/87 68/68/68 80/80/80
f 68/68/68 87/87/87 70/70/70
f 87/87/87 80/80/80 88/88/88
f 89/89/89 87/87/87 88/88/88
f 70/70/70 87/87/87 89/89/89
f 90/90/90 70/70/70 89/89/89
f 71/71/71 70/70/70 90/90/90
f 91/91/91 71/71/71 90/90/90
f 65/65/65 71/71/71 91/91/91
f 92/92/92 65/65/65 91/91/91
f 93/93/93 65/65/65 92/92/92
f 94/94/94 93/93/93 92/92/92
f 88/88/88 80/80/80 95/95/95
f 80/80/80 96/96/96 95/95/95
f 97/97/97 93/93/93 94/94/94
f 98/98/98 97/97/97 94/94/94
f 96/96/96 99/99/99 95/95/95
f 99/99/99 100/100/100 95/95/95
f 100/100/100 99/99/99 101/101/101
f 99/99/99 102/102/102 101/101/101
f 98/98/98 103/103/103 97/97/97
f 103/103/103 104/104/104 97/97/97
f 105/105/105 104/104/104 103/103/103
f 106/106/106 105/105/105 103/103/103
