g cookie
v -0.5405669 -0.2414467 0.7438905
v -0.0009775162 -0.2414467 0.9178885
v 0.5405669 -0.2414467 0.7438905
v -0.5874878 -0.1632454 -0.8084067
v -0.5405669 -0.2414467 -0.7438905
v -0.0009775162 -0.2414467 -0.9178886
v -0.0009775162 -0.1632454 -1
v 0.5405669 -0.2414467 -0.7438905
v -0.0009775162 0.006842613 -1
v -0.5874878 0.006842613 -0.8084067
v 0.5874878 -0.1632454 -0.8084067
v 0.8729228 -0.2414467 -0.2844575
v 0.5874878 0.006842613 -0.8084067
v 0.9511241 -0.1632454 -0.3098729
v 0.8729228 -0.2414467 0.2844574
v 0.9511241 0.006842613 -0.3098729
v 0.9511241 -0.1632454 0.3098729
v 0.5405669 -0.2414467 0.7438905
v 0.9511241 0.006842613 0.3098729
v 0.5874878 -0.1632454 0.8084066
v -0.0009775162 -0.2414467 0.9178885
v 0.5874878 0.006842613 0.8084066
v -0.0009775162 -0.1632454 1
v -0.5405669 -0.2414467 0.7438905
v -0.0009775162 0.006842613 1
v -0.5874878 -0.1632454 0.8084066
v -0.8729228 -0.2414467 0.2844574
v -0.5874878 0.006842613 0.8084066
v -0.9511242 -0.1632454 0.3098729
v -0.8729228 -0.2414467 -0.2844575
v -0.9511242 0.006842613 0.3098729
v -0.9511242 -0.1632454 -0.3098729
v -0.5405669 -0.2414467 -0.7438905
v -0.5874878 -0.1632454 -0.8084067
v -0.9511242 0.006842613 -0.3098729
v 0.487781 0.2394917 0.6695992
v -0.0009775162 0.2394917 0.827957
v -0.0009775162 0.3216032 0.0009775162
v -0.487781 0.2394917 0.6695992
v 0.7888563 0.2394917 0.255132
v -0.7888563 0.2394917 0.255132
v 0.7888563 0.2394917 -0.255132
v -0.7888563 0.2394917 -0.255132
v 0.487781 0.2394917 -0.6695992
v -0.487781 0.2394917 -0.6695992
v -0.0009775162 0.2394917 -0.827957
v 0.5405669 -0.2414467 -0.7438905
v -0.0009775162 -0.2414467 -0.9178886
v -0.5405669 -0.2414467 -0.7438905
v 0.8729228 -0.2414467 -0.2844575
v -0.8729228 -0.2414467 -0.2844575
v -0.8729228 -0.2414467 0.2844574
v -0.8729228 -0.2414467 0.2844574
v 0.8729228 -0.2414467 0.2844574
v 0.8729228 -0.2414467 -0.2844575
v 0.5405669 -0.2414467 0.7438905
v -0.5405669 -0.2414467 0.7438905
v 0.3607038 0.259042 -0.1788856
v 0.3665689 0.313783 -0.1691105
v 0.2785923 0.3235582 -0.1397849
v 0.2668622 0.2688172 -0.1476051
v 0.2238514 0.3294233 -0.06353861
v 0.2082111 0.2746823 -0.06744868
v 0.2238514 0.3294233 0.030303
v 0.2082111 0.2746823 0.03421307
v 0.2785923 0.3235582 0.1065494
v 0.2668622 0.2688172 0.1143695
v 0.3665689 0.313783 0.1358749
v 0.3607038 0.259042 0.14565
v 0.4565005 0.3059628 0.1065494
v 0.4565005 0.2512219 0.1143695
v 0.5112414 0.3000977 0.030303
v 0.5151515 0.2453568 0.03421307
v 0.5151515 0.2453568 0.03421307
v 0.5112414 0.3000977 0.030303
v 0.5112414 0.3000977 -0.06353861
v 0.5151515 0.2453568 -0.06744868
v 0.4565005 0.3059628 -0.1397849
v 0.4565005 0.2512219 -0.1476051
v 0.3665689 0.313783 -0.1691105
v 0.3607038 0.259042 -0.1788856
v -0.3352884 0.2707722 0.1886609
v -0.3372434 0.3294233 0.2023461
v -0.4271749 0.3216032 0.2297165
v -0.42913 0.2629521 0.2199414
v -0.481916 0.3098729 0.3059628
v -0.487781 0.2512219 0.3000977
v -0.4799609 0.3020527 0.3998045
v -0.487781 0.2434018 0.3998045
v -0.4252199 0.3000977 0.4760509
v -0.42913 0.2394917 0.481916
v -0.3352884 0.3040078 0.5053763
v -0.3333334 0.2453568 0.5112414
v -0.2473118 0.313783 0.4760509
v -0.2394917 0.2531769 0.481916
v -0.1925709 0.3235582 0.3998045
v -0.1808406 0.2649071 0.4017595
v -0.1808406 0.2649071 0.4017595
v -0.1925709 0.3235582 0.3998045
v -0.1925709 0.3313783 0.3059628
v -0.1808406 0.2727273 0.3020527
v -0.2473118 0.3333334 0.2297165
v -0.2394917 0.2766373 0.2199414
v -0.3372434 0.3294233 0.2023461
v -0.3352884 0.2707722 0.1886609
v -0.008797646 0.2218964 -0.8044966
v -0.008797646 0.2785923 -0.8005865
v -0.09677422 0.2805474 -0.771261
v -0.1026393 0.2258065 -0.773216
v -0.1515151 0.2883675 -0.6950147
v -0.1612903 0.2336266 -0.6911046
v -0.1495601 0.2981427 -0.601173
v -0.1593353 0.2434018 -0.5933529
v -0.09481919 0.3059628 -0.5268817
v -0.1006843 0.2512219 -0.5131965
v -0.004887581 0.3079178 -0.4995112
v -0.004887581 0.255132 -0.483871
v 0.08504397 0.3059628 -0.5288367
v 0.08895403 0.2512219 -0.5151515
v 0.1397849 0.2981427 -0.6050831
v 0.1476051 0.2434018 -0.5953079
v 0.1476051 0.2434018 -0.5953079
v 0.1397849 0.2981427 -0.6050831
v 0.1378299 0.2883675 -0.6989247
v 0.14565 0.2336266 -0.6950147
v 0.0811339 0.2805474 -0.773216
v 0.086999 0.2258065 -0.775171
v -0.008797646 0.2785923 -0.8005865
v -0.008797646 0.2218964 -0.8044966
v -0.09677422 0.2805474 -0.771261
v -0.008797646 0.2785923 -0.8005865
v -0.006842613 0.3372434 -0.6539589
v -0.1515151 0.2883675 -0.6950147
v 0.0811339 0.2805474 -0.773216
v -0.1495601 0.2981427 -0.601173
v 0.1378299 0.2883675 -0.6989247
v -0.09481919 0.3059628 -0.5268817
v 0.1397849 0.2981427 -0.6050831
v -0.004887581 0.3079178 -0.4995112
v 0.08504397 0.3059628 -0.5288367
v -0.4271749 0.3216032 0.2297165
v -0.3372434 0.3294233 0.2023461
v -0.3411535 0.3567938 0.3587488
v -0.481916 0.3098729 0.3059628
v -0.2473118 0.3333334 0.2297165
v -0.4799609 0.3020527 0.3998045
v -0.1925709 0.3313783 0.3059628
v -0.4252199 0.3000977 0.4760509
v -0.1925709 0.3235582 0.3998045
v -0.3352884 0.3040078 0.5053763
v -0.2473118 0.313783 0.4760509
v 0.2785923 0.3235582 -0.1397849
v 0.3665689 0.313783 -0.1691105
v 0.370479 0.3587488 -0.01661777
v 0.2238514 0.3294233 -0.06353861
v 0.4565005 0.3059628 -0.1397849
v 0.2238514 0.3294233 0.030303
v 0.5112414 0.3000977 -0.06353861
v 0.2785923 0.3235582 0.1065494
v 0.5112414 0.3000977 0.030303
v 0.3665689 0.313783 0.1358749
v 0.4565005 0.3059628 0.1065494
vt 0.9082419 0.9699245
vt 0.9082419 0.9699245
vt 0.9082419 0.9699245
vt 0.8455802 0.9699245
vt 0.8455802 0.9699245
vt 0.8455802 0.9699245
vt 0.8455802 0.9699245
vt 0.8455802 0.9699245
vt 0.8455802 0.9699245
vt 0.8455802 0.9699245
vt 0.8455802 0.9699245
vt 0.8455802 0.9699245
vt 0.8455802 0.9699245
vt 0.8455802 0.9699245
vt 0.8455802 0.9699245
vt 0.8455802 0.9699245
vt 0.8455802 0.9699245
vt 0.8455802 0.9699245
vt 0.8455802 0.9699245
vt 0.8455802 0.9699245
vt 0.8455802 0.9699245
vt 0.8455802 0.9699245
vt 0.8455802 0.9699245
vt 0.8455802 0.9699245
vt 0.8455802 0.9699245
vt 0.8455802 0.9699245
vt 0.8455802 0.9699245
vt 0.8455802 0.9699245
vt 0.8455802 0.9699245
vt 0.8455802 0.9699245
vt 0.8455802 0.9699245
vt 0.8455802 0.9699245
vt 0.8455802 0.9699245
vt 0.8455802 0.9699245
vt 0.8455802 0.9699245
vt 0.8455802 0.9699245
vt 0.8455802 0.9699245
vt 0.8455802 0.9699245
vt 0.8455802 0.9699245
vt 0.8455802 0.9699245
vt 0.8455802 0.9699245
vt 0.8455802 0.9699245
vt 0.8455802 0.9699245
vt 0.8455802 0.9699245
vt 0.8455802 0.9699245
vt 0.8455802 0.9699245
vt 0.9082419 0.9699245
vt 0.9082419 0.9699245
vt 0.9082419 0.9699245
vt 0.9082419 0.9699245
vt 0.9082419 0.9699245
vt 0.9082419 0.9699245
vt 0.9082419 0.9699245
vt 0.9082419 0.9699245
vt 0.9082419 0.9699245
vt 0.9082419 0.9699245
vt 0.9082419 0.9699245
vt 0.7202569 0.8446012
vt 0.7202569 0.8446012
vt 0.7202569 0.8446012
vt 0.7202569 0.8446012
vt 0.7202569 0.8446012
vt 0.7202569 0.8446012
vt 0.7202569 0.8446012
vt 0.7202569 0.8446012
vt 0.7202569 0.8446012
vt 0.7202569 0.8446012
vt 0.7202569 0.8446012
vt 0.7202569 0.8446012
vt 0.7202569 0.8446012
vt 0.7202569 0.8446012
vt 0.7202569 0.8446012
vt 0.7202569 0.8446012
vt 0.7202569 0.8446012
vt 0.7202569 0.8446012
vt 0.7202569 0.8446012
vt 0.7202569 0.8446012
vt 0.7202569 0.8446012
vt 0.7202569 0.8446012
vt 0.7202569 0.8446012
vt 0.7202569 0.8446012
vt 0.7202569 0.8446012
vt 0.7202569 0.8446012
vt 0.7202569 0.8446012
vt 0.7202569 0.8446012
vt 0.7202569 0.8446012
vt 0.7202569 0.8446012
vt 0.7202569 0.8446012
vt 0.7202569 0.8446012
vt 0.7202569 0.8446012
vt 0.7202569 0.8446012
vt 0.7202569 0.8446012
vt 0.7202569 0.8446012
vt 0.7202569 0.8446012
vt 0.7202569 0.8446012
vt 0.7202569 0.8446012
vt 0.7202569 0.8446012
vt 0.7202569 0.8446012
vt 0.7202569 0.8446012
vt 0.7202569 0.8446012
vt 0.7202569 0.8446012
vt 0.7202569 0.8446012
vt 0.7202569 0.8446012
vt 0.7202569 0.8446012
vt 0.7202569 0.8446012
vt 0.7202569 0.8446012
vt 0.7202569 0.8446012
vt 0.7202569 0.8446012
vt 0.7202569 0.8446012
vt 0.7202569 0.8446012
vt 0.7202569 0.8446012
vt 0.7202569 0.8446012
vt 0.7202569 0.8446012
vt 0.7202569 0.8446012
vt 0.7202569 0.8446012
vt 0.7202569 0.8446012
vt 0.7202569 0.8446012
vt 0.7202569 0.8446012
vt 0.7202569 0.8446012
vt 0.7202569 0.8446012
vt 0.7202569 0.8446012
vt 0.7202569 0.8446012
vt 0.7202569 0.8446012
vt 0.7202569 0.8446012
vt 0.7202569 0.8446012
vt 0.7202569 0.8446012
vt 0.7202569 0.8446012
vt 0.7202569 0.8446012
vt 0.7202569 0.8446012
vt 0.7202569 0.8446012
vt 0.7202569 0.8446012
vt 0.7202569 0.8446012
vt 0.7202569 0.8446012
vt 0.7202569 0.8446012
vt 0.7202569 0.8446012
vt 0.7202569 0.8446012
vt 0.7202569 0.8446012
vt 0.7202569 0.8446012
vt 0.7202569 0.8446012
vt 0.7202569 0.8446012
vt 0.7202569 0.8446012
vt 0.7202569 0.8446012
vt 0.7202569 0.8446012
vt 0.7202569 0.8446012
vt 0.7202569 0.8446012
vt 0.7202569 0.8446012
vt 0.7202569 0.8446012
vt 0.7202569 0.8446012
vt 0.7202569 0.8446012
vt 0.7202569 0.8446012
vt 0.7202569 0.8446012
vt 0.7202569 0.8446012
vt 0.7202569 0.8446012
vt 0.7202569 0.8446012
vt 0.7202569 0.8446012
vt 0.7202569 0.8446012
vt 0.7202569 0.8446012
vt 0.7202569 0.8446012
vt 0.7202569 0.8446012
vt 0.7202569 0.8446012
vt 0.7202569 0.8446012
vt 0.7202569 0.8446012
vn -0.2569982 -0.8883953 0.380402
vn -0.009345591 -0.8883953 0.4589842
vn 0.2383071 -0.8883953 0.3923819
vn -0.5356075 -0.3621334 -0.7628787
vn -0.2569982 -0.8883953 -0.380402
vn -0.009345591 -0.8883953 -0.4589842
vn -0.009345591 -0.3621334 -0.9320794
vn 0.2383071 -0.8883953 -0.3923819
vn -0.009345591 0.2879549 -0.9575984
vn -0.566564 0.2879549 -0.7720668
vn 0.5478729 -0.3621334 -0.7541184
vn 0.4240466 -0.8883953 -0.1758928
vn 0.5478729 0.2879549 -0.7854409
vn 0.8883953 -0.3621334 -0.282158
vn 0.4240466 -0.8883953 0.1758928
vn 0.9193519 0.2879549 -0.2680933
vn 0.8883953 -0.3621334 0.282158
vn 0.2383071 -0.8883953 0.3923819
vn 0.9193519 0.2879549 0.2680933
vn 0.5478729 -0.3621334 0.7541184
vn -0.009345591 -0.8883953 0.4589842
vn 0.5478729 0.2879549 0.7854409
vn -0.009345591 -0.3621334 0.9320794
vn -0.2569982 -0.8883953 0.380402
vn -0.009345591 0.2879549 0.9575984
vn -0.5356075 -0.3621334 0.7628787
vn -0.4117811 -0.8883953 0.2029534
vn -0.566564 0.2879549 0.7720668
vn -0.8761299 -0.3621334 0.3182071
vn -0.4117811 -0.8883953 -0.2029534
vn -0.9070866 0.2879549 0.307044
vn -0.8761299 -0.3621334 -0.3182071
vn -0.2569982 -0.8883953 -0.380402
vn -0.5356075 -0.3621334 -0.7628787
vn -0.9070866 0.2879549 -0.307044
vn 0.3311768 0.8451733 0.4195283
vn -0.009345591 0.8451733 0.5344107
vn -0.009345591 0.9999562 -0.000545915
vn -0.3189114 0.8451733 0.4289261
vn 0.5169163 0.8451733 0.1359396
vn -0.5352882 0.8446695 0
vn 0.5169163 0.8451733 -0.1359396
vn -0.5352882 0.8446695 0
vn 0.3311768 0.8451733 -0.4195283
vn -0.3189114 0.8451733 -0.4289261
vn -0.009345591 0.8451733 -0.5344107
vn 0.2383071 -0.8883953 -0.3923819
vn -0.009345591 -0.8883953 -0.4589842
vn -0.2569982 -0.8883953 -0.380402
vn 0.4240466 -0.8883953 -0.1758928
vn -0.4117811 -0.8883953 -0.2029534
vn -0.4117811 -0.8883953 0.2029534
vn -0.4117811 -0.8883953 0.2029534
vn 0.4240466 -0.8883953 0.1758928
vn 0.4240466 -0.8883953 -0.1758928
vn 0.2383071 -0.8883953 0.3923819
vn -0.2569982 -0.8883953 0.380402
vn 0.02161098 0.1641285 -0.9862022
vn 0.02161098 0.1641285 -0.9862022
vn -0.566564 0.2260416 -0.792408
vn -0.566564 0.2260416 -0.792408
vn -0.9070866 0.2569982 -0.3333855
vn -0.9070866 0.2569982 -0.3333855
vn -0.9070866 0.2569982 0.3333855
vn -0.9070866 0.2569982 0.3333855
vn -0.566564 0.2260416 0.792408
vn -0.566564 0.2260416 0.792408
vn 0.02161098 0.1950851 0.9805481
vn 0.02161098 0.1950851 0.9805481
vn 0.6097861 0.1331719 0.7812977
vn 0.5788295 0.1331719 0.8045009
vn 0.9503085 0.07125872 0.3030445
vn 0.9503085 0.07125872 0.3030445
vn 0.9503085 0.07125872 0.3030445
vn 0.9503085 0.07125872 0.3030445
vn 0.9503085 0.07125872 -0.3030445
vn 0.9503085 0.07125872 -0.3030445
vn 0.5788295 0.1022153 -0.8090169
vn 0.5788295 0.1022153 -0.8090169
vn 0.02161098 0.1641285 -0.9862022
vn 0.02161098 0.1641285 -0.9862022
vn -0.009345591 0.1950851 -0.9807418
vn -0.009345591 0.1950851 -0.9807418
vn -0.5975206 0.1641285 -0.7848764
vn -0.5975206 0.1641285 -0.7848764
vn -0.9380431 0.1331719 -0.319907
vn -0.9380431 0.1331719 -0.319907
vn -0.9380431 0.1022153 0.3311
vn -0.9380431 0.1022153 0.3311
vn -0.5975206 0.1022153 0.7953119
vn -0.5975206 0.1022153 0.7953119
vn -0.009345591 0.1331719 0.9910489
vn -0.009345591 0.1331719 0.9910489
vn 0.5788295 0.1641285 0.7987605
vn 0.5478729 0.1331719 0.8258938
vn 0.9193519 0.1950851 0.3416633
vn 0.9193519 0.1950851 0.3416633
vn 0.9193519 0.1950851 0.3416633
vn 0.9193519 0.1950851 0.3416633
vn 0.9193519 0.1950851 -0.3416633
vn 0.9193519 0.1950851 -0.3416633
vn 0.5788295 0.2260416 -0.7834932
vn 0.5788295 0.2260416 -0.7834932
vn -0.009345591 0.1950851 -0.9807418
vn -0.009345591 0.1950851 -0.9807418
vn -0.009345591 0.07125872 -0.9974141
vn -0.009345591 0.07125872 -0.9974141
vn -0.5975206 0.1022153 -0.7953119
vn -0.5975206 0.1022153 -0.7953119
vn -0.9380431 0.1331719 -0.319907
vn -0.9380431 0.1331719 -0.319907
vn -0.9380431 0.2260416 0.2626412
vn -0.9380431 0.2260416 0.2626412
vn -0.566564 0.2569982 0.7829158
vn -0.566564 0.2569982 0.7829158
vn 0.02161098 0.2879549 0.9574001
vn 0.02161098 0.2879549 0.9574001
vn 0.5788295 0.2569982 0.7738917
vn 0.5788295 0.2569982 0.7738917
vn 0.9503085 0.1950851 0.2426016
vn 0.9503085 0.1950851 0.2426016
vn 0.9503085 0.1950851 0.2426016
vn 0.9503085 0.1950851 0.2426016
vn 0.9193519 0.1331719 -0.3702125
vn 0.9503085 0.1331719 -0.2813877
vn 0.5788295 0.07125872 -0.8123291
vn 0.5788295 0.07125872 -0.8123291
vn -0.009345591 0.07125872 -0.9974141
vn -0.009345591 0.07125872 -0.9974141
vn -0.1641285 0.9380431 -0.3051837
vn -0.009345591 0.9380431 -0.3463927
vn -0.009345591 0.9999562 -0.000545915
vn -0.2569982 0.9380431 -0.2324374
vn 0.1763939 0.9380431 -0.2982623
vn -0.2563571 0.9665822 0
vn 0.2692637 0.9380431 -0.2181108
vn -0.1641285 0.9689997 0.1846659
vn 0.2677335 0.9634931 0
vn -0.009345591 0.9689997 0.2468852
vn 0.1763939 0.9689997 0.1729879
vn -0.2260416 0.9689997 -0.0997236
vn -0.07125872 0.9689997 -0.2365626
vn -0.07108159 0.9974706 0
vn -0.3189114 0.9380431 0.1355387
vn 0.08323797 0.9965298 0
vn -0.3189114 0.9380431 0.1355387
vn 0.1737195 0.9847952 0
vn -0.2260416 0.9380431 0.2626412
vn 0.1763939 0.9689997 0.1729879
vn -0.07125872 0.9380431 0.3391127
vn 0.08352417 0.9689997 0.2325152
vn -0.07125872 0.9689997 -0.2365626
vn 0.08352417 0.9689997 -0.2325152
vn 0.08323797 0.9965298 0
vn -0.1641285 0.9689997 -0.1846659
vn 0.2692637 0.9380431 -0.2181108
vn -0.1641285 0.9689997 0.1846659
vn 0.3601463 0.9328958 0
vn -0.07125872 0.9689997 0.2365626
vn 0.3601463 0.9328958 0
vn 0.08352417 0.9689997 0.2325152
vn 0.2692637 0.9380431 0.2181108
g cookie_0
f 3/3/3 2/2/2 1/1/1
f 6/6/6 5/5/5 4/4/4
f 7/7/7 6/6/6 4/4/4
f 8/8/8 6/6/6 7/7/7
f 9/9/9 7/7/7 4/4/4
f 10/10/10 9/9/9 4/4/4
f 11/11/11 8/8/8 7/7/7
f 12/12/12 8/8/8 11/11/11
f 9/9/9 13/13/13 7/7/7
f 13/13/13 11/11/11 7/7/7
f 14/14/14 12/12/12 11/11/11
f 15/15/15 12/12/12 14/14/14
f 13/13/13 16/16/16 11/11/11
f 16/16/16 14/14/14 11/11/11
f 17/17/17 15/15/15 14/14/14
f 18/18/18 15/15/15 17/17/17
f 16/16/16 19/19/19 14/14/14
f 19/19/19 17/17/17 14/14/14
f 20/20/20 18/18/18 17/17/17
f 21/21/21 18/18/18 20/20/20
f 19/19/19 22/22/22 17/17/17
f 22/22/22 20/20/20 17/17/17
f 23/23/23 21/21/21 20/20/20
f 24/24/24 21/21/21 23/23/23
f 22/22/22 25/25/25 20/20/20
f 25/25/25 23/23/23 20/20/20
f 26/26/26 24/24/24 23/23/23
f 27/27/27 24/24/24 26/26/26
f 25/25/25 28/28/28 23/23/23
f 28/28/28 26/26/26 23/23/23
f 29/29/29 27/27/27 26/26/26
f 30/30/30 27/27/27 29/29/29
f 28/28/28 31/31/31 26/26/26
f 31/31/31 29/29/29 26/26/26
f 32/32/32 30/30/30 29/29/29
f 33/33/33 30/30/30 32/32/32
f 34/34/34 33/33/33 32/32/32
f 10/10/10 34/34/34 32/32/32
f 35/35/35 32/32/32 29/29/29
f 31/31/31 35/35/35 29/29/29
f 35/35/35 10/10/10 32/32/32
f 22/22/22 36/36/36 25/25/25
f 25/25/25 37/37/37 28/28/28
f 36/36/36 37/37/37 25/25/25
f 36/36/36 38/38/38 37/37/37
f 37/37/37 38/38/38 39/39/39
f 37/37/37 39/39/39 28/28/28
f 28/28/28 39/39/39 31/31/31
f 40/40/40 38/38/38 36/36/36
f 40/40/40 36/36/36 22/22/22
f 19/19/19 40/40/40 22/22/22
f 39/39/39 41/41/41 31/31/31
f 31/31/31 41/41/41 35/35/35
f 39/39/39 38/38/38 41/41/41
f 42/42/42 40/40/40 19/19/19
f 42/42/42 38/38/38 40/40/40
f 16/16/16 42/42/42 19/19/19
f 41/41/41 43/43/43 35/35/35
f 35/35/35 43/43/43 10/10/10
f 41/41/41 38/38/38 43/43/43
f 44/44/44 42/42/42 16/16/16
f 44/44/44 38/38/38 42/42/42
f 13/13/13 44/44/44 16/16/16
f 43/43/43 45/45/45 10/10/10
f 43/43/43 38/38/38 45/45/45
f 10/10/10 45/45/45 9/9/9
f 46/46/46 44/44/44 13/13/13
f 46/46/46 38/38/38 44/44/44
f 9/9/9 46/46/46 13/13/13
f 45/45/45 46/46/46 9/9/9
f 45/45/45 38/38/38 46/46/46
f 49/49/49 48/48/48 47/47/47
f 47/47/47 50/50/50 49/49/49
f 50/50/50 51/51/51 49/49/49
f 50/50/50 52/52/52 51/51/51
f 55/55/55 54/54/54 53/53/53
f 54/54/54 56/56/56 53/53/53
f 56/56/56 57/57/57 53/53/53
f 60/60/60 59/59/59 58/58/58
f 61/61/61 60/60/60 58/58/58
f 62/62/62 60/60/60 61/61/61
f 63/63/63 62/62/62 61/61/61
f 64/64/64 62/62/62 63/63/63
f 65/65/65 64/64/64 63/63/63
f 66/66/66 64/64/64 65/65/65
f 67/67/67 66/66/66 65/65/65
f 68/68/68 66/66/66 67/67/67
f 69/69/69 68/68/68 67/67/67
f 70/70/70 68/68/68 69/69/69
f 71/71/71 70/70/70 69/69/69
f 72/72/72 70/70/70 71/71/71
f 73/73/73 72/72/72 71/71/71
f 76/76/76 75/75/75 74/74/74
f 77/77/77 76/76/76 74/74/74
f 78/78/78 76/76/76 77/77/77
f 79/79/79 78/78/78 77/77/77
f 80/80/80 78/78/78 79/79/79
f 81/81/81 80/80/80 79/79/79
f 84/84/84 83/83/83 82/82/82
f 85/85/85 84/84/84 82/82/82
f 86/86/86 84/84/84 85/85/85
f 87/87/87 86/86/86 85/85/85
f 88/88/88 86/86/86 87/87/87
f 89/89/89 88/88/88 87/87/87
f 90/90/90 88/88/88 89/89/89
f 91/91/91 90/90/90 89/89/89
f 92/92/92 90/90/90 91/91/91
f 93/93/93 92/92/92 91/91/91
f 94/94/94 92/92/92 93/93/93
f 95/95/95 94/94/94 93/93/93
f 96/96/96 94/94/94 95/95/95
f 97/97/97 96/96/96 95/95/95
f 100/100/100 99/99/99 98/98/98
f 101/101/101 100/100/100 98/98/98
f 102/102/102 100/100/100 101/101/101
f 103/103/103 102/102/102 101/101/101
f 104/104/104 102/102/102 103/103/103
f 105/105/105 104/104/104 103/103/103
f 108/108/108 107/107/107 106/106/106
f 109/109/109 108/108/108 106/106/106
f 110/110/110 108/108/108 109/109/109
f 111/111/111 110/110/110 109/109/109
f 112/112/112 110/110/110 111/111/111
f 113/113/113 112/112/112 111/111/111
f 114/114/114 112/112/112 113/113/113
f 115/115/115 114/114/114 113/113/113
f 116/116/116 114/114/114 115/115/115
f 117/117/117 116/116/116 115/115/115
f 118/118/118 116/116/116 117/117/117
f 119/119/119 118/118/118 117/117/117
f 120/120/120 118/118/118 119/119/119
f 121/121/121 120/120/120 119/119/119
f 124/124/124 123/123/123 122/122/122
f 125/125/125 124/124/124 122/122/122
f 126/126/126 124/124/124 125/125/125
f 127/127/127 126/126/126 125/125/125
f 128/128/128 126/126/126 127/127/127
f 129/129/129 128/128/128 127/127/127
f 132/132/132 131/131/131 130/130/130
f 132/132/132 130/130/130 133/133/133
f 132/132/132 134/134/134 131/131/131
f 132/132/132 133/133/133 135/135/135
f 132/132/132 136/136/136 134/134/134
f 132/132/132 135/135/135 137/137/137
f 132/132/132 138/138/138 136/136/136
f 132/132/132 137/137/137 139/139/139
f 132/132/132 140/140/140 138/138/138
f 132/132/132 139/139/139 140/140/140
f 143/143/143 142/142/142 141/141/141
f 143/143/143 141/141/141 144/144/144
f 143/143/143 145/145/145 142/142/142
f 143/143/143 144/144/144 146/146/146
f 143/143/143 147/147/147 145/145/145
f 143/143/143 146/146/146 148/148/148
f 143/143/143 149/149/149 147/147/147
f 143/143/143 148/148/148 150/150/150
f 143/143/143 151/151/151 149/149/149
f 143/143/143 150/150/150 151/151/151
f 154/154/154 153/153/153 152/152/152
f 154/154/154 152/152/152 155/155/155
f 154/154/154 156/156/156 153/153/153
f 154/154/154 155/155/155 157/157/157
f 154/154/154 158/158/158 156/156/156
f 154/154/154 157/157/157 159/159/159
f 154/154/154 160/160/160 158/158/158
f 154/154/154 159/159/159 161/161/161
f 154/154/154 162/162/162 160/160/160
f 154/154/154 161/161/161 162/162/162
