g egg
v 0.6327055 0.1337882 -0.4325572
v 0.6727351 0.04038566 -0.4236617
v 0.7868937 0.1500965 -0.2086877
v 0.3762192 0.09820628 -0.5897107
v 0.7201777 -0.03819108 -0.3777018
v 0.4547959 -0.07377297 -0.5734023
v 0.6223274 0.2316384 -0.4103185
v 0.3361895 0.2731507 -0.5407856
v 0.0633949 0.04779857 -0.6564267
v 0.007056892 0.2761158 -0.5926758
v 0.5363378 -0.2205483 -0.4888952
v 0.7587247 -0.09156394 -0.3020902
v 0.1508671 -0.1805187 -0.6312228
v 0.3376721 0.4243737 -0.4355224
v 0.008539438 0.4732989 -0.4533133
v 0.6223274 0.3131803 -0.3524979
v 0.6030539 -0.3198812 -0.3465676
v 0.7794808 -0.11232 -0.2057225
v 0.6341881 0.3680358 -0.2694734
v 0.7839286 -0.09601164 -0.1049072
v 0.6564267 0.3873093 -0.1731058
v 0.3599108 0.5266718 -0.2813341
v 0.03819108 0.6067311 -0.2531651
v 0.3999405 0.5622537 -0.1049072
v 0.2457522 -0.373254 -0.5170642
v 0.6460487 -0.3584282 -0.1701406
v 0.09156394 0.652691 -0.02188265
v 0.3317418 -0.503721 -0.3317418
v -0.2642552 0.6008008 -0.1923793
v -0.2064345 0.6512084 0.05817664
v -0.2968719 0.4569905 -0.4088359
v -0.2968719 0.2420164 -0.5600591
v -0.2449816 -0.007056892 -0.6267751
v -0.1649224 -0.2546477 -0.595641
v -0.07151985 -0.4666565 -0.4696217
v -0.4999853 0.5088809 -0.1093549
v -0.5296369 0.3754487 -0.3095031
v -0.5296369 0.1782656 -0.4488656
v -0.494055 -0.05449945 -0.5066862
v -0.4317867 -0.2857819 -0.475552
v -0.4466125 0.5548408 0.1219276
v 0.01595235 -0.6089842 -0.2679909
v -0.35321 -0.4829649 -0.3569457
v 0.391045 -0.5526462 -0.1019419
v 0.6579093 -0.3272941 0.01369923
v 0.7779983 -0.04412138 -0.01743495
v 0.08415103 -0.6593919 -0.02040011
v 0.4162488 -0.5111339 0.1367533
v 0.6430835 -0.232409 0.1782656
v -0.2761158 -0.6149145 -0.1686581
v 0.7779983 0.03742051 0.04038566
v -0.6111788 -0.2694734 -0.2872644
v -0.5578059 -0.4206966 -0.1953445
v -0.652691 -0.09008133 -0.3139508
v -0.6734471 0.08931077 -0.270956
v -0.6719645 0.2405339 -0.1642103
v -0.6497259 0.3413494 -0.01150459
v -0.6082137 0.3769312 0.1664049
v -0.7179245 -0.11232 -0.07080781
v -0.7297852 -0.01595235 -0.04708654
v -0.6956859 -0.1197329 0.1886436
v -0.6971684 -0.2086877 -0.05598199
v -0.7297852 0.06707209 0.01073408
v -0.716442 0.1219276 0.09375852
v -0.6956859 0.1412011 0.1886436
v -0.6689994 -0.2917122 -0.005574286
v -0.6660342 0.1219276 0.2835287
v -0.6378652 -0.3465676 0.07151985
v -0.6349001 0.06707209 0.3606229
v -0.4999853 -0.521512 -0.0515343
v -0.5563234 0.3413494 0.3398668
v -0.2093998 -0.662357 0.05965918
v -0.4466125 -0.5570939 0.1219276
v -0.3769312 0.5088809 0.3502448
v -0.4985027 0.2405339 0.4836769
v 0.1226981 -0.6134319 0.2360861
v -0.130823 0.6008008 0.3042848
v -0.6082137 -0.3658411 0.1664049
v -0.1649224 -0.6163971 0.2924242
v 0.4103185 -0.3851147 0.3472797
v -0.4080654 -0.521512 0.2998371
v 0.1315936 -0.4740694 0.4584731
v 0.62381 -0.08415103 0.289459
v -0.5859749 -0.3465676 0.2612901
v -0.1456488 -0.4859301 0.4955376
v 0.3836321 -0.1923793 0.494055
v 0.7661376 0.1337882 0.06410694
v -0.3858267 -0.4206966 0.4540254
v 0.1093549 -0.2635431 0.6156266
v 0.6030539 0.09375852 0.3324538
v -0.5741143 -0.2917122 0.3443145
v -0.1530617 -0.2902296 0.6363827
v 0.3554631 0.04186827 0.5489105
v 0.7453815 0.2316384 0.04928112
v -0.3858267 -0.2694734 0.5592885
v 0.07970327 -0.01002204 0.6764123
v 0.5630242 0.2731507 0.3057674
v 0.7157299 0.3131803 -0.001126587
v 0.3035728 0.2761158 0.5148112
v -0.1812307 -0.05598199 0.6942033
v -0.5741143 -0.2086877 0.4021351
v 0.6860783 0.3680358 -0.07970327
v 0.5111339 0.4243737 0.2138475
v 0.4533133 0.5266718 0.0685547
v 0.02336526 0.2420164 0.6378652
v 0.2353742 0.4732989 0.3932396
v 0.1597626 0.6067311 0.204952
v -0.05076373 0.4569905 0.5073982
v -0.2346036 0.1782656 0.6586213
v -0.3028022 0.3754487 0.5385324
v -0.4065828 -0.09008133 0.6037658
v -0.4466125 0.08931077 0.5770794
v -0.5859749 -0.11232 0.4258564
v -0.6067311 -0.01595235 0.4110305
vt 0.09300077 0.09233141
vt 0.09300077 0.09233141
vt 0.09300077 0.09233141
vt 0.09300077 0.09233141
vt 0.09300077 0.09233141
vt 0.09300077 0.09233141
vt 0.09300077 0.09233141
vt 0.09300077 0.09233141
vt 0.09300077 0.09233141
vt 0.09300077 0.09233141
vt 0.09300077 0.09233141
vt 0.09300077 0.09233141
vt 0.09300077 0.09233141
vt 0.09300077 0.09233141
vt 0.09300077 0.09233141
vt 0.09300077 0.09233141
vt 0.09300077 0.09233141
vt 0.09300077 0.09233141
vt 0.09300077 0.09233141
vt 0.09300077 0.09233141
vt 0.09300077 0.09233141
vt 0.09300077 0.09233141
vt 0.09300077 0.09233141
vt 0.09300077 0.09233141
vt 0.09300077 0.09233141
vt 0.09300077 0.09233141
vt 0.09300077 0.09233141
vt 0.09300077 0.09233141
vt 0.09300077 0.09233141
vt 0.09300077 0.09233141
vt 0.09300077 0.09233141
vt 0.09300077 0.09233141
vt 0.09300077 0.09233141
vt 0.09300077 0.09233141
vt 0.09300077 0.09233141
vt 0.09300077 0.09233141
vt 0.09300077 0.09233141
vt 0.09300077 0.09233141
vt 0.09300077 0.09233141
vt 0.09300077 0.09233141
vt 0.09300077 0.09233141
vt 0.09300077 0.09233141
vt 0.09300077 0.09233141
vt 0.09300077 0.09233141
vt 0.09300077 0.09233141
vt 0.09300077 0.09233141
vt 0.09300077 0.09233141
vt 0.09300077 0.09233141
vt 0.09300077 0.09233141
vt 0.09300077 0.09233141
vt 0.09300077 0.09233141
vt 0.09300077 0.09233141
vt 0.09300077 0.09233141
vt 0.09300077 0.09233141
vt 0.09300077 0.09233141
vt 0.09300077 0.09233141
vt 0.09300077 0.09233141
vt 0.09300077 0.09233141
vt 0.09300077 0.09233141
vt 0.09300077 0.09233141
vt 0.09300077 0.09233141
vt 0.09300077 0.09233141
vt 0.09300077 0.09233141
vt 0.09300077 0.09233141
vt 0.09300077 0.09233141
vt 0.09300077 0.09233141
vt 0.09300077 0.09233141
vt 0.09300077 0.09233141
vt 0.09300077 0.09233141
vt 0.09300077 0.09233141
vt 0.09300077 0.09233141
vt 0.09300077 0.09233141
vt 0.09300077 0.09233141
vt 0.09300077 0.09233141
vt 0.09300077 0.09233141
vt 0.09300077 0.09233141
vt 0.09300077 0.09233141
vt 0.09300077 0.09233141
vt 0.09300077 0.09233141
vt 0.09300077 0.09233141
vt 0.09300077 0.09233141
vt 0.09300077 0.09233141
vt 0.09300077 0.09233141
vt 0.09300077 0.09233141
vt 0.09300077 0.09233141
vt 0.09300077 0.09233141
vt 0.09300077 0.09233141
vt 0.09300077 0.09233141
vt 0.09300077 0.09233141
vt 0.09300077 0.09233141
vt 0.09300077 0.09233141
vt 0.09300077 0.09233141
vt 0.09300077 0.09233141
vt 0.09300077 0.09233141
vt 0.09300077 0.09233141
vt 0.09300077 0.09233141
vt 0.09300077 0.09233141
vt 0.09300077 0.09233141
vt 0.09300077 0.09233141
vt 0.09300077 0.09233141
vt 0.09300077 0.09233141
vt 0.09300077 0.09233141
vt 0.09300077 0.09233141
vt 0.09300077 0.09233141
vt 0.09300077 0.09233141
vt 0.09300077 0.09233141
vt 0.09300077 0.09233141
vt 0.09300077 0.09233141
vt 0.09300077 0.09233141
vt 0.09300077 0.09233141
vt 0.09300077 0.09233141
vt 0.09300077 0.09233141
vt 0.09300077 0.09233141
vt 0.09300077 0.09233141
vn 0.6396707 0.2411875 -0.7298288
vn 0.7025891 0.1153506 -0.7021843
vn 0.9542629 0.2411875 -0.1766664
vn 0.3250785 0.178269 -0.9287325
vn 0.7969668 -0.07340473 -0.5995462
vn 0.3879969 -0.1048639 -0.9156757
vn 0.6082115 0.3670243 -0.7038267
vn 0.2936193 0.4299427 -0.8537781
vn 0.04194552 0.08389139 -0.9955917
vn -0.02097285 0.4299427 -0.9026125
vn 0.5138338 -0.3879969 -0.7651361
vn 0.8913444 -0.2307009 -0.3902336
vn 0.1048639 -0.2621601 -0.95931
vn 0.2936193 0.6816164 -0.670214
vn 0.0104863 0.7130758 -0.7010086
vn 0.6082115 0.5243204 -0.5959588
vn 0.6396707 -0.6082115 -0.4700003
vn 0.9542629 -0.2936193 -0.05630393
vn 0.6396707 0.6501572 -0.4100208
vn 0.9542629 -0.2307009 0.1901566
vn 0.7018496 0.7123252 0
vn 0.3250785 0.8389126 -0.4365199
vn 0.04194552 0.9332902 -0.356665
vn 0.3879969 0.901831 -0.1901558
vn 0.2307009 -0.6082115 -0.7595103
vn 0.7340484 -0.6711299 -0.1037193
vn 0.1355785 0.9907666 0
vn 0.3250785 -0.828426 -0.4561077
vn -0.2726467 0.901831 -0.3352084
vn -0.1761494 0.9843634 0
vn -0.3041059 0.6816164 -0.6655214
vn -0.3355651 0.3670243 -0.8675767
vn -0.2726467 -0.0104863 -0.9620571
vn -0.178269 -0.3879969 -0.9042558
vn -0.08389139 -0.7025891 -0.7066334
vn -0.618698 0.7759942 -0.1226614
vn -0.6501572 0.5557796 -0.5180779
vn -0.6501572 0.2726467 -0.7091963
vn -0.5872388 -0.07340473 -0.8060784
vn -0.4928612 -0.4194561 -0.7623283
vn -0.5243204 0.8389126 0.1459924
vn 0.04194552 -0.9228036 -0.3829805
vn -0.3984835 -0.7025891 -0.5895587
vn 0.4509153 -0.8913444 -0.04669537
vn 0.7969668 -0.5767522 0.1794457
vn 0.9542629 -0.1677824 0.2474499
vn 0.1677824 -0.9857221 -0.01418119
vn 0.545293 -0.7969668 0.2598066
vn 0.7969668 -0.4194561 0.4346268
vn -0.2726467 -0.9228036 -0.2722082
vn 0.9542629 -0.04194552 0.2960118
vn -0.8074534 -0.3879969 -0.4443843
vn -0.7130758 -0.6082115 -0.3487145
vn -0.8703718 -0.1363232 -0.4731479
vn -0.901831 0.1153506 -0.4164073
vn -0.901831 0.3355651 -0.2722074
vn -0.870172 0.492748 0
vn -0.8074534 0.5557796 0.1978081
vn -0.9647495 -0.1677824 -0.20275
vn -0.9962087 -0.0104863 -0.08636166
vn -0.9647495 -0.1677824 0.20275
vn -0.9332902 -0.2936193 -0.2067777
vn -0.9962087 0.08389139 -0.02303332
vn -0.9647495 0.178269 0.1935941
vn -0.9332902 0.2097282 0.2915191
vn -0.901831 -0.4194561 -0.1037178
vn -0.901831 0.178269 0.3936
vn -0.8611331 -0.5083796 0
vn -0.8703718 0.08389139 0.485196
vn -0.618698 -0.7655075 -0.1766664
vn -0.744535 0.4928612 0.4502839
vn -0.1779643 -0.984037 0
vn -0.5557796 -0.828426 0.06942185
vn -0.4299427 0.7759942 0.4615
vn -0.6501572 0.3355651 0.6816829
vn 0.2621601 -0.9228036 0.2823217
vn -0.08389139 0.901831 0.4238668
vn -0.8074534 -0.5138338 0.289817
vn -0.1153506 -0.9228036 0.3675972
vn 0.5767522 -0.5767522 0.5785444
vn -0.4928612 -0.7655075 0.4136256
vn 0.2936193 -0.7025891 0.6481947
vn 0.7969668 -0.1992416 0.5702164
vn -0.7759942 -0.4823746 0.4063838
vn -0.08389139 -0.7340484 0.6738956
vn 0.5767522 -0.2936193 0.7623284
vn 0.9228036 0.1468098 0.3562026
vn -0.4928612 -0.6082115 0.6222272
vn 0.2936193 -0.3879969 0.8736396
vn 0.7340484 0.08389139 0.6738956
vn -0.7759942 -0.4194561 0.4710516
vn -0.08389139 -0.4194561 0.9038909
vn 0.545293 0.05243218 0.8366041
vn 0.8913444 0.3670243 0.2660795
vn -0.4928612 -0.3879969 0.7788108
vn 0.2307009 -0.0104863 0.9729682
vn 0.6711299 0.3984835 0.6251364
vn 0.828426 0.5243204 0.1969733
vn 0.4509153 0.3984835 0.7986778
vn -0.1468098 -0.07340473 0.9864373
vn -0.7759942 -0.2936193 0.55823
vn 0.7621968 0.6473454 0
vn 0.5767522 0.6816164 0.4502842
vn 0.4823746 0.8389126 0.2520722
vn 0.1677824 0.3670243 0.9149548
vn 0.3565377 0.7130758 0.6036587
vn 0.2307009 0.9332902 0.2752207
vn 0.04194552 0.6816164 0.7305064
vn -0.2097282 0.2726467 0.938977
vn -0.3041059 0.5872388 0.7501135
vn -0.5243204 -0.1363232 0.840538
vn -0.5872388 0.1153506 0.8011522
vn -0.7759942 -0.1677824 0.6080149
vn -0.8074534 -0.0104863 0.5898381
g egg_0
f 3/3/3 2/2/2 1/1/1
f 1/1/1 2/2/2 4/4/4
f 3/3/3 5/5/5 2/2/2
f 2/2/2 6/6/6 4/4/4
f 2/2/2 5/5/5 6/6/6
f 3/3/3 1/1/1 7/7/7
f 1/1/1 4/4/4 8/8/8
f 7/7/7 1/1/1 8/8/8
f 4/4/4 6/6/6 9/9/9
f 8/8/8 4/4/4 10/10/10
f 4/4/4 9/9/9 10/10/10
f 5/5/5 11/11/11 6/6/6
f 3/3/3 12/12/12 5/5/5
f 5/5/5 12/12/12 11/11/11
f 6/6/6 13/13/13 9/9/9
f 6/6/6 11/11/11 13/13/13
f 7/7/7 8/8/8 14/14/14
f 8/8/8 10/10/10 15/15/15
f 14/14/14 8/8/8 15/15/15
f 3/3/3 7/7/7 16/16/16
f 16/16/16 7/7/7 14/14/14
f 12/12/12 17/17/17 11/11/11
f 3/3/3 18/18/18 12/12/12
f 12/12/12 18/18/18 17/17/17
f 3/3/3 16/16/16 19/19/19
f 3/3/3 20/20/20 18/18/18
f 3/3/3 19/19/19 21/21/21
f 16/16/16 14/14/14 22/22/22
f 19/19/19 16/16/16 22/22/22
f 14/14/14 15/15/15 23/23/23
f 22/22/22 14/14/14 23/23/23
f 19/19/19 22/22/22 24/24/24
f 21/21/21 19/19/19 24/24/24
f 11/11/11 17/17/17 25/25/25
f 11/11/11 25/25/25 13/13/13
f 18/18/18 26/26/26 17/17/17
f 18/18/18 20/20/20 26/26/26
f 22/22/22 23/23/23 27/27/27
f 24/24/24 22/22/22 27/27/27
f 17/17/17 28/28/28 25/25/25
f 17/17/17 26/26/26 28/28/28
f 23/23/23 15/15/15 29/29/29
f 27/27/27 23/23/23 30/30/30
f 23/23/23 29/29/29 30/30/30
f 15/15/15 31/31/31 29/29/29
f 15/15/15 10/10/10 31/31/31
f 10/10/10 32/32/32 31/31/31
f 10/10/10 9/9/9 32/32/32
f 9/9/9 33/33/33 32/32/32
f 9/9/9 13/13/13 33/33/33
f 13/13/13 25/25/25 34/34/34
f 13/13/13 34/34/34 33/33/33
f 25/25/25 28/28/28 35/35/35
f 25/25/25 35/35/35 34/34/34
f 29/29/29 31/31/31 36/36/36
f 31/31/31 32/32/32 37/37/37
f 31/31/31 37/37/37 36/36/36
f 32/32/32 33/33/33 38/38/38
f 32/32/32 38/38/38 37/37/37
f 33/33/33 34/34/34 39/39/39
f 33/33/33 39/39/39 38/38/38
f 34/34/34 35/35/35 40/40/40
f 34/34/34 40/40/40 39/39/39
f 29/29/29 36/36/36 41/41/41
f 30/30/30 29/29/29 41/41/41
f 28/28/28 42/42/42 35/35/35
f 35/35/35 43/43/43 40/40/40
f 35/35/35 42/42/42 43/43/43
f 28/28/28 44/44/44 42/42/42
f 26/26/26 44/44/44 28/28/28
f 26/26/26 45/45/45 44/44/44
f 20/20/20 45/45/45 26/26/26
f 20/20/20 46/46/46 45/45/45
f 3/3/3 46/46/46 20/20/20
f 44/44/44 47/47/47 42/42/42
f 45/45/45 48/48/48 44/44/44
f 44/44/44 48/48/48 47/47/47
f 46/46/46 49/49/49 45/45/45
f 45/45/45 49/49/49 48/48/48
f 42/42/42 50/50/50 43/43/43
f 42/42/42 47/47/47 50/50/50
f 3/3/3 51/51/51 46/46/46
f 46/46/46 51/51/51 49/49/49
f 40/40/40 43/43/43 52/52/52
f 43/43/43 50/50/50 53/53/53
f 43/43/43 53/53/53 52/52/52
f 40/40/40 52/52/52 54/54/54
f 39/39/39 40/40/40 54/54/54
f 39/39/39 54/54/54 55/55/55
f 38/38/38 39/39/39 55/55/55
f 38/38/38 55/55/55 56/56/56
f 37/37/37 38/38/38 56/56/56
f 37/37/37 56/56/56 57/57/57
f 36/36/36 37/37/37 57/57/57
f 36/36/36 57/57/57 58/58/58
f 41/41/41 36/36/36 58/58/58
f 54/54/54 52/52/52 59/59/59
f 55/55/55 54/54/54 60/60/60
f 54/54/54 59/59/59 60/60/60
f 60/60/60 59/59/59 61/61/61
f 52/52/52 62/62/62 59/59/59
f 59/59/59 62/62/62 61/61/61
f 52/52/52 53/53/53 62/62/62
f 55/55/55 60/60/60 63/63/63
f 56/56/56 55/55/55 63/63/63
f 63/63/63 60/60/60 61/61/61
f 56/56/56 63/63/63 64/64/64
f 57/57/57 56/56/56 64/64/64
f 64/64/64 63/63/63 61/61/61
f 57/57/57 64/64/64 65/65/65
f 58/58/58 57/57/57 65/65/65
f 65/65/65 64/64/64 61/61/61
f 62/62/62 66/66/66 61/61/61
f 53/53/53 66/66/66 62/62/62
f 67/67/67 65/65/65 61/61/61
f 58/58/58 65/65/65 67/67/67
f 66/66/66 68/68/68 61/61/61
f 69/69/69 67/67/67 61/61/61
f 53/53/53 70/70/70 66/66/66
f 70/70/70 68/68/68 66/66/66
f 50/50/50 70/70/70 53/53/53
f 71/71/71 58/58/58 67/67/67
f 71/71/71 67/67/67 69/69/69
f 41/41/41 58/58/58 71/71/71
f 50/50/50 72/72/72 70/70/70
f 47/47/47 72/72/72 50/50/50
f 70/70/70 73/73/73 68/68/68
f 72/72/72 73/73/73 70/70/70
f 74/74/74 41/41/41 71/71/71
f 30/30/30 41/41/41 74/74/74
f 75/75/75 71/71/71 69/69/69
f 74/74/74 71/71/71 75/75/75
f 47/47/47 76/76/76 72/72/72
f 48/48/48 76/76/76 47/47/47
f 77/77/77 30/30/30 74/74/74
f 27/27/27 30/30/30 77/77/77
f 73/73/73 78/78/78 68/68/68
f 68/68/68 78/78/78 61/61/61
f 72/72/72 79/79/79 73/73/73
f 76/76/76 79/79/79 72/72/72
f 48/48/48 80/80/80 76/76/76
f 49/49/49 80/80/80 48/48/48
f 73/73/73 81/81/81 78/78/78
f 79/79/79 81/81/81 73/73/73
f 76/76/76 82/82/82 79/79/79
f 80/80/80 82/82/82 76/76/76
f 49/49/49 83/83/83 80/80/80
f 51/51/51 83/83/83 49/49/49
f 78/78/78 84/84/84 61/61/61
f 81/81/81 84/84/84 78/78/78
f 79/79/79 85/85/85 81/81/81
f 82/82/82 85/85/85 79/79/79
f 80/80/80 86/86/86 82/82/82
f 83/83/83 86/86/86 80/80/80
f 51/51/51 87/87/87 83/83/83
f 3/3/3 87/87/87 51/51/51
f 81/81/81 88/88/88 84/84/84
f 85/85/85 88/88/88 81/81/81
f 82/82/82 89/89/89 85/85/85
f 86/86/86 89/89/89 82/82/82
f 83/83/83 90/90/90 86/86/86
f 87/87/87 90/90/90 83/83/83
f 84/84/84 91/91/91 61/61/61
f 88/88/88 91/91/91 84/84/84
f 85/85/85 92/92/92 88/88/88
f 89/89/89 92/92/92 85/85/85
f 86/86/86 93/93/93 89/89/89
f 90/90/90 93/93/93 86/86/86
f 87/87/87 94/94/94 90/90/90
f 3/3/3 94/94/94 87/87/87
f 88/88/88 95/95/95 91/91/91
f 92/92/92 95/95/95 88/88/88
f 89/89/89 96/96/96 92/92/92
f 93/93/93 96/96/96 89/89/89
f 90/90/90 97/97/97 93/93/93
f 94/94/94 97/97/97 90/90/90
f 3/3/3 98/98/98 94/94/94
f 94/94/94 98/98/98 97/97/97
f 97/97/97 99/99/99 93/93/93
f 93/93/93 99/99/99 96/96/96
f 96/96/96 100/100/100 92/92/92
f 92/92/92 100/100/100 95/95/95
f 95/95/95 101/101/101 91/91/91
f 91/91/91 101/101/101 61/61/61
f 3/3/3 102/102/102 98/98/98
f 3/3/3 21/21/21 102/102/102
f 98/98/98 103/103/103 97/97/97
f 98/98/98 102/102/102 103/103/103
f 97/97/97 103/103/103 99/99/99
f 102/102/102 21/21/21 104/104/104
f 102/102/102 104/104/104 103/103/103
f 21/21/21 24/24/24 104/104/104
f 99/99/99 105/105/105 96/96/96
f 96/96/96 105/105/105 100/100/100
f 103/103/103 106/106/106 99/99/99
f 103/103/103 104/104/104 106/106/106
f 99/99/99 106/106/106 105/105/105
f 104/104/104 24/24/24 107/107/107
f 104/104/104 107/107/107 106/106/106
f 24/24/24 27/27/27 107/107/107
f 107/107/107 27/27/27 77/77/77
f 106/106/106 107/107/107 108/108/108
f 106/106/106 108/108/108 105/105/105
f 107/107/107 77/77/77 108/108/108
f 105/105/105 109/109/109 100/100/100
f 105/105/105 108/108/108 109/109/109
f 108/108/108 77/77/77 110/110/110
f 108/108/108 110/110/110 109/109/109
f 77/77/77 74/74/74 110/110/110
f 110/110/110 74/74/74 75/75/75
f 100/100/100 109/109/109 111/111/111
f 100/100/100 111/111/111 95/95/95
f 95/95/95 111/111/111 101/101/101
f 109/109/109 110/110/110 112/112/112
f 110/110/110 75/75/75 112/112/112
f 109/109/109 112/112/112 111/111/111
f 111/111/111 113/113/113 101/101/101
f 111/111/111 112/112/112 113/113/113
f 101/101/101 113/113/113 61/61/61
f 112/112/112 75/75/75 114/114/114
f 112/112/112 114/114/114 113/113/113
f 113/113/113 114/114/114 61/61/61
f 75/75/75 69/69/69 114/114/114
f 114/114/114 69/69/69 61/61/61
