g plant_Tomato
v -0.7910758 2.298885 -0.1510451
v -1.51331 1.761873 -0.3942275
v -0.7790653 2.092229 -0.1467761
v -0.07805829 2.127302 -0.1780863
v 0.08235855 2.23601 -0.2397285
v -0.04870732 2.157186 0.09192032
v -0.1300698 2.958319 -0.1494032
v -0.2723363 3.511294 0.102025
v -0.3534021 3.67155 -0.06378158
v 0.1425735 2.98237 -0.2372464
v 0.2279218 2.703327 -0.3358096
v 0.2415798 2.358244 0.1842015
v -0.09515862 1.711286 0.1840878
v 0.2005501 2.96948 0.06657811
v -0.8472616 2.302092 0.04571831
v -0.8236498 2.104516 0.04935656
v -1.51331 1.761873 -0.3942275
v -0.7790653 2.092229 -0.1467761
v -0.1928777 1.81278 -0.1833777
v -0.7910758 2.298885 -0.1510451
v -0.8472616 2.302092 0.04571831
v -0.07805829 2.127302 -0.1780863
v -0.04870732 2.157186 0.09192032
v -0.03176364 1.529947 -0.2066082
v 0.3787391 1.482667 0.2066082
v 0.3612247 2.634852 -0.1337839
v -0.2483582 0.02860445 0.25
v 0.2483582 -0.02860445 0.25
v -0.2483582 0.02860445 -0.25
v 0.2483582 -0.02860445 -0.25
v 0.3787391 1.482667 -0.2066082
v 0.6919501 2.860877 -0.5810314
v 0.6187856 2.85865 -0.6402665
v 0.8845292 2.910504 -1.058074
v 0.6099064 2.951864 -0.6306285
v 0.8845292 2.910504 -1.058074
v 0.6883667 2.953549 -0.5799698
v -0.09547444 3.608965 0.07683283
v -0.1724689 3.694642 -0.1087336
v 0.4716443 4.008729 0.9913627
v -0.09737695 3.849987 0.06422433
v -0.2314988 3.827641 0.1785016
v -0.1872959 5.02686 0.1600001
v -0.1289155 5.040047 0.12272
v -0.4293711 5.595072 0.1117976
v -0.2262684 5.025114 0.1010097
v -0.166929 5.034352 0.06357048
v -0.4293711 5.595072 0.1117976
v 0.6919501 2.860877 -0.5810314
v 0.3612247 2.634852 -0.1337839
v 0.6883667 2.953549 -0.5799698
v 0.8845292 2.910504 -1.058074
v -0.5680131 1.907092 -0.5250962
v -0.4938011 2.092653 -0.253178
v -0.785061 2.256037 -0.1544357
v -0.7438732 1.773803 -0.7219312
v -0.9207679 1.91669 -0.5892374
v -1.097457 2.133994 -0.3167222
v 0.8290194 3.707502 0.9342604
v 0.6057624 3.934873 1.045338
v 0.3460259 3.949308 0.8138103
v 0.9281969 3.485539 0.765936
v 0.7016465 3.540441 0.6435562
v 0.3445541 3.675842 0.5607558
v 0.4581786 2.681545 -1.063909
v 0.7359683 2.809376 -0.9211799
v 0.643485 2.946081 -0.6145282
v 0.1776701 2.588587 -1.074432
v 0.1819962 2.699721 -0.8357974
v 0.3013838 2.855573 -0.4979199
v -0.4416124 3.550052 0.595393
v -0.3536796 3.707057 0.3099164
v -0.045361 3.859588 0.3642361
v -0.4010758 3.437433 0.8657826
v -0.173698 3.566123 0.8333126
v 0.1301413 3.754656 0.6757014
vt 0.155113 0.466869
vt 0.155113 0.4668691
vt 0.155113 0.466869
vt 0.155113 0.466869
vt 0.155113 0.466869
vt 0.1551131 0.4668691
vt 0.155113 0.466869
vt 0.155113 0.466869
vt 0.155113 0.466869
vt 0.155113 0.4668691
vt 0.155113 0.466869
vt 0.155113 0.466869
vt 0.155113 0.466869
vt 0.155113 0.466869
vt 0.155113 0.4668691
vt 0.155113 0.4668691
vt 0.155113 0.466869
vt 0.155113 0.466869
vt 0.155113 0.466869
vt 0.155113 0.466869
vt 0.155113 0.4668691
vt 0.155113 0.466869
vt 0.1551131 0.4668691
vt 0.155113 0.466869
vt 0.155113 0.466869
vt 0.155113 0.4668691
vt 0.155113 0.466869
vt 0.155113 0.466869
vt 0.155113 0.466869
vt 0.155113 0.466869
vt 0.155113 0.466869
vt 0.1551131 0.4668691
vt 0.155113 0.466869
vt 0.155113 0.466869
vt 0.155113 0.466869
vt 0.155113 0.4668691
vt 0.155113 0.466869
vt 0.155113 0.466869
vt 0.155113 0.466869
vt 0.155113 0.466869
vt 0.155113 0.466869
vt 0.155113 0.466869
vt 0.155113 0.466869
vt 0.155113 0.466869
vt 0.155113 0.466869
vt 0.155113 0.466869
vt 0.155113 0.466869
vt 0.155113 0.466869
vt 0.1551131 0.4668691
vt 0.155113 0.4668691
vt 0.155113 0.466869
vt 0.155113 0.466869
vt 0.217613 0.466869
vt 0.217613 0.466869
vt 0.217613 0.466869
vt 0.217613 0.466869
vt 0.217613 0.466869
vt 0.217613 0.466869
vt 0.217613 0.466869
vt 0.217613 0.466869
vt 0.217613 0.466869
vt 0.217613 0.466869
vt 0.217613 0.466869
vt 0.217613 0.466869
vt 0.217613 0.466869
vt 0.217613 0.466869
vt 0.217613 0.466869
vt 0.217613 0.466869
vt 0.217613 0.466869
vt 0.217613 0.466869
vt 0.217613 0.466869
vt 0.217613 0.466869
vt 0.217613 0.466869
vt 0.217613 0.466869
vt 0.217613 0.466869
vt 0.217613 0.466869
vn -0.04498938 0.7932133 -0.6072797
vn -0.7882435 -0.4831507 -0.3811005
vn 0.06804258 -0.6509139 -0.756096
vn -0.340016 0.6327887 -0.6956778
vn -0.3507136 0.06007269 -0.9345541
vn -0.4704754 0.449605 0.7592813
vn -0.7295718 -0.07616718 -0.6796495
vn -0.6839824 -0.2969101 0.6663427
vn -0.9215204 0.000655453 -0.3883294
vn -0.02811353 0.6365634 -0.7707118
vn -0.179601 -0.3565826 -0.9168383
vn 0.5308122 0.1072079 0.8406812
vn -0.540901 -0.1729677 0.8231089
vn 0.5733305 0.3694555 0.7312966
vn -0.3168585 0.7487839 0.5821711
vn -0.2877827 -0.4863368 0.8250198
vn -0.7882435 -0.4831507 -0.3811005
vn 0.06804258 -0.6509139 -0.756096
vn -0.4906672 -0.4461744 -0.7484478
vn -0.04498938 0.7932133 -0.6072797
vn -0.3168585 0.7487839 0.5821711
vn -0.340016 0.6327887 -0.6956778
vn -0.4704754 0.449605 0.7592813
vn -0.5817652 -0.05061983 -0.8117802
vn 0.6909267 0.01319255 0.7228045
vn 0.9730261 -0.2267778 0.04233124
vn -0.7226948 0.1088628 0.6825402
vn 0.7010019 -0.03607956 0.7122462
vn -0.6665369 0.09643634 -0.7392081
vn 0.7065153 -0.0406668 -0.7065284
vn 0.7676046 0.007770367 -0.6408764
vn 0.7483072 -0.6143186 0.2502976
vn -0.4258372 -0.6738469 -0.6038155
vn 0.4601198 0.009177126 -0.8878094
vn -0.4528972 0.756613 -0.4716153
vn 0.4601198 0.009177126 -0.8878094
vn 0.6450824 0.6877072 0.3330578
vn 0.9836533 -0.175149 0.04182013
vn 0.3517877 0.1745539 -0.919661
vn 0.5689391 0.2626221 0.7793189
vn 0.9414696 0.2710626 -0.2004
vn -0.6640826 0.2730911 0.6959996
vn -0.1166798 0.02276691 0.9929086
vn 0.9483412 0.2375323 0.2103032
vn -0.4073362 0.9132783 0.0001290551
vn -0.9496776 -0.1091496 -0.2935964
vn 0.3610983 0.1623541 -0.918286
vn -0.4073362 0.9132783 0.0001290551
vn 0.7483072 -0.6143186 0.2502976
vn 0.9730261 -0.2267778 0.04233124
vn 0.6450824 0.6877072 0.3330578
vn 0.4601198 0.009177126 -0.8878094
vn 0.1592035 0.7635596 -0.6258042
vn 0.2330461 0.7724687 -0.5907468
vn 0.1208914 0.7768417 -0.6179824
vn 0.1362684 0.7597805 -0.6357393
vn 0.1060511 0.7674695 -0.6322529
vn 0.01386386 0.786146 -0.6178853
vn 0.4777305 0.6721416 -0.5656848
vn 0.4842845 0.7190332 -0.4984572
vn 0.4493294 0.6663099 -0.5950918
vn 0.4750645 0.6568007 -0.5855992
vn 0.455404 0.6494738 -0.6089261
vn 0.3930984 0.6233668 -0.6759344
vn -0.2512714 0.875801 -0.4121108
vn -0.1757619 0.8783319 -0.4445681
vn -0.2684764 0.8867838 -0.3762112
vn -0.2741613 0.8738315 -0.4015646
vn -0.2901341 0.8803048 -0.3753474
vn -0.3367803 0.8946191 -0.293659
vn -0.4206185 0.8231194 0.3815163
vn -0.4648775 0.828422 0.3124194
vn -0.3831837 0.8355407 0.3937539
vn -0.4064296 0.8203688 0.4022562
vn -0.3784467 0.8276654 0.4144249
vn -0.2913898 0.8447912 0.4487984
g plant_Tomato_0
f 3/3/3 2/2/2 1/1/1
f 6/6/6 5/5/5 4/4/4
f 7/7/7 5/5/5 6/6/6
f 8/8/8 7/7/7 6/6/6
f 7/7/7 8/8/8 9/9/9
f 7/7/7 9/9/9 10/10/10
f 7/7/7 11/11/11 5/5/5
f 10/10/10 11/11/11 7/7/7
f 8/8/8 6/6/6 12/12/12
f 13/13/13 12/12/12 6/6/6
f 14/14/14 8/8/8 12/12/12
f 6/6/6 15/15/15 13/13/13
f 15/15/15 16/16/16 13/13/13
f 17/17/17 16/16/16 15/15/15
f 16/16/16 17/17/17 18/18/18
f 19/19/19 16/16/16 18/18/18
f 13/13/13 16/16/16 19/19/19
f 18/18/18 20/20/20 19/19/19
f 17/17/17 21/21/21 20/20/20
f 22/22/22 20/20/20 21/21/21
f 20/20/20 22/22/22 19/19/19
f 21/21/21 23/23/23 22/22/22
f 22/22/22 5/5/5 19/19/19
f 19/19/19 24/24/24 13/13/13
f 19/19/19 5/5/5 24/24/24
f 25/25/25 12/12/12 13/13/13
f 12/12/12 26/26/26 14/14/14
f 12/12/12 25/25/25 26/26/26
f 13/13/13 24/24/24 27/27/27
f 25/25/25 13/13/13 27/27/27
f 28/28/28 25/25/25 27/27/27
f 24/24/24 29/29/29 27/27/27
f 25/25/25 28/28/28 30/30/30
f 31/31/31 30/30/30 29/29/29
f 24/24/24 31/31/31 29/29/29
f 31/31/31 25/25/25 30/30/30
f 31/31/31 24/24/24 5/5/5
f 25/25/25 31/31/31 26/26/26
f 26/26/26 31/31/31 5/5/5
f 26/26/26 5/5/5 11/11/11
f 32/32/32 26/26/26 11/11/11
f 33/33/33 32/32/32 11/11/11
f 34/34/34 32/32/32 33/33/33
f 33/33/33 11/11/11 10/10/10
f 35/35/35 33/33/33 10/10/10
f 33/33/33 35/35/35 36/36/36
f 37/37/37 36/36/36 35/35/35
f 37/37/37 35/35/35 14/14/14
f 35/35/35 10/10/10 14/14/14
f 38/38/38 14/14/14 10/10/10
f 39/39/39 38/38/38 10/10/10
f 9/9/9 39/39/39 10/10/10
f 14/14/14 38/38/38 8/8/8
f 8/8/8 38/38/38 40/40/40
f 41/41/41 40/40/40 38/38/38
f 38/38/38 39/39/39 41/41/41
f 40/40/40 42/42/42 8/8/8
f 8/8/8 42/42/42 9/9/9
f 40/40/40 41/41/41 42/42/42
f 43/43/43 42/42/42 41/41/41
f 42/42/42 43/43/43 9/9/9
f 44/44/44 41/41/41 39/39/39
f 44/44/44 43/43/43 41/41/41
f 44/44/44 45/45/45 43/43/43
f 46/46/46 43/43/43 45/45/45
f 43/43/43 46/46/46 9/9/9
f 47/47/47 39/39/39 9/9/9
f 47/47/47 44/44/44 39/39/39
f 46/46/46 47/47/47 9/9/9
f 44/44/44 47/47/47 48/48/48
f 48/48/48 47/47/47 46/46/46
f 50/50/50 49/49/49 14/14/14
f 49/49/49 51/51/51 14/14/14
f 51/51/51 49/49/49 52/52/52
f 55/55/55 54/54/54 53/53/53
f 55/55/55 53/53/53 56/56/56
f 57/57/57 55/55/55 56/56/56
f 58/58/58 55/55/55 57/57/57
f 61/61/61 60/60/60 59/59/59
f 61/61/61 59/59/59 62/62/62
f 63/63/63 61/61/61 62/62/62
f 64/64/64 61/61/61 63/63/63
f 67/67/67 66/66/66 65/65/65
f 67/67/67 65/65/65 68/68/68
f 69/69/69 67/67/67 68/68/68
f 70/70/70 67/67/67 69/69/69
f 73/73/73 72/72/72 71/71/71
f 73/73/73 71/71/71 74/74/74
f 75/75/75 73/73/73 74/74/74
f 76/76/76 73/73/73 75/75/75
