g veg_Tomato
v 0.1158162 0.4590226 -0.1027887
v 0.1646694 0.463908 0.00794512
v 0.1760684 0.7684259 -0.03602272
v 0.06370616 0.4834492 0.05842674
v 0.1597841 0.7895957 -0.08324742
v 0.01159614 0.4867061 -0.05556399
v 0.1125593 0.7928525 -0.06207776
v 0.1304722 0.7749398 -0.0132246
v 0.1695547 0.8954442 0.05516982
v 0.08650434 0.5046189 0.001431346
v -0.09262395 0.5127611 -0.1207016
v -0.1170505 0.4850776 -0.3096004
v 0.04742181 0.4899629 -0.2184079
v -0.3124632 0.5778986 -0.05882084
v 0.1646694 0.4785639 -0.3763664
v -0.09262395 0.5111327 0.05679828
v 0.2037519 0.5046189 -0.1809537
v -0.1219358 0.4769355 0.2603531
v 0.4219627 0.5339308 -0.2118941
v 0.05067867 0.4948483 0.1756743
v 0.2770317 0.5143895 -0.02299523
v 0.1842107 0.5013621 0.3694586
v 0.4056783 0.5078758 0.1349633
v 0.2135226 0.5046189 0.1365918
v 0.03765118 -0.3568251 0.6006968
v -0.3352613 -0.3144857 0.4948483
v -0.4769355 0.1414771 0.6283803
v -0.5697565 -0.374738 0.1414771
v 0.2428344 0.0502845 0.7293434
v 0.04905021 -0.6043478 -0.03276587
v 0.5115268 -0.3877655 0.3173485
v -0.4345961 -0.4577883 -0.3551967
v -0.7781966 0.2049862 -0.014853
v 0.2428344 -0.4317333 -0.5343249
v -0.5225317 -0.1255869 -0.6173753
v -0.3336328 0.3743439 0.4003989
v -0.5551006 0.3776007 -0.3942792
v 0.1125593 0.4117979 0.6202381
v 0.0897612 0.5111327 -0.02136678
v -0.2342981 0.02585793 -0.7704486
v 0.5375818 0.4003989 0.4801923
v 0.6890267 -0.03113741 0.3466604
v 0.1646694 0.3189769 -0.5945772
v 0.7215954 0.2196422 -0.04090804
v 0.6255175 -0.2786601 -0.1923528
v 0.3698527 -0.06696308 -0.638545
v 0.5994625 0.04865611 -0.3910224
vt 0.154359 0.4714573
vt 0.154359 0.4714573
vt 0.154359 0.4714573
vt 0.154359 0.4714573
vt 0.154359 0.4714573
vt 0.154359 0.4714573
vt 0.154359 0.4714573
vt 0.154359 0.4714573
vt 0.154359 0.4714573
vt 0.154359 0.4714573
vt 0.154359 0.4714573
vt 0.154359 0.4714573
vt 0.154359 0.4714573
vt 0.154359 0.4714573
vt 0.154359 0.4714573
vt 0.154359 0.4714573
vt 0.154359 0.4714573
vt 0.154359 0.4714573
vt 0.154359 0.4714573
vt 0.154359 0.4714573
vt 0.154359 0.4714573
vt 0.154359 0.4714573
vt 0.154359 0.4714573
vt 0.154359 0.4714573
vt 0.2166946 0.8454707
vt 0.2166946 0.8454707
vt 0.2166946 0.8454707
vt 0.2166946 0.8454707
vt 0.2166946 0.8454707
vt 0.2166946 0.8454707
vt 0.2166946 0.8454707
vt 0.2166946 0.8454707
vt 0.2166946 0.8454707
vt 0.2166946 0.8454707
vt 0.2166946 0.8454707
vt 0.2166946 0.8454707
vt 0.2166946 0.8454707
vt 0.2166946 0.8454707
vt 0.2166946 0.8454707
vt 0.2166946 0.8454707
vt 0.2166946 0.8454707
vt 0.2166946 0.8454707
vt 0.2166946 0.8454707
vt 0.2166946 0.8454707
vt 0.2166946 0.8454707
vt 0.2166946 0.8454707
vt 0.2166946 0.8454707
vn 0.3636076 0.01690364 -0.9313988
vn 0.9343745 0.01690364 0.3558913
vn 0.9660837 -0.04651493 0.2540052
vn -0.2705778 0.302287 0.9140078
vn 0.3953169 0.3657055 -0.8426055
vn -0.8730538 0.2705778 -0.4056658
vn -0.777926 0.4925426 -0.3901704
vn -0.4291241 0.01690364 0.9030874
vn 0.173352 0.7462168 0.642736
vn 0.01480567 0.9998904 0
vn 0.173352 0.9681816 -0.1804812
vn 0.0779944 0.9969537 0
vn 0.01480567 0.9998904 0
vn 0.173352 0.9681816 -0.1804812
vn -0.08007297 0.9967891 0
vn 0.1099335 0.9681816 0.2248088
vn -0.1437407 0.9681816 -0.2048488
vn 0.01480567 0.9998904 0
vn -0.08007297 0.9967891 0
vn -0.08007297 0.9967891 0
vn -0.04856078 0.9988202 0
vn -0.04856078 0.9988202 0
vn -0.01690307 0.9998572 0
vn -0.01690307 0.9998572 0
vn 0.01480567 -0.648991 0.760652
vn -0.4291241 -0.648991 0.6282223
vn -0.6193796 0.17545 0.765236
vn -0.7145075 -0.648991 0.2613231
vn 0.2684798 -0.07822418 0.9601039
vn 0.04651493 -0.997793 0.04738719
vn 0.648991 -0.6807003 0.3397908
vn -0.5242518 -0.7441188 -0.4140618
vn -0.9630964 0.2691566 0
vn 0.3318983 -0.6807003 -0.6530625
vn -0.651089 -0.2367706 -0.7211261
vn -0.3657055 0.8730538 0.322547
vn -0.6193796 0.6827981 -0.3874991
vn -0.01690364 0.7145075 0.6994236
vn 0.07822418 0.9681816 -0.2377086
vn -0.17545 0.1120313 -0.9780932
vn 0.6172818 0.6193796 0.4851103
vn 0.9026651 -0.1416427 0.4063655
vn 0.2684798 0.651089 -0.7099308
vn 0.9026651 0.4291241 -0.03237465
vn 0.8075374 -0.522154 -0.2742966
vn 0.522154 -0.04651493 -0.8515818
vn 0.8075374 0.2388685 -0.5392821
g veg_Tomato_0
f 3/3/3 2/2/2 1/1/1
f 2/2/2 3/3/3 4/4/4
f 5/5/5 3/3/3 1/1/1
f 5/5/5 1/1/1 6/6/6
f 7/7/7 6/6/6 4/4/4
f 7/7/7 5/5/5 6/6/6
f 3/3/3 8/8/8 4/4/4
f 8/8/8 7/7/7 4/4/4
f 5/5/5 9/9/9 3/3/3
f 9/9/9 5/5/5 7/7/7
f 9/9/9 7/7/7 8/8/8
f 8/8/8 3/3/3 9/9/9
f 12/12/12 11/11/11 10/10/10
f 13/13/13 12/12/12 10/10/10
f 11/11/11 14/14/14 10/10/10
f 15/15/15 13/13/13 10/10/10
f 14/14/14 16/16/16 10/10/10
f 17/17/17 15/15/15 10/10/10
f 16/16/16 18/18/18 10/10/10
f 19/19/19 17/17/17 10/10/10
f 18/18/18 20/20/20 10/10/10
f 21/21/21 19/19/19 10/10/10
f 20/20/20 22/22/22 10/10/10
f 23/23/23 21/21/21 10/10/10
f 22/22/22 24/24/24 10/10/10
f 24/24/24 23/23/23 10/10/10
f 27/27/27 26/26/26 25/25/25
f 25/25/25 26/26/26 28/28/28
f 27/27/27 28/28/28 26/26/26
f 25/25/25 29/29/29 27/27/27
f 30/30/30 25/25/25 28/28/28
f 29/29/29 25/25/25 31/31/31
f 25/25/25 30/30/30 31/31/31
f 32/32/32 30/30/30 28/28/28
f 33/33/33 28/28/28 27/27/27
f 28/28/28 33/33/33 32/32/32
f 30/30/30 32/32/32 34/34/34
f 30/30/30 34/34/34 31/31/31
f 35/35/35 32/32/32 33/33/33
f 34/34/34 32/32/32 35/35/35
f 36/36/36 33/33/33 27/27/27
f 37/37/37 35/35/35 33/33/33
f 33/33/33 36/36/36 37/37/37
f 36/36/36 27/27/27 38/38/38
f 29/29/29 38/38/38 27/27/27
f 39/39/39 36/36/36 38/38/38
f 37/37/37 36/36/36 39/39/39
f 37/37/37 40/40/40 35/35/35
f 40/40/40 34/34/34 35/35/35
f 38/38/38 29/29/29 41/41/41
f 39/39/39 38/38/38 41/41/41
f 29/29/29 31/31/31 42/42/42
f 41/41/41 29/29/29 42/42/42
f 37/37/37 39/39/39 43/43/43
f 40/40/40 37/37/37 43/43/43
f 39/39/39 41/41/41 44/44/44
f 41/41/41 42/42/42 44/44/44
f 43/43/43 39/39/39 44/44/44
f 31/31/31 45/45/45 42/42/42
f 34/34/34 45/45/45 31/31/31
f 45/45/45 44/44/44 42/42/42
f 46/46/46 34/34/34 40/40/40
f 43/43/43 46/46/46 40/40/40
f 34/34/34 46/46/46 45/45/45
f 47/47/47 43/43/43 44/44/44
f 45/45/45 47/47/47 44/44/44
f 46/46/46 47/47/47 45/45/45
f 43/43/43 47/47/47 46/46/46
