g hat_Birthday
v 0.1147553 6.063688 0.5655689
v 0.007832989 6.280049 0.6020442
v 0.1150235 6.074938 0.5244917
v 0.02845368 6.041177 0.6477633
v -0.01413596 6.041249 0.6475049
v -0.09935737 6.064044 0.5642682
v -0.09908915 6.075294 0.5231911
v -0.01278757 6.097804 0.4409963
v 0.02980214 6.097733 0.4412551
v 0.007832989 6.280049 0.6020442
v 0.09820917 6.053321 0.6034198
v 0.067904 6.045418 0.6322832
v -0.05338112 6.045619 0.6315463
v -0.0833068 6.053625 0.6023176
v -0.08254299 6.085659 0.4853396
v -0.05223788 6.093565 0.4564769
v 0.06904722 6.093363 0.4572136
v 0.09897298 6.085358 0.4864424
v -0.1865392 4.130664 1.011846
v 0.2101346 4.611517 0.9090487
v 0.1967739 4.130377 1.012888
v -0.087235 4.605883 0.9296213
v 0.2708956 5.100947 0.7749369
v 0.06787269 5.083971 0.8369231
v 0.273301 5.597729 0.6139753
v 0.17972 5.574751 0.697881
v 0.1150235 6.074938 0.5244917
v 0.1147553 6.063688 0.5655689
v 0.1967739 4.130377 1.012888
v 0.4767058 4.646781 0.7802855
v 0.5513227 4.168859 0.872373
v 0.2101346 4.611517 0.9090487
v 0.4338696 5.137152 0.6427345
v 0.2708956 5.100947 0.7749369
v 0.3264668 5.628418 0.5019168
v 0.273301 5.597729 0.6139753
v 0.09897298 6.085358 0.4864424
v 0.1150235 6.074938 0.5244917
v 0.007832989 6.280049 0.6020442
v 0.067904 6.045418 0.6322832
v 0.02845368 6.041177 0.6477633
v -0.1839008 5.578254 0.6850906
v -0.06771588 5.56421 0.7363683
v -0.4703649 5.157773 0.5674416
v -0.3332947 5.114725 0.7246278
v -0.7289908 4.752705 0.3935097
v -0.595486 4.682293 0.6506134
v -0.9562295 4.335116 0.2652944
v -0.8105401 4.241467 0.6072513
v -0.0833068 6.053625 0.6023176
v -0.09935737 6.064044 0.5642682
v -0.2576348 5.699018 0.2441264
v -0.3108008 5.668329 0.356185
v -0.2552293 5.353568 -0.1474927
v -0.4182033 5.317362 -0.01529051
v -0.1944682 5.000763 -0.5122623
v -0.4610393 4.965499 -0.383499
v -0.1811075 4.639668 -0.8467599
v -0.535656 4.601186 -0.7062446
v -0.05223788 6.093565 0.4564769
v -0.01278757 6.097804 0.4409963
v 0.1995671 5.718494 0.1730113
v 0.08338217 5.732537 0.1217335
v 0.4860312 5.296742 0.06000223
v 0.348961 5.33979 -0.09718374
v 0.7446572 4.859576 0.00327646
v 0.6111524 4.929987 -0.2538272
v 0.9718962 4.43493 -0.09916607
v 0.8262068 4.52858 -0.4411227
v 0.5513227 4.168859 0.872373
v 0.6718952 4.706306 0.5629341
v 0.82313 4.240251 0.6116928
v 0.4767058 4.646781 0.7802855
v 0.5319835 5.187076 0.4604432
v 0.4338696 5.137152 0.6427345
v 0.3311236 5.662146 0.3787649
v 0.3264668 5.628418 0.5019168
v 0.06904722 6.093363 0.4572136
v 0.09897298 6.085358 0.4864424
v 0.82313 4.240251 0.6116928
v 0.7659872 4.781029 0.2900849
v 0.9708157 4.333683 0.2705335
v 0.6718952 4.706306 0.5629341
v 0.5503002 5.243116 0.2558149
v 0.5319835 5.187076 0.4604432
v 0.2865623 5.693776 0.2632686
v 0.3311236 5.662146 0.3787649
v 0.02980214 6.097733 0.4412551
v 0.06904722 6.093363 0.4572136
v 0.007832989 6.280049 0.6020442
v 0.1147553 6.063688 0.5655689
v 0.09820917 6.053321 0.6034198
v 0.05997076 5.562981 0.7408598
v 0.17972 5.574751 0.697881
v -0.1442907 5.088809 0.8192572
v 0.06787269 5.083971 0.8369231
v -0.3701314 4.630736 0.8388709
v -0.087235 4.605883 0.9296213
v -0.5402609 4.169672 0.8694053
v -0.1865392 4.130664 1.011846
v -0.01413596 6.041249 0.6475049
v -0.05338112 6.045619 0.6315463
v -0.3154575 5.634603 0.4793369
v -0.270896 5.602972 0.5948332
v -0.5163172 5.267439 0.1670008
v -0.5346339 5.211398 0.3716292
v -0.6562288 4.905975 -0.166148
v -0.7503209 4.831252 0.1067013
v -0.8074632 4.529796 -0.4455643
v -0.955149 4.436364 -0.1044051
v -0.09908915 6.075294 0.5231911
v -0.08254299 6.085659 0.4853396
v -0.04430455 5.733767 0.1172421
v -0.1640538 5.721997 0.1602208
v 0.159957 5.365705 -0.191813
v -0.05220629 5.370543 -0.209479
v 0.3857979 4.981544 -0.4420845
v 0.1029014 5.006398 -0.5328347
v 0.5559275 4.600374 -0.7032768
v 0.2022057 4.639383 -0.8457177
v 0.9708157 4.333683 0.2705335
v 0.7446572 4.859576 0.00327646
v 0.9718962 4.43493 -0.09916607
v 0.7659872 4.781029 0.2900849
v 0.4860312 5.296742 0.06000223
v 0.5503002 5.243116 0.2558149
v 0.1995671 5.718494 0.1730113
v 0.2865623 5.693776 0.2632686
v -0.01278757 6.097804 0.4409963
v 0.02980214 6.097733 0.4412551
v 0.8262068 4.52858 -0.4411227
v 0.3857979 4.981544 -0.4420845
v 0.5559275 4.600374 -0.7032768
v 0.6111524 4.929987 -0.2538272
v 0.159957 5.365705 -0.191813
v 0.348961 5.33979 -0.09718374
v -0.04430455 5.733767 0.1172421
v 0.08338217 5.732537 0.1217335
v -0.08254299 6.085659 0.4853396
v -0.05223788 6.093565 0.4564769
v 0.2022057 4.639383 -0.8457177
v -0.1944682 5.000763 -0.5122623
v -0.1811075 4.639668 -0.8467599
v 0.1029014 5.006398 -0.5328347
v -0.2552293 5.353568 -0.1474927
v -0.05220629 5.370543 -0.209479
v -0.2576348 5.699018 0.2441264
v -0.1640538 5.721997 0.1602208
v -0.09935737 6.064044 0.5642682
v -0.09908915 6.075294 0.5231911
v -0.535656 4.601186 -0.7062446
v -0.6562288 4.905975 -0.166148
v -0.8074632 4.529796 -0.4455643
v -0.4610393 4.965499 -0.383499
v -0.5163172 5.267439 0.1670008
v -0.4182033 5.317362 -0.01529051
v -0.3154575 5.634603 0.4793369
v -0.3108008 5.668329 0.356185
v -0.05338112 6.045619 0.6315463
v -0.0833068 6.053625 0.6023176
v -0.955149 4.436364 -0.1044051
v -0.7289908 4.752705 0.3935097
v -0.9562295 4.335116 0.2652944
v -0.7503209 4.831252 0.1067013
v -0.4703649 5.157773 0.5674416
v -0.5346339 5.211398 0.3716292
v -0.1839008 5.578254 0.6850906
v -0.270896 5.602972 0.5948332
v 0.02845368 6.041177 0.6477633
v -0.01413596 6.041249 0.6475049
v -0.8105401 4.241467 0.6072513
v -0.3701314 4.630736 0.8388709
v -0.5402609 4.169672 0.8694053
v -0.595486 4.682293 0.6506134
v -0.1442907 5.088809 0.8192572
v -0.3332947 5.114725 0.7246278
v 0.05997076 5.562981 0.7408598
v -0.06771588 5.56421 0.7363683
v 0.09820917 6.053321 0.6034198
v 0.067904 6.045418 0.6322832
v -0.2622793 6.24968 0.8837304
v -0.3438848 6.248206 0.7708952
v 0.2779453 6.310419 0.320358
v 0.3595508 6.311892 0.4331931
v -0.3683033 6.362255 0.5313783
v -0.3089532 6.419301 0.4190541
v 0.3839693 6.197843 0.67271
v 0.3246192 6.140797 0.7850341
v 0.1501459 6.31758 0.964768
v 0.01599794 6.293282 0.9931814
v -0.1344799 6.242518 0.2393204
v -0.0003319336 6.266817 0.210907
v -0.1387483 6.442012 0.92687
v -0.253865 6.434383 0.8488744
v 0.1544144 6.118086 0.2772182
v 0.2695311 6.125715 0.3552138
v 0.2388847 6.56868 0.4734458
v 0.2986763 6.54198 0.5963503
v -0.2232187 5.991418 0.7306424
v -0.2830101 6.018118 0.607738
vt 0.2194594 0.6564152
vt 0.2194594 0.6564152
vt 0.2194594 0.6564152
vt 0.2194594 0.6564152
vt 0.2194594 0.6564152
vt 0.2194594 0.6564152
vt 0.2194594 0.6564152
vt 0.2194594 0.6564152
vt 0.2194594 0.6564152
vt 0.2165564 0.8422088
vt 0.2165564 0.8422088
vt 0.2165564 0.8422088
vt 0.2165564 0.8422088
vt 0.2165564 0.8422088
vt 0.2165564 0.8422088
vt 0.2165564 0.8422088
vt 0.2165564 0.8422088
vt 0.2165564 0.8422088
vt 0.2209109 0.6593183
vt 0.2209109 0.6593183
vt 0.2209109 0.6593183
vt 0.2209109 0.6593183
vt 0.2209109 0.6593183
vt 0.2209109 0.6593183
vt 0.2209109 0.6593183
vt 0.2209109 0.6593183
vt 0.2209109 0.6593183
vt 0.2209109 0.6593183
vt 0.1570444 0.4720731
vt 0.1570444 0.4720731
vt 0.1570444 0.4720731
vt 0.1570444 0.4720731
vt 0.1570444 0.4720731
vt 0.1570444 0.4720731
vt 0.1570444 0.4720731
vt 0.1570444 0.4720731
vt 0.1570444 0.4720731
vt 0.1570444 0.4720731
vt 0.1570444 0.4720731
vt 0.1570444 0.4720731
vt 0.1570444 0.4720731
vt 0.1570444 0.4720731
vt 0.1570444 0.4720731
vt 0.1570444 0.4720731
vt 0.1570444 0.4720731
vt 0.1570444 0.4720731
vt 0.1570444 0.4720731
vt 0.1570444 0.4720731
vt 0.1570444 0.4720731
vt 0.1570444 0.4720731
vt 0.1570444 0.4720731
vt 0.1570444 0.4720731
vt 0.1570444 0.4720731
vt 0.1570444 0.4720731
vt 0.1570444 0.4720731
vt 0.1570444 0.4720731
vt 0.1570444 0.4720731
vt 0.1570444 0.4720731
vt 0.1570444 0.4720731
vt 0.1570444 0.4720731
vt 0.1570444 0.4720731
vt 0.1570444 0.4720731
vt 0.1570444 0.4720731
vt 0.1570444 0.4720731
vt 0.1570444 0.4720731
vt 0.1570444 0.4720731
vt 0.1570444 0.4720731
vt 0.1570444 0.4720731
vt 0.1570444 0.4720731
vt 0.2180079 0.8422089
vt 0.2180079 0.8422089
vt 0.2180079 0.8422089
vt 0.2180079 0.8422089
vt 0.2180079 0.8422089
vt 0.2180079 0.8422089
vt 0.2180079 0.8422089
vt 0.2180079 0.8422089
vt 0.2180079 0.8422089
vt 0.2180079 0.8422089
vt 0.0917263 0.9670389
vt 0.0917263 0.9670389
vt 0.0917263 0.9670389
vt 0.0917263 0.9670389
vt 0.0917263 0.9670389
vt 0.0917263 0.9670389
vt 0.0917263 0.9670389
vt 0.0917263 0.9670389
vt 0.0917263 0.9670389
vt 0.0917263 0.9670389
vt 0.0917263 0.9670389
vt 0.0917263 0.9670389
vt 0.0917263 0.9670389
vt 0.0917263 0.9670389
vt 0.0917263 0.9670389
vt 0.0917263 0.9670389
vt 0.0917263 0.9670389
vt 0.0917263 0.9670389
vt 0.0917263 0.9670389
vt 0.0917263 0.9670389
vt 0.0917263 0.9670389
vt 0.0917263 0.9670389
vt 0.0917263 0.9670389
vt 0.0917263 0.9670389
vt 0.0917263 0.9670389
vt 0.0917263 0.9670389
vt 0.0917263 0.9670389
vt 0.0917263 0.9670389
vt 0.0917263 0.9670389
vt 0.0917263 0.9670389
vt 0.0917263 0.9670389
vt 0.0917263 0.9670389
vt 0.0917263 0.9670389
vt 0.0917263 0.9670389
vt 0.0917263 0.9670389
vt 0.0917263 0.9670389
vt 0.0917263 0.9670389
vt 0.0917263 0.9670389
vt 0.0917263 0.9670389
vt 0.0917263 0.9670389
vt 0.0917263 0.9670389
vt 0.2209109 0.6593183
vt 0.2209109 0.6593183
vt 0.2209109 0.6593183
vt 0.2209109 0.6593183
vt 0.2209109 0.6593183
vt 0.2209109 0.6593183
vt 0.2209109 0.6593183
vt 0.2209109 0.6593183
vt 0.2209109 0.6593183
vt 0.2209109 0.6593183
vt 0.2180079 0.8422089
vt 0.2180079 0.8422089
vt 0.2180079 0.8422089
vt 0.2180079 0.8422089
vt 0.2180079 0.8422089
vt 0.2180079 0.8422089
vt 0.2180079 0.8422089
vt 0.2180079 0.8422089
vt 0.2180079 0.8422089
vt 0.2180079 0.8422089
vt 0.2209109 0.6593183
vt 0.2209109 0.6593183
vt 0.2209109 0.6593183
vt 0.2209109 0.6593183
vt 0.2209109 0.6593183
vt 0.2209109 0.6593183
vt 0.2209109 0.6593183
vt 0.2209109 0.6593183
vt 0.2209109 0.6593183
vt 0.2209109 0.6593183
vt 0.2180079 0.8422089
vt 0.2180079 0.8422089
vt 0.2180079 0.8422089
vt 0.2180079 0.8422089
vt 0.2180079 0.8422089
vt 0.2180079 0.8422089
vt 0.2180079 0.8422089
vt 0.2180079 0.8422089
vt 0.2180079 0.8422089
vt 0.2180079 0.8422089
vt 0.2209109 0.6593183
vt 0.2209109 0.6593183
vt 0.2209109 0.6593183
vt 0.2209109 0.6593183
vt 0.2209109 0.6593183
vt 0.2209109 0.6593183
vt 0.2209109 0.6593183
vt 0.2209109 0.6593183
vt 0.2209109 0.6593183
vt 0.2209109 0.6593183
vt 0.2180079 0.8422089
vt 0.2180079 0.8422089
vt 0.2180079 0.8422089
vt 0.2180079 0.8422089
vt 0.2180079 0.8422089
vt 0.2180079 0.8422089
vt 0.2180079 0.8422089
vt 0.2180079 0.8422089
vt 0.2180079 0.8422089
vt 0.2180079 0.8422089
vt 0.653185 0.4049048
vt 0.653185 0.4049048
vt 0.653185 0.4049048
vt 0.653185 0.4049048
vt 0.2165564 0.8422088
vt 0.2165564 0.8422088
vt 0.2165564 0.8422088
vt 0.2165564 0.8422088
vt 0.08854632 0.964183
vt 0.08854632 0.964183
vt 0.08854632 0.964183
vt 0.08854632 0.964183
vt 0.2207718 0.5925221
vt 0.2207718 0.5925221
vt 0.2207718 0.5925221
vt 0.2207718 0.5925221
vt 0.5352541 0.4692308
vt 0.5352541 0.4692308
vt 0.5352541 0.4692308
vt 0.5352541 0.4692308
vn 0.7751974 0.3460687 0.5284935
vn 0 0.9644849 0.2641381
vn 0.8762711 0.432839 0.2116584
vn -0.08982097 0.2251049 0.9701855
vn -0.4183057 0.2518013 0.8727064
vn -0.8762707 0.4802857 0.0384085
vn -0.7751977 0.5670539 -0.2784211
vn 0.08981486 0.6880181 -0.7201141
vn 0.4183137 0.6613206 -0.6226305
vn 0 0.9644849 0.2641381
vn 0.5561056 0.276122 0.7839025
vn 0.2523615 0.2336459 0.9390011
vn -0.6831273 0.3096725 0.6613924
vn -0.8439387 0.3899039 0.3684323
vn -0.5561055 0.6370018 -0.5338309
vn -0.252368 0.679477 -0.6889277
vn 0.6831269 0.6034504 -0.4113214
vn 0.8439389 0.5232192 -0.1183588
vn -0.1617661 0.1991966 0.9665157
vn 0.2517349 0.2062764 0.9455578
vn 0.1871468 0.2005298 0.9616464
vn -0.09557469 0.1980717 0.9755167
vn 0.4374197 0.2332654 0.8684765
vn 0.1071544 0.204653 0.9729518
vn 0.6969995 0.3093139 0.6469285
vn 0.4364333 0.2497631 0.8643751
vn 0.8762711 0.432839 0.2116584
vn 0.7751974 0.3460687 0.5284935
vn 0.1871468 0.2005298 0.9616464
vn 0.5607202 0.2489632 0.78969
vn 0.5075672 0.2370303 0.8283671
vn 0.2517349 0.2062764 0.9455578
vn 0.7010924 0.2930832 0.6500552
vn 0.4374197 0.2332654 0.8684765
vn 0.8514539 0.3906704 0.3498612
vn 0.6969995 0.3093139 0.6469285
vn 0.8439389 0.5232192 -0.1183588
vn 0.8762711 0.432839 0.2116584
vn 0 0.9644849 0.2641381
vn 0.2523615 0.2336459 0.9390011
vn -0.08982097 0.2251049 0.9701855
vn -0.5422515 0.2684391 0.7961807
vn -0.234246 0.2276422 0.9451496
vn -0.7760182 0.3227017 0.5419034
vn -0.5495543 0.2530558 0.7962115
vn -0.8574908 0.3662792 0.3613156
vn -0.6958836 0.2846647 0.659327
vn -0.874526 0.3820928 0.2986795
vn -0.736339 0.2974577 0.6077203
vn -0.8439387 0.3899039 0.3684323
vn -0.8762707 0.4802857 0.0384085
vn -0.696999 0.5957728 -0.399058
vn -0.8514536 0.5144167 -0.1019906
vn -0.4374201 0.6432167 -0.6284392
vn -0.7010923 0.5833991 -0.4100185
vn -0.2517352 0.6592681 -0.708516
vn -0.5607204 0.6165813 -0.5526482
vn -0.1871464 0.6625209 -0.7252876
vn -0.5075676 0.6260203 -0.5920082
vn -0.252368 0.679477 -0.6889277
vn 0.08981486 0.6880181 -0.7201141
vn 0.5422513 0.6366475 -0.5483096
vn 0.234243 0.6774449 -0.6972795
vn 0.7760184 0.55378 -0.3018661
vn 0.5495536 0.6234261 -0.5561752
vn 0.8574905 0.4992656 -0.1242736
vn 0.6958833 0.5808799 -0.4222854
vn 0.8745254 0.4809592 -0.06232
vn 0.7363384 0.565594 -0.3713613
vn 0.5075672 0.2370303 0.8283671
vn 0.7843409 0.3196334 0.5316427
vn 0.7507153 0.3031414 0.5869683
vn 0.5607202 0.2489632 0.78969
vn 0.8580301 0.3750001 0.3509406
vn 0.7010924 0.2930832 0.6500552
vn 0.8762825 0.4814463 0.01839803
vn 0.8514539 0.3906704 0.3498612
vn 0.6831269 0.6034504 -0.4113214
vn 0.8439389 0.5232192 -0.1183588
vn 0.7507153 0.3031414 0.5869683
vn 0.8885527 0.4075281 0.2107015
vn 0.8795737 0.3887981 0.2742006
vn 0.7843409 0.3196334 0.5316427
vn 0.8843406 0.4665446 0.01667008
vn 0.8580301 0.3750001 0.3509406
vn 0.7677051 0.5678219 -0.2969971
vn 0.8762825 0.4814463 0.01839803
vn 0.4183137 0.6613206 -0.6226305
vn 0.6831269 0.6034504 -0.4113214
vn 0 0.9644849 0.2641381
vn 0.7751974 0.3460687 0.5284935
vn 0.5561056 0.276122 0.7839025
vn 0.1094243 0.2210836 0.9690967
vn 0.4364333 0.2497631 0.8643751
vn -0.239425 0.2116025 0.9475759
vn 0.1071544 0.204653 0.9729518
vn -0.4283344 0.225598 0.8750058
vn -0.09557469 0.1980717 0.9755167
vn -0.4860514 0.233233 0.8422329
vn -0.1617661 0.1991966 0.9665157
vn -0.4183057 0.2518013 0.8727064
vn -0.6831273 0.3096725 0.6613924
vn -0.8762825 0.4236397 0.2294739
vn -0.7677045 0.3372645 0.5448692
vn -0.8580306 0.5014819 -0.1109032
vn -0.8843408 0.4099372 0.2233672
vn -0.784341 0.5459114 -0.2946011
vn -0.8885531 0.4580171 0.02634047
vn -0.7507157 0.5599098 -0.3506095
vn -0.8795745 0.4742537 -0.03784135
vn -0.7751977 0.5670539 -0.2784211
vn -0.5561055 0.6370018 -0.5338309
vn -0.1094245 0.6840026 -0.7212259
vn -0.4364327 0.6553236 -0.6165043
vn 0.2394253 0.6648792 -0.7075388
vn -0.1071539 0.671829 -0.7329146
vn 0.4283339 0.6399466 -0.6379644
vn 0.09557494 0.6674729 -0.7384751
vn 0.4860505 0.6298183 -0.6058745
vn 0.1617659 0.6638545 -0.7301568
vn 0.8795737 0.3887981 0.2742006
vn 0.8574905 0.4992656 -0.1242736
vn 0.8745254 0.4809592 -0.06232
vn 0.8885527 0.4075281 0.2107015
vn 0.7760184 0.55378 -0.3018661
vn 0.8843406 0.4665446 0.01667008
vn 0.5422513 0.6366475 -0.5483096
vn 0.7677051 0.5678219 -0.2969971
vn 0.08981486 0.6880181 -0.7201141
vn 0.4183137 0.6613206 -0.6226305
vn 0.7363384 0.565594 -0.3713613
vn 0.4283339 0.6399466 -0.6379644
vn 0.4860505 0.6298183 -0.6058745
vn 0.6958833 0.5808799 -0.4222854
vn 0.2394253 0.6648792 -0.7075388
vn 0.5495536 0.6234261 -0.5561752
vn -0.1094245 0.6840026 -0.7212259
vn 0.234243 0.6774449 -0.6972795
vn -0.5561055 0.6370018 -0.5338309
vn -0.252368 0.679477 -0.6889277
vn 0.1617659 0.6638545 -0.7301568
vn -0.2517352 0.6592681 -0.708516
vn -0.1871464 0.6625209 -0.7252876
vn 0.09557494 0.6674729 -0.7384751
vn -0.4374201 0.6432167 -0.6284392
vn -0.1071539 0.671829 -0.7329146
vn -0.696999 0.5957728 -0.399058
vn -0.4364327 0.6553236 -0.6165043
vn -0.8762707 0.4802857 0.0384085
vn -0.7751977 0.5670539 -0.2784211
vn -0.5075676 0.6260203 -0.5920082
vn -0.784341 0.5459114 -0.2946011
vn -0.7507157 0.5599098 -0.3506095
vn -0.5607204 0.6165813 -0.5526482
vn -0.8580306 0.5014819 -0.1109032
vn -0.7010923 0.5833991 -0.4100185
vn -0.8762825 0.4236397 0.2294739
vn -0.8514536 0.5144167 -0.1019906
vn -0.6831273 0.3096725 0.6613924
vn -0.8439387 0.3899039 0.3684323
vn -0.8795745 0.4742537 -0.03784135
vn -0.8574908 0.3662792 0.3613156
vn -0.874526 0.3820928 0.2986795
vn -0.8885531 0.4580171 0.02634047
vn -0.7760182 0.3227017 0.5419034
vn -0.8843408 0.4099372 0.2233672
vn -0.5422515 0.2684391 0.7961807
vn -0.7677045 0.3372645 0.5448692
vn -0.08982097 0.2251049 0.9701855
vn -0.4183057 0.2518013 0.8727064
vn -0.736339 0.2974577 0.6077203
vn -0.4283344 0.225598 0.8750058
vn -0.4860514 0.233233 0.8422329
vn -0.6958836 0.2846647 0.659327
vn -0.239425 0.2116025 0.9475759
vn -0.5495543 0.2530558 0.7962115
vn 0.1094243 0.2210836 0.9690967
vn -0.234246 0.2276422 0.9451496
vn 0.5561056 0.276122 0.7839025
vn 0.2523615 0.2336459 0.9390011
vn -0.07161649 0.9966781 0.03877943
vn -0.07161649 0.9966781 0.03877943
vn -0.07161649 0.9966781 0.03877943
vn -0.07161649 0.9966781 0.03877943
vn 0.09698459 0.8657756 0.4909446
vn 0.09698459 0.8657756 0.4909446
vn 0.09698459 0.8657756 0.4909446
vn 0.09698459 0.8657756 0.4909446
vn -0.18418 0.9824529 -0.02939242
vn -0.18418 0.9824529 -0.02939242
vn -0.18418 0.9824529 -0.02939242
vn -0.18418 0.9824529 -0.02939242
vn 0.1892956 0.9101863 -0.3684129
vn 0.1892956 0.9101863 -0.3684129
vn 0.1892956 0.9101863 -0.3684129
vn 0.1892956 0.9101863 -0.3684129
vn -0.5972849 0.672707 0.4367105
vn -0.5972849 0.672707 0.4367105
vn -0.5972849 0.672707 0.4367105
vn -0.5972849 0.672707 0.4367105
g hat_Birthday_0
f 3/3/3 2/2/2 1/1/1
f 5/5/5 4/4/4 2/2/2
f 7/7/7 6/6/6 2/2/2
f 9/9/9 8/8/8 2/2/2
f 12/12/12 11/11/11 10/10/10
f 14/14/14 13/13/13 10/10/10
f 16/16/16 15/15/15 10/10/10
f 18/18/18 17/17/17 10/10/10
f 21/21/21 20/20/20 19/19/19
f 20/20/20 22/22/22 19/19/19
f 20/20/20 23/23/23 22/22/22
f 23/23/23 24/24/24 22/22/22
f 23/23/23 25/25/25 24/24/24
f 25/25/25 26/26/26 24/24/24
f 25/25/25 27/27/27 26/26/26
f 27/27/27 28/28/28 26/26/26
f 31/31/31 30/30/30 29/29/29
f 30/30/30 32/32/32 29/29/29
f 30/30/30 33/33/33 32/32/32
f 33/33/33 34/34/34 32/32/32
f 33/33/33 35/35/35 34/34/34
f 35/35/35 36/36/36 34/34/34
f 35/35/35 37/37/37 36/36/36
f 37/37/37 38/38/38 36/36/36
f 38/38/38 37/37/37 39/39/39
f 41/41/41 40/40/40 39/39/39
f 40/40/40 41/41/41 42/42/42
f 43/43/43 40/40/40 42/42/42
f 43/43/43 42/42/42 44/44/44
f 45/45/45 43/43/43 44/44/44
f 45/45/45 44/44/44 46/46/46
f 47/47/47 45/45/45 46/46/46
f 47/47/47 46/46/46 48/48/48
f 49/49/49 47/47/47 48/48/48
f 51/51/51 50/50/50 39/39/39
f 50/50/50 51/51/51 52/52/52
f 53/53/53 50/50/50 52/52/52
f 53/53/53 52/52/52 54/54/54
f 55/55/55 53/53/53 54/54/54
f 55/55/55 54/54/54 56/56/56
f 57/57/57 55/55/55 56/56/56
f 57/57/57 56/56/56 58/58/58
f 59/59/59 57/57/57 58/58/58
f 61/61/61 60/60/60 39/39/39
f 60/60/60 61/61/61 62/62/62
f 63/63/63 60/60/60 62/62/62
f 63/63/63 62/62/62 64/64/64
f 65/65/65 63/63/63 64/64/64
f 65/65/65 64/64/64 66/66/66
f 67/67/67 65/65/65 66/66/66
f 67/67/67 66/66/66 68/68/68
f 69/69/69 67/67/67 68/68/68
f 72/72/72 71/71/71 70/70/70
f 71/71/71 73/73/73 70/70/70
f 71/71/71 74/74/74 73/73/73
f 74/74/74 75/75/75 73/73/73
f 74/74/74 76/76/76 75/75/75
f 76/76/76 77/77/77 75/75/75
f 76/76/76 78/78/78 77/77/77
f 78/78/78 79/79/79 77/77/77
f 82/82/82 81/81/81 80/80/80
f 81/81/81 83/83/83 80/80/80
f 81/81/81 84/84/84 83/83/83
f 84/84/84 85/85/85 83/83/83
f 84/84/84 86/86/86 85/85/85
f 86/86/86 87/87/87 85/85/85
f 86/86/86 88/88/88 87/87/87
f 88/88/88 89/89/89 87/87/87
f 89/89/89 88/88/88 90/90/90
f 92/92/92 91/91/91 90/90/90
f 91/91/91 92/92/92 93/93/93
f 94/94/94 91/91/91 93/93/93
f 94/94/94 93/93/93 95/95/95
f 96/96/96 94/94/94 95/95/95
f 96/96/96 95/95/95 97/97/97
f 98/98/98 96/96/96 97/97/97
f 98/98/98 97/97/97 99/99/99
f 100/100/100 98/98/98 99/99/99
f 102/102/102 101/101/101 90/90/90
f 101/101/101 102/102/102 103/103/103
f 104/104/104 101/101/101 103/103/103
f 104/104/104 103/103/103 105/105/105
f 106/106/106 104/104/104 105/105/105
f 106/106/106 105/105/105 107/107/107
f 108/108/108 106/106/106 107/107/107
f 108/108/108 107/107/107 109/109/109
f 110/110/110 108/108/108 109/109/109
f 112/112/112 111/111/111 90/90/90
f 111/111/111 112/112/112 113/113/113
f 114/114/114 111/111/111 113/113/113
f 114/114/114 113/113/113 115/115/115
f 116/116/116 114/114/114 115/115/115
f 116/116/116 115/115/115 117/117/117
f 118/118/118 116/116/116 117/117/117
f 118/118/118 117/117/117 119/119/119
f 120/120/120 118/118/118 119/119/119
f 123/123/123 122/122/122 121/121/121
f 122/122/122 124/124/124 121/121/121
f 122/122/122 125/125/125 124/124/124
f 125/125/125 126/126/126 124/124/124
f 125/125/125 127/127/127 126/126/126
f 127/127/127 128/128/128 126/126/126
f 127/127/127 129/129/129 128/128/128
f 129/129/129 130/130/130 128/128/128
f 133/133/133 132/132/132 131/131/131
f 132/132/132 134/134/134 131/131/131
f 132/132/132 135/135/135 134/134/134
f 135/135/135 136/136/136 134/134/134
f 135/135/135 137/137/137 136/136/136
f 137/137/137 138/138/138 136/136/136
f 137/137/137 139/139/139 138/138/138
f 139/139/139 140/140/140 138/138/138
f 143/143/143 142/142/142 141/141/141
f 142/142/142 144/144/144 141/141/141
f 142/142/142 145/145/145 144/144/144
f 145/145/145 146/146/146 144/144/144
f 145/145/145 147/147/147 146/146/146
f 147/147/147 148/148/148 146/146/146
f 147/147/147 149/149/149 148/148/148
f 149/149/149 150/150/150 148/148/148
f 153/153/153 152/152/152 151/151/151
f 152/152/152 154/154/154 151/151/151
f 152/152/152 155/155/155 154/154/154
f 155/155/155 156/156/156 154/154/154
f 155/155/155 157/157/157 156/156/156
f 157/157/157 158/158/158 156/156/156
f 157/157/157 159/159/159 158/158/158
f 159/159/159 160/160/160 158/158/158
f 163/163/163 162/162/162 161/161/161
f 162/162/162 164/164/164 161/161/161
f 162/162/162 165/165/165 164/164/164
f 165/165/165 166/166/166 164/164/164
f 165/165/165 167/167/167 166/166/166
f 167/167/167 168/168/168 166/166/166
f 167/167/167 169/169/169 168/168/168
f 169/169/169 170/170/170 168/168/168
f 173/173/173 172/172/172 171/171/171
f 172/172/172 174/174/174 171/171/171
f 172/172/172 175/175/175 174/174/174
f 175/175/175 176/176/176 174/174/174
f 175/175/175 177/177/177 176/176/176
f 177/177/177 178/178/178 176/176/176
f 177/177/177 179/179/179 178/178/178
f 179/179/179 180/180/180 178/178/178
f 183/183/183 182/182/182 181/181/181
f 184/184/184 183/183/183 181/181/181
f 187/187/187 186/186/186 185/185/185
f 188/188/188 187/187/187 185/185/185
f 191/191/191 190/190/190 189/189/189
f 192/192/192 191/191/191 189/189/189
f 195/195/195 194/194/194 193/193/193
f 196/196/196 195/195/195 193/193/193
f 199/199/199 198/198/198 197/197/197
f 200/200/200 199/199/199 197/197/197
