g hat_Santa
v 0.3906008 5.281666 -0.2982704
v 0.6440646 4.803606 -0.5832134
v 0.9358307 4.72085 0.05456716
v -0.01897943 4.834898 -0.8243271
v 0.657848 5.195104 0.2026934
v 0.685411 4.6351 0.7154084
v -0.157911 5.284261 -0.4888059
v -0.6648943 4.796386 -0.5275385
v 0.1175207 5.510505 0.09688047
v 0.4749374 4.949069 0.7305565
v 0.03949663 4.596593 1.012199
v -0.6553465 5.081328 -0.3102022
v -0.9153138 4.710636 0.1333034
v -0.01918316 4.751217 0.9390162
v -0.6235448 4.627881 0.7710818
v -0.8506543 4.847485 0.1737334
v -0.5779369 4.711179 0.7003728
v -0.1090979 4.999647 0.7991354
v -0.6256756 5.061341 0.3236327
v -0.4583413 5.021157 0.6589846
v 0.4074286 5.355671 0.4965788
v 0.2607322 5.136737 0.7206217
v 0.0996092 5.311282 0.6005165
v -0.1494001 5.170906 0.6217513
v 0.4152843 5.493352 0.3929951
v -0.5579311 5.28937 -0.02584174
v -0.4252755 5.203854 0.3678083
v -0.4156033 5.401823 -0.1143264
v -0.3012103 5.505146 -0.1449241
v 0.004973203 5.609949 0.2320514
v 0.2235619 5.560436 0.5430956
v -0.4047807 5.355076 0.1340961
v -0.5214882 5.146767 0.3696633
v -0.3178243 5.166761 0.5252245
v -0.3548301 5.158102 0.5643027
v -0.4022286 5.472748 -0.06153473
v 0.2834535 5.382917 0.6350403
v -0.1578494 5.134295 0.7449975
v 0.01977184 5.589547 0.6760909
v 0.105196 5.40671 0.7481174
v -0.3798523 5.54401 -0.01376748
v -0.5211883 5.321834 0.1896489
v -0.2087661 5.462835 0.4451636
v -0.5261143 5.424364 0.2298149
v -0.08632222 5.334482 0.8431936
v -0.2148853 5.464506 0.817059
v -0.3784812 5.369783 0.617464
v -0.5988273 5.212779 0.31933
v -0.3325258 5.265429 0.8788923
v -0.2128764 5.155715 0.8893677
v -0.6489643 5.317412 0.416026
v -0.2233467 5.086375 0.7572042
v -0.651757 5.11401 0.4265963
v -0.490025 5.191759 0.7155411
v -0.7081583 4.571587 1.068906
v -0.7732942 4.583802 1.060984
v -0.834166 4.596337 1.012144
v -0.7070463 4.566066 1.009321
v -0.9183382 4.597578 0.9548469
v -0.3895485 5.114185 0.5963208
v -0.7695339 4.5674 0.9381751
v -0.6917931 5.186664 0.5205637
v -0.9028444 4.594839 0.8897009
v -0.5859931 5.034819 0.476138
v -0.8447086 4.58251 0.8826042
v -1.080772 4.045646 1.213923
v -0.961365 3.944042 1.070989
v -1.014999 3.97541 0.8649866
v -0.748701 3.947489 1.108538
v -1.147614 4.031538 1.016427
v -1.169021 4.24934 1.33388
v -0.8813125 4.003615 1.259979
v -1.299576 4.221814 0.9481554
v -0.7794678 4.167246 1.42383
v -1.040566 4.112164 0.6523795
v -0.815543 3.93338 0.9110426
v -1.205651 4.600442 0.8896354
v -0.5204608 4.057621 1.128055
v -1.075096 4.62797 1.27536
v -0.6510099 4.030099 0.7423328
v -0.9466437 4.490822 0.5938602
v -0.6855426 4.545905 1.365314
v -0.5570821 4.408722 0.6838105
v -0.4265358 4.43625 1.069535
v -0.6460557 4.619003 0.8054007
v -0.845515 4.661033 0.7593446
v -0.5792164 4.633106 1.002897
v -0.9781265 4.717155 0.9107856
v -0.7572853 4.718357 0.9389381
v -0.7118281 4.689239 1.154337
v -0.9112846 4.731262 1.108281
v -0.7809873 4.559101 0.826614
v -1.107063 4.660404 0.04594302
v -0.9832142 4.760345 0.05891189
v -0.7809873 4.346583 0.8060579
v -0.6934144 4.67032 0.7527367
v 0.006226033 4.605735 0.03884941
v -0.6934177 4.850377 -0.6349111
v 0.006226361 4.517146 1.149976
v 0.006226361 4.304624 1.129423
v 0.006226331 4.633027 1.04013
v -0.7809878 4.7617 -0.7347276
v -1.107063 4.447882 0.02538624
v 0.006225705 4.887669 -0.9223036
v 0.7934435 4.559101 0.8266134
v 0.7934435 4.346583 0.8060575
v 0.7058676 4.67032 0.7527363
v 0.006226331 4.223145 0.9939631
v -0.6934144 4.260435 0.7065727
v 0.006226033 4.492782 0.03121156
v 0.7058676 4.260435 0.7065723
v -0.9832143 4.350466 0.01274571
v 0.9956698 4.350466 0.01274508
v 1.119519 4.447882 0.0253855
v 1.119519 4.660404 0.04594234
v 0.99567 4.760345 0.0589112
v -0.7809878 4.549178 -0.7552863
v 0.7058671 4.440496 -0.6810775
v 0.7058671 4.850377 -0.6349115
v 0.006225675 4.803658 -1.05809
v 0.793443 4.7617 -0.7347282
v 0.793443 4.549178 -0.7552869
v 0.006225675 4.591135 -1.078649
v 0.006225705 4.477784 -0.9684706
v -0.6934177 4.440496 -0.6810771
vt 0.3420147 0.8403592
vt 0.3420147 0.8403592
vt 0.3420147 0.8403592
vt 0.3420147 0.8403592
vt 0.3420147 0.8403592
vt 0.3420147 0.8403592
vt 0.3420147 0.8403592
vt 0.3420147 0.8403592
vt 0.3420147 0.8403592
vt 0.3420147 0.8403592
vt 0.3420147 0.8403592
vt 0.3420147 0.8403592
vt 0.3420147 0.8403592
vt 0.3420147 0.8403592
vt 0.3420147 0.8403592
vt 0.3420147 0.8403592
vt 0.3420147 0.8403592
vt 0.3420147 0.8403592
vt 0.3420147 0.8403592
vt 0.3420147 0.8403592
vt 0.3420147 0.8403592
vt 0.3420147 0.8403592
vt 0.3420147 0.8403592
vt 0.3420147 0.8403592
vt 0.3420147 0.8403592
vt 0.3420147 0.8403592
vt 0.3420147 0.8403592
vt 0.3420147 0.8403592
vt 0.3420147 0.8403592
vt 0.3420147 0.8403592
vt 0.3420147 0.8403592
vt 0.3420147 0.8403592
vt 0.3420147 0.8403592
vt 0.3420147 0.8403592
vt 0.3420147 0.8403592
vt 0.3420147 0.8403592
vt 0.3420147 0.8403592
vt 0.3420147 0.8403592
vt 0.3420147 0.8403592
vt 0.3420147 0.8403592
vt 0.3420147 0.8403592
vt 0.3420147 0.8403592
vt 0.3420147 0.8403592
vt 0.3420147 0.8403592
vt 0.3420147 0.8403592
vt 0.3420147 0.8403592
vt 0.3420147 0.8403592
vt 0.3420147 0.8403592
vt 0.3420147 0.8403592
vt 0.3420147 0.8403592
vt 0.3420147 0.8403592
vt 0.3420147 0.8403592
vt 0.3420147 0.8403592
vt 0.3420147 0.8403592
vt 0.3420147 0.8403592
vt 0.3420147 0.8403592
vt 0.3420147 0.8403592
vt 0.3420147 0.8403592
vt 0.3420147 0.8403592
vt 0.3420147 0.8403592
vt 0.3420147 0.8403592
vt 0.3420147 0.8403592
vt 0.3420147 0.8403592
vt 0.3420147 0.8403592
vt 0.3420147 0.8403592
vt 0.5956224 0.02969408
vt 0.5956224 0.02969408
vt 0.5956224 0.02969408
vt 0.5956224 0.02969408
vt 0.5956224 0.02969408
vt 0.5956224 0.02969408
vt 0.5956224 0.02969408
vt 0.5956224 0.02969408
vt 0.5956224 0.02969408
vt 0.5956224 0.02969408
vt 0.5956224 0.02969408
vt 0.5956224 0.02969408
vt 0.5956224 0.02969408
vt 0.5956224 0.02969408
vt 0.5956224 0.02969408
vt 0.5956224 0.02969408
vt 0.5956224 0.02969408
vt 0.5956224 0.02969408
vt 0.5956224 0.02969408
vt 0.5956224 0.02969408
vt 0.5956224 0.02969408
vt 0.5956224 0.02969408
vt 0.5956224 0.02969408
vt 0.5956224 0.02969408
vt 0.5956224 0.02969408
vt 0.5956224 0.02969408
vt 0.5956224 0.02969408
vt 0.5956224 0.02969408
vt 0.5956224 0.02969408
vt 0.5956224 0.02969408
vt 0.5956224 0.02969408
vt 0.5956224 0.02969408
vt 0.5956224 0.02969408
vt 0.5956224 0.02969408
vt 0.5956224 0.02969408
vt 0.5956224 0.02969408
vt 0.5956224 0.02969408
vt 0.5956224 0.02969408
vt 0.5956224 0.02969408
vt 0.5956224 0.02969408
vt 0.5956224 0.02969408
vt 0.5956224 0.02969408
vt 0.5956224 0.02969408
vt 0.5956224 0.02969408
vt 0.5956224 0.02969408
vt 0.5956224 0.02969408
vt 0.5956224 0.02969408
vt 0.5956224 0.02969408
vt 0.5956224 0.02969408
vt 0.5956224 0.02969408
vt 0.5956224 0.02969408
vt 0.5956224 0.02969408
vt 0.5956224 0.02969408
vt 0.5956224 0.02969408
vt 0.5956224 0.02969408
vt 0.5956224 0.02969408
vt 0.5956224 0.02969408
vt 0.5956224 0.02969408
vt 0.5956224 0.02969408
vt 0.5956224 0.02969408
vn 0.4719765 0.7398835 -0.4793857
vn 0.5677513 0.6228716 -0.5382279
vn 0.8455894 0.5331031 0.0279215
vn -0.008227879 0.6034432 -0.7973635
vn 0.7834924 0.6160893 0.081077
vn 0.6642235 0.3952802 0.6344767
vn -0.1190763 0.7259336 -0.6773782
vn -0.6489618 0.4585663 -0.607096
vn 0.3106671 0.8955977 -0.3184191
vn 0.5486427 0.4134616 0.726664
vn 0.07924456 0.3932249 0.916021
vn -0.7257807 0.5473605 -0.4166999
vn -0.9112219 0.4070531 0.06310716
vn -0.05073121 0.4016101 0.9144046
vn -0.5374804 0.4839853 0.69056
vn -0.8749987 0.4586205 0.1550627
vn -0.6019347 0.4392658 0.6668734
vn -0.1724189 0.4875453 0.8559038
vn -0.7331998 0.5879906 0.3415922
vn -0.5212392 0.5455567 0.6562603
vn 0.672046 0.3801601 0.6354781
vn 0.2475463 0.5348901 0.8078449
vn 0.3521548 -0.204539 0.9133186
vn 0.1364579 -0.4374968 0.8888057
vn 0.6549544 0.7414612 0.1458433
vn -0.6850185 0.7284817 -0.00801171
vn -0.9178925 -0.3200998 -0.2345409
vn -0.7080265 0.6174705 -0.3426784
vn -0.2237734 0.8126673 -0.5380496
vn 0.01435021 0.9962469 -0.08535943
vn 0.3793612 0.8612069 0.338242
vn -0.8989959 -0.2130299 -0.3826549
vn 0.1421526 -0.7806357 -0.6086054
vn -0.4726879 -0.5358911 0.6995619
vn 0.3656602 -0.8430613 -0.3943857
vn -0.8553675 0.3391685 -0.3915499
vn 0.5941207 -0.2254482 0.7721359
vn 0.5884323 -0.8060026 0.06408831
vn 0.01276376 0.8823498 0.4704211
vn 0.5510854 -0.05129886 0.8328705
vn -0.4912709 0.8301543 -0.2636221
vn -0.5654297 -0.4206453 -0.7094693
vn -0.3471878 0.9265715 0.144657
vn -0.7323974 0.6757938 -0.08304599
vn 0.4575785 -0.04413662 0.8880731
vn -0.2823744 0.7200984 0.6338162
vn -0.5393407 0.7892731 0.2935293
vn -0.6270666 -0.3709696 -0.6849592
vn -0.3560133 0.4722268 0.8063847
vn 0.5419794 -0.2334634 0.8073123
vn -0.8336623 0.5522743 0.0004175655
vn 0.6194902 -0.7619196 -0.1889722
vn -0.6344516 -0.3588837 -0.6845974
vn -0.6089275 0.6092011 0.5080171
vn 0.4636657 -0.1431236 0.8743739
vn -0.3946651 0.4901417 0.7771747
vn -0.5847012 0.6012087 0.5446765
vn 0.6850369 -0.7062154 -0.1788417
vn -0.7806084 0.5301226 0.3310899
vn 0.4875222 -0.7123303 -0.5048838
vn 0.4843385 -0.6948634 -0.5315835
vn -0.9036285 0.4161651 0.1013027
vn -0.8282997 -0.1264354 -0.545833
vn 0.1889328 -0.7197101 -0.6680731
vn 0.1552259 -0.6980106 -0.6990609
vn -0.4998195 -0.7323313 0.4624622
vn -0.2383431 -0.9595404 0.1499161
vn -0.3567018 -0.8865281 -0.2946723
vn 0.2203254 -0.9471413 0.2331954
vn -0.6733591 -0.7389606 0.02290359
vn -0.6768677 -0.1249545 0.7254215
vn -0.05121208 -0.8044922 0.5917513
vn -0.9713897 -0.1875352 -0.1457139
vn 0.2025689 -0.311799 0.9283034
vn -0.386709 -0.4366604 -0.8122708
vn 0.1005608 -0.9700179 -0.2212528
vn -0.7909549 0.5534272 -0.2609766
vn 0.785909 -0.5607349 0.2606214
vn -0.4960709 0.614717 0.6132184
vn 0.4911569 -0.622978 -0.6088212
vn -0.2036935 0.3065628 -0.9298001
vn 0.3866231 0.4287404 0.8165195
vn 0.6769651 0.121108 -0.7259828
vn 0.9723831 0.1819678 0.1461463
vn 0.5035475 0.7268201 -0.4670894
vn 0.04397516 0.7982953 -0.6006587
vn 0.682137 0.7310233 -0.01714898
vn -0.2341155 0.9440382 -0.23234
vn 0.2455027 0.9563944 -0.1582346
vn 0.3567171 0.8819162 0.3081828
vn -0.1096348 0.9667885 0.2308684
vn -0.6492918 0.3174778 0.6911064
vn -0.9194194 0.3905928 0.04588252
vn -0.3496144 0.9291044 0.1205601
vn -0.6494212 -0.4686531 0.598846
vn -0.2472176 0.8972916 0.3657201
vn 0 0.9916863 0.1286792
vn -0.2472169 0.9609156 -0.1245992
vn 0 0.2872963 0.9578418
vn 0 -0.49909 0.8665501
vn 0 0.8841119 0.4672751
vn -0.6508605 0.4640258 -0.6008831
vn -0.9173388 -0.3953841 -0.04648485
vn 0 0.9740921 -0.2261518
vn 0.6492919 0.3174796 0.6911055
vn 0.6494211 -0.4686546 0.5988448
vn 0.2472143 0.8972926 0.3657199
vn 0 -0.9746783 0.2236116
vn -0.2454883 -0.9615938 0.1227717
vn 0 -0.9916862 -0.1286796
vn 0.2454846 -0.9615948 0.1227712
vn -0.3471693 -0.9300058 -0.1206754
vn 0.3471652 -0.9300074 -0.1206755
vn 0.9173372 -0.395388 -0.04648596
vn 0.9194176 0.3905971 0.04588233
vn 0.3496106 0.9291059 0.12056
vn -0.6477879 -0.3224407 -0.6902194
vn 0.2454806 -0.8984215 -0.3641129
vn 0.2472107 0.9609173 -0.1245987
vn 0 0.4945282 -0.8691616
vn 0.6508601 0.464028 -0.6008819
vn 0.6477877 -0.3224434 -0.6902183
vn 0 -0.2923314 -0.956317
vn 0 -0.8853381 -0.4649478
vn -0.2454867 -0.8984194 -0.3641137
g hat_Santa_0
f 3/3/3 2/2/2 1/1/1
f 1/1/1 2/2/2 4/4/4
f 5/5/5 3/3/3 1/1/1
f 6/6/6 3/3/3 5/5/5
f 7/7/7 1/1/1 4/4/4
f 7/7/7 4/4/4 8/8/8
f 1/1/1 9/9/9 5/5/5
f 9/9/9 1/1/1 7/7/7
f 10/10/10 6/6/6 5/5/5
f 11/11/11 6/6/6 10/10/10
f 12/12/12 7/7/7 8/8/8
f 12/12/12 8/8/8 13/13/13
f 14/14/14 11/11/11 10/10/10
f 15/15/15 11/11/11 14/14/14
f 16/16/16 13/13/13 15/15/15
f 16/16/16 12/12/12 13/13/13
f 17/17/17 15/15/15 14/14/14
f 17/17/17 16/16/16 15/15/15
f 18/18/18 14/14/14 10/10/10
f 14/14/14 18/18/18 17/17/17
f 16/16/16 17/17/17 19/19/19
f 12/12/12 16/16/16 19/19/19
f 18/18/18 20/20/20 17/17/17
f 17/17/17 20/20/20 19/19/19
f 10/10/10 5/5/5 21/21/21
f 22/22/22 18/18/18 10/10/10
f 22/22/22 10/10/10 21/21/21
f 18/18/18 22/22/22 23/23/23
f 23/23/23 22/22/22 21/21/21
f 20/20/20 18/18/18 24/24/24
f 24/24/24 18/18/18 23/23/23
f 5/5/5 25/25/25 21/21/21
f 9/9/9 25/25/25 5/5/5
f 26/26/26 12/12/12 19/19/19
f 19/19/19 20/20/20 27/27/27
f 26/26/26 19/19/19 27/27/27
f 12/12/12 26/26/26 28/28/28
f 7/7/7 12/12/12 28/28/28
f 29/29/29 9/9/9 7/7/7
f 28/28/28 29/29/29 7/7/7
f 25/25/25 9/9/9 30/30/30
f 9/9/9 29/29/29 30/30/30
f 21/21/21 25/25/25 31/31/31
f 31/31/31 25/25/25 30/30/30
f 28/28/28 26/26/26 32/32/32
f 32/32/32 26/26/26 27/27/27
f 32/32/32 27/27/27 33/33/33
f 20/20/20 34/34/34 27/27/27
f 34/34/34 20/20/20 24/24/24
f 34/34/34 35/35/35 27/27/27
f 35/35/35 34/34/34 24/24/24
f 35/35/35 33/33/33 27/27/27
f 36/36/36 29/29/29 28/28/28
f 32/32/32 36/36/36 28/28/28
f 37/37/37 21/21/21 31/31/31
f 23/23/23 21/21/21 37/37/37
f 38/38/38 24/24/24 23/23/23
f 38/38/38 35/35/35 24/24/24
f 31/31/31 39/39/39 37/37/37
f 31/31/31 30/30/30 39/39/39
f 40/40/40 23/23/23 37/37/37
f 23/23/23 40/40/40 38/38/38
f 39/39/39 40/40/40 37/37/37
f 29/29/29 41/41/41 30/30/30
f 41/41/41 29/29/29 36/36/36
f 32/32/32 42/42/42 36/36/36
f 42/42/42 32/32/32 33/33/33
f 30/30/30 41/41/41 43/43/43
f 30/30/30 43/43/43 39/39/39
f 41/41/41 36/36/36 44/44/44
f 36/36/36 42/42/42 44/44/44
f 41/41/41 44/44/44 43/43/43
f 45/45/45 40/40/40 39/39/39
f 40/40/40 45/45/45 38/38/38
f 46/46/46 39/39/39 43/43/43
f 46/46/46 45/45/45 39/39/39
f 47/47/47 46/46/46 43/43/43
f 47/47/47 43/43/43 44/44/44
f 42/42/42 48/48/48 44/44/44
f 33/33/33 48/48/48 42/42/42
f 45/45/45 46/46/46 49/49/49
f 46/46/46 47/47/47 49/49/49
f 50/50/50 38/38/38 45/45/45
f 50/50/50 45/45/45 49/49/49
f 51/51/51 47/47/47 44/44/44
f 48/48/48 51/51/51 44/44/44
f 50/50/50 52/52/52 38/38/38
f 35/35/35 38/38/38 52/52/52
f 53/53/53 48/48/48 33/33/33
f 51/51/51 48/48/48 53/53/53
f 47/47/47 51/51/51 54/54/54
f 47/47/47 54/54/54 49/49/49
f 55/55/55 50/50/50 49/49/49
f 50/50/50 55/55/55 52/52/52
f 56/56/56 55/55/55 49/49/49
f 56/56/56 49/49/49 54/54/54
f 57/57/57 56/56/56 54/54/54
f 55/55/55 58/58/58 52/52/52
f 57/57/57 54/54/54 59/59/59
f 60/60/60 35/35/35 52/52/52
f 52/52/52 58/58/58 60/60/60
f 35/35/35 60/60/60 33/33/33
f 58/58/58 61/61/61 60/60/60
f 51/51/51 62/62/62 54/54/54
f 54/54/54 62/62/62 59/59/59
f 62/62/62 51/51/51 53/53/53
f 63/63/63 59/59/59 62/62/62
f 63/63/63 62/62/62 53/53/53
f 64/64/64 53/53/53 33/33/33
f 60/60/60 64/64/64 33/33/33
f 64/64/64 60/60/60 61/61/61
f 63/63/63 53/53/53 64/64/64
f 65/65/65 64/64/64 61/61/61
f 65/65/65 63/63/63 64/64/64
f 68/68/68 67/67/67 66/66/66
f 66/66/66 67/67/67 69/69/69
f 69/69/69 67/67/67 68/68/68
f 70/70/70 68/68/68 66/66/66
f 70/70/70 66/66/66 71/71/71
f 72/72/72 66/66/66 69/69/69
f 71/71/71 66/66/66 72/72/72
f 68/68/68 70/70/70 73/73/73
f 73/73/73 70/70/70 71/71/71
f 74/74/74 72/72/72 69/69/69
f 74/74/74 71/71/71 72/72/72
f 75/75/75 68/68/68 73/73/73
f 76/76/76 69/69/69 68/68/68
f 76/76/76 68/68/68 75/75/75
f 77/77/77 73/73/73 71/71/71
f 75/75/75 73/73/73 77/77/77
f 78/78/78 69/69/69 76/76/76
f 78/78/78 74/74/74 69/69/69
f 79/79/79 71/71/71 74/74/74
f 79/79/79 77/77/77 71/71/71
f 80/80/80 76/76/76 75/75/75
f 80/80/80 78/78/78 76/76/76
f 80/80/80 75/75/75 81/81/81
f 81/81/81 75/75/75 77/77/77
f 82/82/82 79/79/79 74/74/74
f 82/82/82 74/74/74 78/78/78
f 78/78/78 80/80/80 83/83/83
f 83/83/83 80/80/80 81/81/81
f 84/84/84 78/78/78 83/83/83
f 84/84/84 82/82/82 78/78/78
f 85/85/85 83/83/83 81/81/81
f 84/84/84 83/83/83 85/85/85
f 86/86/86 81/81/81 77/77/77
f 86/86/86 85/85/85 81/81/81
f 82/82/82 84/84/84 87/87/87
f 87/87/87 84/84/84 85/85/85
f 88/88/88 86/86/86 77/77/77
f 88/88/88 77/77/77 79/79/79
f 89/89/89 85/85/85 86/86/86
f 85/85/85 89/89/89 87/87/87
f 88/88/88 89/89/89 86/86/86
f 90/90/90 82/82/82 87/87/87
f 89/89/89 90/90/90 87/87/87
f 79/79/79 82/82/82 90/90/90
f 90/90/90 89/89/89 88/88/88
f 91/91/91 88/88/88 79/79/79
f 91/91/91 79/79/79 90/90/90
f 91/91/91 90/90/90 88/88/88
f 94/94/94 93/93/93 92/92/92
f 92/92/92 93/93/93 95/95/95
f 96/96/96 94/94/94 92/92/92
f 96/96/96 97/97/97 94/94/94
f 94/94/94 98/98/98 93/93/93
f 94/94/94 97/97/97 98/98/98
f 96/96/96 92/92/92 99/99/99
f 92/92/92 95/95/95 100/100/100
f 99/99/99 92/92/92 100/100/100
f 101/101/101 97/97/97 96/96/96
f 101/101/101 96/96/96 99/99/99
f 98/98/98 102/102/102 93/93/93
f 93/93/93 103/103/103 95/95/95
f 93/93/93 102/102/102 103/103/103
f 98/98/98 97/97/97 104/104/104
f 98/98/98 104/104/104 102/102/102
f 101/101/101 99/99/99 105/105/105
f 99/99/99 100/100/100 106/106/106
f 105/105/105 99/99/99 106/106/106
f 107/107/107 97/97/97 101/101/101
f 107/107/107 101/101/101 105/105/105
f 100/100/100 95/95/95 108/108/108
f 95/95/95 103/103/103 109/109/109
f 95/95/95 109/109/109 108/108/108
f 109/109/109 110/110/110 108/108/108
f 100/100/100 108/108/108 111/111/111
f 106/106/106 100/100/100 111/111/111
f 108/108/108 110/110/110 111/111/111
f 103/103/103 112/112/112 109/109/109
f 112/112/112 110/110/110 109/109/109
f 106/106/106 111/111/111 113/113/113
f 111/111/111 110/110/110 113/113/113
f 105/105/105 106/106/106 114/114/114
f 114/114/114 106/106/106 113/113/113
f 107/107/107 105/105/105 115/115/115
f 115/115/115 105/105/105 114/114/114
f 116/116/116 97/97/97 107/107/107
f 116/116/116 107/107/107 115/115/115
f 103/103/103 117/117/117 112/112/112
f 102/102/102 117/117/117 103/103/103
f 114/114/114 113/113/113 118/118/118
f 113/113/113 110/110/110 118/118/118
f 119/119/119 97/97/97 116/116/116
f 104/104/104 97/97/97 119/119/119
f 104/104/104 120/120/120 102/102/102
f 104/104/104 119/119/119 120/120/120
f 102/102/102 120/120/120 117/117/117
f 119/119/119 116/116/116 121/121/121
f 116/116/116 115/115/115 121/121/121
f 119/119/119 121/121/121 120/120/120
f 115/115/115 114/114/114 122/122/122
f 122/122/122 114/114/114 118/118/118
f 121/121/121 115/115/115 122/122/122
f 120/120/120 121/121/121 123/123/123
f 120/120/120 123/123/123 117/117/117
f 121/121/121 122/122/122 123/123/123
f 122/122/122 118/118/118 124/124/124
f 118/118/118 110/110/110 124/124/124
f 123/123/123 122/122/122 124/124/124
f 117/117/117 123/123/123 125/125/125
f 123/123/123 124/124/124 125/125/125
f 124/124/124 110/110/110 125/125/125
f 117/117/117 125/125/125 112/112/112
f 125/125/125 110/110/110 112/112/112
