g hat_Nightcap
v -1.321788 4.866953 0.3878465
v -1.455208 5.063906 0.52762
v -1.207428 4.981313 0.6102134
v -1.054947 4.924133 0.3878465
v -1.264608 5.248153 0.6102134
v -1.016827 5.16556 0.52762
v -1.207428 4.981313 0.1654794
v -1.455208 5.063906 0.2480729
v -1.423441 5.29898 0.3878465
v -1.150247 5.362514 0.3878465
v -1.016827 5.16556 0.2480729
v -1.264608 5.248153 0.1654794
v 1.098836 4.428572 0.006645918
v -0.0129993 4.301505 0.006645918
v 1.035302 4.352332 0.3878465
v 1.028949 4.485752 -0.3682013
v 0.8510553 4.276092 0.7182202
v 0.6668084 5.019433 0.4069065
v 0.6922217 5.121087 0.08288598
v 0.5333881 4.898719 0.6864536
v 0.5588015 4.199852 0.9596473
v 0.2983145 4.784359 0.8961138
v 0.0124141 5.343453 0.4386731
v 0.01876748 5.400633 0.2163062
v -0.04476595 5.27992 0.5848
v -0.7055136 5.178267 0.6102134
v -0.6991602 5.343453 0.4132599
v -1.340848 5.171913 0.3751397
v -0.08923936 5.400633 -0.01876748
v -0.1654794 5.190973 0.7055136
v 0.006060719 4.689059 1.004121
v 0.196661 4.136318 1.093068
v -0.3179597 5.082966 0.769047
v -0.3179597 4.612819 1.004121
v -0.4767933 4.981313 0.7626936
v -0.1908928 4.091845 1.086714
v -0.6165668 4.555639 0.8897605
v -0.7817537 5.044846 0.56574
v -0.5530334 4.079138 0.9596473
v -0.6229202 4.892366 0.6864536
v -0.8707005 4.511166 0.6801002
v -0.8516405 4.085492 0.7118669
v -0.7563403 4.828833 0.5593867
v -1.054947 4.123611 0.3751397
v -1.124834 4.180792 0.0002925396
v -1.061301 4.257032 -0.3745546
v -1.029534 4.485752 0.4005531
v -0.8579937 4.968606 0.3878465
v -1.093068 4.485752 0.08288598
v -0.8452871 4.790712 0.3941997
v -1.042241 4.530226 -0.2347811
v -0.8834071 4.974959 0.1591262
v -0.8834071 4.784359 0.1972462
v -0.8643471 4.809772 0.006645918
v -0.8961138 4.612819 -0.5143281
v -0.8579937 5.07026 -0.006060719
v -0.8770537 4.333272 -0.7049284
v -0.8008137 4.866953 -0.158541
v -0.6801002 4.733532 -0.7239884
v -0.7055136 4.962253 -0.2919611
v -0.8071671 5.27992 0.006645918
v -0.5848 4.409512 -0.9527087
v -0.4069065 4.879659 -0.8383486
v -0.7563403 5.362514 0.1845396
v -0.2226596 4.473045 -1.079776
v -0.5975068 5.076613 -0.3618479
v -0.1082994 5.019433 -0.8383486
v -0.4831465 5.197327 -0.3554946
v -0.3497264 5.305333 -0.2856078
v -0.1972462 5.37522 -0.158541
v 0.1648943 4.511166 -1.079776
v 0.177601 5.133793 -0.7239884
v 0.6096283 5.18462 -0.2347811
v 0.4317347 5.190973 -0.5143281
v 0.5270348 4.530226 -0.9463553
v 0.8256419 4.517519 -0.698575
vt 0.5329963 0.8431276
vt 0.5329963 0.8431276
vt 0.5329963 0.8431276
vt 0.5329963 0.8431276
vt 0.5329963 0.8431276
vt 0.5329963 0.8431276
vt 0.5329963 0.8431276
vt 0.5329963 0.8431276
vt 0.5329963 0.8431276
vt 0.5329963 0.8431276
vt 0.5329963 0.8431276
vt 0.5329963 0.8431276
vt 0.03615314 0.4095766
vt 0.03615314 0.4095766
vt 0.03615314 0.4095766
vt 0.03615314 0.4095766
vt 0.03615314 0.4095766
vt 0.03615314 0.4095766
vt 0.03615314 0.4095766
vt 0.03615314 0.4095766
vt 0.03615314 0.4095766
vt 0.03615314 0.4095766
vt 0.03615314 0.4095766
vt 0.03615314 0.4095766
vt 0.03615314 0.4095766
vt 0.03615314 0.4095766
vt 0.03615314 0.4095766
vt 0.03615314 0.4095766
vt 0.03615314 0.4095766
vt 0.03615314 0.4095766
vt 0.03615314 0.4095766
vt 0.03615314 0.4095766
vt 0.03615314 0.4095766
vt 0.03615314 0.4095766
vt 0.03615314 0.4095766
vt 0.03615314 0.4095766
vt 0.03615314 0.4095766
vt 0.03615314 0.4095766
vt 0.03615314 0.4095766
vt 0.03615314 0.4095766
vt 0.03615314 0.4095766
vt 0.03615314 0.4095766
vt 0.03615314 0.4095766
vt 0.03615314 0.4095766
vt 0.03615314 0.4095766
vt 0.03615314 0.4095766
vt 0.03615314 0.4095766
vt 0.03615314 0.4095766
vt 0.03615314 0.4095766
vt 0.03615314 0.4095766
vt 0.03615314 0.4095766
vt 0.03615314 0.4095766
vt 0.03615314 0.4095766
vt 0.03615314 0.4095766
vt 0.03615314 0.4095766
vt 0.03615314 0.4095766
vt 0.03615314 0.4095766
vt 0.03615314 0.4095766
vt 0.03615314 0.4095766
vt 0.03615314 0.4095766
vt 0.03615314 0.4095766
vt 0.03615314 0.4095766
vt 0.03615314 0.4095766
vt 0.03615314 0.4095766
vt 0.03615314 0.4095766
vt 0.03615314 0.4095766
vt 0.03615314 0.4095766
vt 0.03615314 0.4095766
vt 0.03615314 0.4095766
vt 0.03615314 0.4095766
vt 0.03615314 0.4095766
vt 0.03615314 0.4095766
vt 0.03615314 0.4095766
vt 0.03615314 0.4095766
vt 0.03615314 0.4095766
vt 0.03615314 0.4095766
vn -0.3299214 -0.9440084 0
vn -0.8306233 -0.1991466 0.5200053
vn 0.1055311 -0.511198 0.8529594
vn 0.6914904 -0.7223855 0
vn -0.112905 0.5185718 0.8475469
vn 0.8232496 0.1753152 0.5399303
vn 0.1055311 -0.511198 -0.8529594
vn -0.8306233 -0.1991466 -0.5200053
vn -0.7058027 0.7058027 -0.06070418
vn 0.3211174 0.9470394 0
vn 0.8232496 0.1753152 -0.5399303
vn -0.112905 0.5185718 -0.8475469
vn 0.9100574 -0.4144821 0
vn 0.1055311 -0.9792753 -0.1728673
vn 0.8544547 -0.4487877 0.2617188
vn 0.8544547 -0.3551723 -0.3791567
vn 0.7296341 -0.511198 0.4542143
vn 0.6672238 0.6433924 0.3753114
vn 0.6672238 0.7370079 0.1078505
vn 0.5424032 0.549777 0.6352512
vn 0.511198 -0.5736084 0.640039
vn 0.3239672 0.4249564 0.8452558
vn 0.2303517 0.8930337 0.3865604
vn 0.1978513 0.980232 0
vn 0.1367363 0.8306233 0.5397853
vn -0.3001358 0.4561616 0.837756
vn -0.14411 0.9242387 0.3535747
vn -0.9866491 0.05049461 0.154835
vn 0.1055311 0.9866491 -0.1240434
vn 0.01191568 0.7058027 0.7083082
vn 0.07432598 0.331341 0.940579
vn 0.2303517 -0.6360186 0.7364905
vn -0.14411 0.5185718 0.8428022
vn -0.2377256 0.2689306 0.9333611
vn -0.3937512 0.3625461 0.8447013
vn -0.05049461 -0.698429 0.7138958
vn -0.5185718 0.2065204 0.8297184
vn -0.5809821 -0.1991466 0.789177
vn -0.331341 -0.7296341 0.5982033
vn -0.6121873 0.2689306 0.7435745
vn -0.7682131 0.2065204 0.6059686
vn -0.549777 -0.7296341 0.4066687
vn -0.8306233 0.2065204 0.5171211
vn -0.6745976 -0.698429 0.2389876
vn -0.7370079 -0.6672238 -0.1078505
vn -0.7058027 -0.6048135 -0.3688402
vn -0.9242387 0.2689306 0.2710334
vn -0.7682131 -0.511198 0.3853897
vn -0.9447994 0.3276495 0
vn -0.9242387 0.2689306 0.2710334
vn -0.8930337 0.3937512 -0.2178322
vn -0.8930337 -0.4487877 -0.0328698
vn -0.9540356 0.2996934 0
vn -0.9242387 0.3001358 -0.2360112
vn -0.7994182 0.4561616 -0.3909568
vn -0.8306233 0.01928949 -0.5565005
vn -0.5809821 -0.5424032 -0.6068431
vn -0.8930337 0.331341 -0.3044734
vn -0.6433924 0.5185718 -0.5631425
vn -0.7994182 0.3937512 -0.4537517
vn -0.5185718 0.6745976 -0.5253583
vn -0.3625461 -0.4799929 -0.7988536
vn -0.4249564 0.5809821 -0.6941699
vn -0.2377256 0.9554439 -0.1749671
vn -0.08169979 -0.4487877 -0.8898959
vn -0.6433924 0.4873667 -0.5903557
vn -0.14411 0.6745976 -0.7239823
vn -0.4249564 0.6745976 -0.6035977
vn -0.2065204 0.8618285 -0.4632505
vn -0.01928949 0.9554439 -0.2945417
vn 0.1991466 -0.3863775 -0.9005849
vn 0.1679415 0.7682131 -0.6177737
vn 0.5736084 0.7994182 -0.178617
vn 0.4175826 0.7994182 -0.4319206
vn 0.4799929 -0.3551723 -0.8021592
vn 0.698429 -0.3551723 -0.6213289
g hat_Nightcap_0
f 3/3/3 2/2/2 1/1/1
f 4/4/4 3/3/3 1/1/1
f 2/2/2 3/3/3 5/5/5
f 3/3/3 4/4/4 6/6/6
f 6/6/6 5/5/5 3/3/3
f 7/7/7 4/4/4 1/1/1
f 2/2/2 8/8/8 1/1/1
f 8/8/8 7/7/7 1/1/1
f 5/5/5 9/9/9 2/2/2
f 8/8/8 2/2/2 9/9/9
f 5/5/5 6/6/6 10/10/10
f 9/9/9 5/5/5 10/10/10
f 11/11/11 6/6/6 4/4/4
f 4/4/4 7/7/7 11/11/11
f 6/6/6 11/11/11 10/10/10
f 7/7/7 8/8/8 12/12/12
f 9/9/9 12/12/12 8/8/8
f 12/12/12 9/9/9 10/10/10
f 11/11/11 12/12/12 10/10/10
f 12/12/12 11/11/11 7/7/7
f 15/15/15 14/14/14 13/13/13
f 13/13/13 14/14/14 16/16/16
f 17/17/17 14/14/14 15/15/15
f 15/15/15 13/13/13 18/18/18
f 13/13/13 16/16/16 19/19/19
f 19/19/19 18/18/18 13/13/13
f 17/17/17 15/15/15 20/20/20
f 18/18/18 20/20/20 15/15/15
f 21/21/21 14/14/14 17/17/17
f 20/20/20 22/22/22 17/17/17
f 21/21/21 17/17/17 22/22/22
f 18/18/18 23/23/23 20/20/20
f 19/19/19 24/24/24 18/18/18
f 23/23/23 18/18/18 24/24/24
f 20/20/20 25/25/25 22/22/22
f 25/25/25 20/20/20 23/23/23
f 25/25/25 23/23/23 26/26/26
f 24/24/24 27/27/27 23/23/23
f 27/27/27 26/26/26 23/23/23
f 28/28/28 26/26/26 27/27/27
f 24/24/24 19/19/19 29/29/29
f 24/24/24 29/29/29 27/27/27
f 30/30/30 22/22/22 25/25/25
f 25/25/25 26/26/26 30/30/30
f 22/22/22 31/31/31 21/21/21
f 22/22/22 30/30/30 31/31/31
f 32/32/32 14/14/14 21/21/21
f 32/32/32 21/21/21 31/31/31
f 33/33/33 31/31/31 30/30/30
f 30/30/30 26/26/26 33/33/33
f 31/31/31 34/34/34 32/32/32
f 31/31/31 33/33/33 34/34/34
f 33/33/33 26/26/26 35/35/35
f 35/35/35 34/34/34 33/33/33
f 36/36/36 32/32/32 34/34/34
f 36/36/36 14/14/14 32/32/32
f 34/34/34 37/37/37 36/36/36
f 34/34/34 35/35/35 37/37/37
f 26/26/26 38/38/38 35/35/35
f 28/28/28 38/38/38 26/26/26
f 39/39/39 14/14/14 36/36/36
f 39/39/39 36/36/36 37/37/37
f 40/40/40 37/37/37 35/35/35
f 40/40/40 35/35/35 38/38/38
f 37/37/37 41/41/41 39/39/39
f 37/37/37 40/40/40 41/41/41
f 42/42/42 14/14/14 39/39/39
f 42/42/42 39/39/39 41/41/41
f 40/40/40 38/38/38 43/43/43
f 43/43/43 41/41/41 40/40/40
f 44/44/44 14/14/14 42/42/42
f 45/45/45 14/14/14 44/44/44
f 46/46/46 14/14/14 45/45/45
f 41/41/41 47/47/47 42/42/42
f 44/44/44 42/42/42 47/47/47
f 41/41/41 43/43/43 47/47/47
f 38/38/38 48/48/48 43/43/43
f 28/28/28 48/48/48 38/38/38
f 45/45/45 44/44/44 49/49/49
f 47/47/47 49/49/49 44/44/44
f 50/50/50 47/47/47 43/43/43
f 50/50/50 43/43/43 48/48/48
f 47/47/47 50/50/50 49/49/49
f 49/49/49 51/51/51 45/45/45
f 46/46/46 45/45/45 51/51/51
f 48/48/48 52/52/52 50/50/50
f 28/28/28 52/52/52 48/48/48
f 53/53/53 49/49/49 50/50/50
f 49/49/49 53/53/53 51/51/51
f 53/53/53 50/50/50 52/52/52
f 54/54/54 51/51/51 53/53/53
f 53/53/53 52/52/52 54/54/54
f 51/51/51 55/55/55 46/46/46
f 51/51/51 54/54/54 55/55/55
f 52/52/52 56/56/56 54/54/54
f 28/28/28 56/56/56 52/52/52
f 57/57/57 46/46/46 55/55/55
f 57/57/57 14/14/14 46/46/46
f 58/58/58 55/55/55 54/54/54
f 58/58/58 54/54/54 56/56/56
f 55/55/55 59/59/59 57/57/57
f 55/55/55 58/58/58 59/59/59
f 58/58/58 56/56/56 60/60/60
f 60/60/60 59/59/59 58/58/58
f 28/28/28 61/61/61 56/56/56
f 56/56/56 61/61/61 60/60/60
f 62/62/62 57/57/57 59/59/59
f 62/62/62 14/14/14 57/57/57
f 59/59/59 60/60/60 63/63/63
f 59/59/59 63/63/63 62/62/62
f 28/28/28 64/64/64 61/61/61
f 28/28/28 27/27/27 64/64/64
f 64/64/64 27/27/27 29/29/29
f 65/65/65 14/14/14 62/62/62
f 65/65/65 62/62/62 63/63/63
f 66/66/66 63/63/63 60/60/60
f 66/66/66 60/60/60 61/61/61
f 63/63/63 67/67/67 65/65/65
f 63/63/63 66/66/66 67/67/67
f 66/66/66 61/61/61 68/68/68
f 68/68/68 67/67/67 66/66/66
f 61/61/61 64/64/64 69/69/69
f 68/68/68 61/61/61 69/69/69
f 70/70/70 64/64/64 29/29/29
f 70/70/70 69/69/69 64/64/64
f 71/71/71 65/65/65 67/67/67
f 71/71/71 14/14/14 65/65/65
f 67/67/67 68/68/68 72/72/72
f 69/69/69 72/72/72 68/68/68
f 67/67/67 72/72/72 71/71/71
f 29/29/29 73/73/73 70/70/70
f 73/73/73 29/29/29 19/19/19
f 73/73/73 19/19/19 16/16/16
f 70/70/70 74/74/74 69/69/69
f 72/72/72 69/69/69 74/74/74
f 74/74/74 70/70/70 73/73/73
f 75/75/75 71/71/71 72/72/72
f 75/75/75 14/14/14 71/71/71
f 72/72/72 74/74/74 75/75/75
f 16/16/16 76/76/76 73/73/73
f 16/16/16 14/14/14 76/76/76
f 76/76/76 14/14/14 75/75/75
f 74/74/74 73/73/73 76/76/76
f 76/76/76 75/75/75 74/74/74
