g hat_CapReverse
v 0.3564949 4.443288 -0.9833795
v 0.00189352 4.899204 -1.008708
v 0.00189352 4.44962 -1.097358
v 0.4768061 4.880207 -0.850404
v -0.3527079 4.443288 -0.9833795
v -0.4793512 4.880207 -0.850404
v 0.3438306 4.227994 -1.027705
v -0.3463756 4.227994 -1.027705
v 0.00189352 5.044844 -0.8314075
v 0.4958026 4.095018 -1.002376
v 0.00189352 4.234326 -1.141684
v -0.4983476 4.095018 -1.002376
v 0.00189352 4.120347 -1.16068
v 0.00189352 4.038029 -0.01455784
v 0.7997466 4.842214 -0.5654564
v 0.8187431 4.044361 -0.7047641
v 0.4641418 5.025847 -0.7047641
v 0.7237606 4.987854 -0.4451452
v 1.046701 4.747232 -0.05255091
v 0.9327222 4.924532 -0.07154739
v 0.4324809 5.228477 -0.1601977
v 0.00189352 5.266469 -0.3058376
v -0.4666868 5.025847 -0.7047641
v 1.059366 3.949378 -0.1285369
v 1.059366 3.911386 0.1057533
v 0.4388131 5.133494 0.4666868
v 0.00189352 5.317127 0.1944036
v -0.4350259 5.228477 -0.1601977
v -0.7199736 4.987854 -0.4451452
v 0.8060788 4.816885 0.6503197
v -0.7959595 4.842214 -0.5654564
v -0.8149561 4.044361 -0.7047641
v -0.9289349 4.924532 -0.07154739
v -0.4413581 5.133494 0.4666868
v 0.9137256 4.633253 0.7073091
v 0.8314075 3.430141 1.042914
v -1.061911 3.949378 -0.1285369
v 0.5844529 3.360487 1.340526
v -1.049246 4.747232 -0.05255091
v 0.9010613 3.829068 0.6313232
v 0.4894704 4.759896 0.9669281
v 0.00189352 4.734568 1.093571
v 0.4958026 4.569931 1.093571
v 0.4768061 3.759414 0.9859246
v -0.8022916 4.816885 0.6503197
v -1.055578 3.911386 0.1057533
v -0.9162706 4.633253 0.7073091
v 0.00189352 5.114498 0.6313232
v -0.4920155 4.759896 0.9669281
v 0.00189352 4.544602 1.188554
v -0.4920155 4.569931 1.093571
v -0.8972741 3.829068 0.6313232
v -0.4793512 3.759414 0.9859246
v 0.00189352 3.746749 1.087239
v -0.8276204 3.430141 1.042914
v -0.5806658 3.360487 1.340526
v -0.2767218 3.411144 1.486166
v 0.2741768 3.411144 1.486166
v 0.00189352 3.442805 1.524159
vt 0.1543832 0.7812254
vt 0.1543832 0.7812254
vt 0.1543832 0.7812254
vt 0.1543832 0.7812254
vt 0.1543832 0.7812254
vt 0.1543832 0.7812254
vt 0.1543832 0.7812254
vt 0.1543832 0.7812254
vt 0.1543832 0.7812254
vt 0.1543832 0.7812254
vt 0.1543832 0.7812254
vt 0.1543832 0.7812254
vt 0.1543832 0.7812254
vt 0.1543832 0.7812254
vt 0.1543832 0.7812254
vt 0.1543832 0.7812254
vt 0.1543832 0.7812254
vt 0.1543832 0.7812254
vt 0.1543832 0.7812254
vt 0.1543832 0.7812254
vt 0.1543832 0.7812254
vt 0.1543832 0.7812254
vt 0.1543832 0.7812254
vt 0.1543832 0.7812254
vt 0.1543832 0.7812254
vt 0.1543832 0.7812254
vt 0.1543832 0.7812254
vt 0.1543832 0.7812254
vt 0.1543832 0.7812254
vt 0.1543832 0.7812254
vt 0.1543832 0.7812254
vt 0.1543832 0.7812254
vt 0.1543832 0.7812254
vt 0.1543832 0.7812254
vt 0.1543832 0.7812254
vt 0.1543832 0.7812254
vt 0.1543832 0.7812254
vt 0.1543832 0.7812254
vt 0.1543832 0.7812254
vt 0.1543832 0.7812254
vt 0.1543832 0.7812254
vt 0.1543832 0.7812254
vt 0.1543832 0.7812254
vt 0.1543832 0.7812254
vt 0.1543832 0.7812254
vt 0.1543832 0.7812254
vt 0.1543832 0.7812254
vt 0.1543832 0.7812254
vt 0.1543832 0.7812254
vt 0.1543832 0.7812254
vt 0.1543832 0.7812254
vt 0.1543832 0.7812254
vt 0.1543832 0.7812254
vt 0.1543832 0.7812254
vt 0.1543832 0.7812254
vt 0.1543832 0.7812254
vt 0.1543832 0.7812254
vt 0.1543832 0.7812254
vt 0.1543832 0.7812254
vn 0.3156499 0.180767 -0.9314979
vn 0.005389333 0.4910275 -0.8711274
vn 0.005389333 0.180767 -0.9835112
vn 0.4707802 0.4600015 -0.7528377
vn -0.3048713 0.180767 -0.9350812
vn -0.4600015 0.4600015 -0.7594717
vn 0.3156499 0.180767 -0.9314979
vn -0.3048713 0.180767 -0.9350812
vn 0.005389333 0.8323142 -0.554278
vn 0.377702 -0.5638584 -0.7344419
vn 0.005389333 0.180767 -0.9835112
vn -0.3669234 -0.5638584 -0.7398858
vn 0.005389333 -0.5328323 -0.8462037
vn 0.005389333 -0.9671971 -0.2539698
vn 0.7810408 0.3669234 -0.5053143
vn 0.5948844 -0.6259105 -0.5043298
vn 0.346676 0.8012882 -0.4875992
vn 0.5948844 0.7392361 -0.3156622
vn 0.9361711 0.3048713 -0.175035
vn 0.7124268 0.7017464 0
vn 0.346676 0.9253923 -0.1531822
vn 0.005389333 0.9874445 -0.1578746
vn -0.3669234 0.8012882 -0.472551
vn 0.7189887 -0.6569365 -0.2269134
vn 0.7500147 -0.6569365 -0.07689131
vn 0.346676 0.8633403 0.3666869
vn 0.005389333 0.9874445 0.1578746
vn -0.3669234 0.9253923 -0.09495407
vn -0.6151318 0.7392361 -0.2741222
vn 0.6259105 0.6771839 0.3868565
vn -0.7702621 0.3669234 -0.5215971
vn -0.5841058 -0.6259105 -0.516775
vn -0.7071068 0.7071068 0
vn -0.3358973 0.8633403 0.3765854
vn 0.8120669 0.2428191 0.5306471
vn 0.7500147 -0.5948844 0.2891201
vn -0.7082099 -0.6569365 -0.2585984
vn 0.4397541 -0.6259105 0.6440903
vn -0.9527656 0.3037069 0
vn 0.8741189 0.1187149 0.4709807
vn 0.346676 0.6461579 0.6799233
vn 0.005389333 0.6461579 0.7631847
vn 0.4087281 0.180767 0.8945751
vn 0.4397541 0.3669234 0.819746
vn -0.6151318 0.6771839 0.4037757
vn -0.7608592 -0.6489171 0
vn -0.8323142 0.2428191 0.498289
vn 0.005389333 0.8323142 0.554278
vn -0.3358973 0.6461579 0.6853123
vn 0.005389333 0.180767 0.9835112
vn -0.4289755 0.180767 0.8850443
vn -0.8633403 0.1187149 0.4904593
vn -0.4289755 0.3669234 0.8254376
vn 0.005389333 0.4289755 0.9033
vn -0.7392361 -0.5948844 0.3156622
vn -0.4289755 -0.6259105 0.6513187
vn 0.005389333 -0.4397541 0.898102
vn 0.005389333 -0.4397541 0.898102
vn 0.005389333 -0.377702 0.9259115
g hat_CapReverse_0
f 3/3/3 2/2/2 1/1/1
f 2/2/2 4/4/4 1/1/1
f 2/2/2 3/3/3 5/5/5
f 6/6/6 2/2/2 5/5/5
f 1/1/1 4/4/4 7/7/7
f 6/6/6 5/5/5 8/8/8
f 2/2/2 9/9/9 4/4/4
f 9/9/9 2/2/2 6/6/6
f 4/4/4 10/10/10 7/7/7
f 7/7/7 10/10/10 11/11/11
f 12/12/12 8/8/8 11/11/11
f 12/12/12 6/6/6 8/8/8
f 10/10/10 13/13/13 11/11/11
f 13/13/13 12/12/12 11/11/11
f 13/13/13 10/10/10 14/14/14
f 12/12/12 13/13/13 14/14/14
f 4/4/4 15/15/15 10/10/10
f 10/10/10 16/16/16 14/14/14
f 15/15/15 16/16/16 10/10/10
f 9/9/9 17/17/17 4/4/4
f 15/15/15 4/4/4 18/18/18
f 4/4/4 17/17/17 18/18/18
f 15/15/15 19/19/19 16/16/16
f 18/18/18 20/20/20 15/15/15
f 20/20/20 19/19/19 15/15/15
f 17/17/17 21/21/21 18/18/18
f 18/18/18 21/21/21 20/20/20
f 9/9/9 22/22/22 17/17/17
f 22/22/22 21/21/21 17/17/17
f 23/23/23 9/9/9 6/6/6
f 22/22/22 9/9/9 23/23/23
f 16/16/16 24/24/24 14/14/14
f 19/19/19 24/24/24 16/16/16
f 24/24/24 25/25/25 14/14/14
f 25/25/25 24/24/24 19/19/19
f 21/21/21 26/26/26 20/20/20
f 22/22/22 27/27/27 21/21/21
f 27/27/27 26/26/26 21/21/21
f 28/28/28 22/22/22 23/23/23
f 27/27/27 22/22/22 28/28/28
f 23/23/23 6/6/6 29/29/29
f 28/28/28 23/23/23 29/29/29
f 20/20/20 30/30/30 19/19/19
f 26/26/26 30/30/30 20/20/20
f 6/6/6 31/31/31 29/29/29
f 31/31/31 6/6/6 12/12/12
f 32/32/32 12/12/12 14/14/14
f 32/32/32 31/31/31 12/12/12
f 28/28/28 29/29/29 33/33/33
f 33/33/33 29/29/29 31/31/31
f 34/34/34 27/27/27 28/28/28
f 34/34/34 28/28/28 33/33/33
f 30/30/30 35/35/35 19/19/19
f 25/25/25 19/19/19 35/35/35
f 25/25/25 36/36/36 14/14/14
f 37/37/37 32/32/32 14/14/14
f 36/36/36 38/38/38 14/14/14
f 39/39/39 31/31/31 32/32/32
f 39/39/39 33/33/33 31/31/31
f 37/37/37 39/39/39 32/32/32
f 25/25/25 40/40/40 36/36/36
f 40/40/40 25/25/25 35/35/35
f 36/36/36 40/40/40 38/38/38
f 30/30/30 41/41/41 35/35/35
f 26/26/26 41/41/41 30/30/30
f 42/42/42 41/41/41 26/26/26
f 41/41/41 43/43/43 35/35/35
f 40/40/40 35/35/35 43/43/43
f 43/43/43 41/41/41 42/42/42
f 40/40/40 44/44/44 38/38/38
f 44/44/44 40/40/40 43/43/43
f 45/45/45 33/33/33 39/39/39
f 45/45/45 34/34/34 33/33/33
f 37/37/37 46/46/46 39/39/39
f 46/46/46 37/37/37 14/14/14
f 47/47/47 45/45/45 39/39/39
f 39/39/39 46/46/46 47/47/47
f 48/48/48 42/42/42 26/26/26
f 42/42/42 48/48/48 34/34/34
f 27/27/27 48/48/48 26/26/26
f 48/48/48 27/27/27 34/34/34
f 49/49/49 34/34/34 45/45/45
f 49/49/49 45/45/45 47/47/47
f 49/49/49 42/42/42 34/34/34
f 50/50/50 43/43/43 42/42/42
f 44/44/44 43/43/43 50/50/50
f 49/49/49 51/51/51 42/42/42
f 51/51/51 49/49/49 47/47/47
f 51/51/51 50/50/50 42/42/42
f 46/46/46 52/52/52 47/47/47
f 47/47/47 52/52/52 51/51/51
f 51/51/51 53/53/53 50/50/50
f 52/52/52 53/53/53 51/51/51
f 54/54/54 44/44/44 50/50/50
f 53/53/53 54/54/54 50/50/50
f 52/52/52 46/46/46 55/55/55
f 55/55/55 46/46/46 14/14/14
f 52/52/52 55/55/55 56/56/56
f 53/53/53 52/52/52 56/56/56
f 56/56/56 55/55/55 14/14/14
f 53/53/53 56/56/56 57/57/57
f 54/54/54 53/53/53 57/57/57
f 57/57/57 56/56/56 14/14/14
f 44/44/44 54/54/54 58/58/58
f 38/38/38 44/44/44 58/58/58
f 38/38/38 58/58/58 14/14/14
f 59/59/59 57/57/57 14/14/14
f 59/59/59 54/54/54 57/57/57
f 58/58/58 59/59/59 14/14/14
f 54/54/54 59/59/59 58/58/58
