g hat_StrawHat
v 0.2697178 5.07958 0.6750755
v 0.3444856 5.229115 -0.2357324
v 0.6639482 4.998015 0.2536569
v 0.0793997 4.705741 -0.9358311
v -0.4303808 4.692147 -0.7998896
v -0.4643662 4.338699 -0.9630194
v 0.0793997 4.35909 -1.098961
v -0.4643662 4.338699 -0.9630194
v -0.627496 4.325105 -1.642727
v -1.429551 4.24354 -1.064976
v -0.8857849 4.277525 -0.5891804
v 0.3648769 4.325105 -1.697104
v 0.04541433 4.209554 -0.004631877
v -1.789796 4.100801 -0.1473705
v 1.228105 4.236742 -1.214511
v 0.6027745 4.352293 -0.9698165
v 0.0793997 4.705741 -0.9358311
v -1.069306 4.182366 -0.0522114
v -1.001335 4.549408 0.0293535
v -1.592681 3.937671 0.811017
v -0.9741468 4.107598 0.443975
v 0.9698165 4.291119 -0.561992
v 0.5687891 4.698944 -0.7727014
v 1.690306 4.087207 -0.3512827
v 0.06580555 4.943638 -0.6979336
v -0.4303808 4.692147 -0.7998896
v -0.355613 4.923247 -0.5823833
v 1.051381 4.161975 0.1245126
v 1.608742 3.930874 0.6206989
v 0.9086428 4.094004 0.6003077
v 0.9834107 4.535814 0.1856861
v 0.9018458 4.63777 -0.378471
v 1.051381 4.161975 0.1245126
v 0.738716 4.875668 -0.2153412
v 0.466833 4.923247 -0.5416008
v 0.04541433 5.256304 -0.3920652
v -0.355613 4.923247 -0.5823833
v 1.003802 3.808527 1.395566
v 0.3444856 5.229115 -0.2357324
v 0.6639482 4.998015 0.2536569
v 0.2697178 5.07958 0.6750755
v 0.8134838 4.8009 0.2264686
v -0.04294765 5.045595 0.6954668
v 0.8474692 4.47464 0.6342931
v 0.6707453 4.739726 0.5867136
v 0.5008184 4.026033 1.008132
v 0.0793997 3.760947 1.776202
v 0.4532388 4.40667 0.9945381
v -0.899379 3.815324 1.511116
v -0.0837301 3.998845 1.116885
v -0.6206989 4.026033 0.9129732
v -0.07693303 4.386278 1.096494
v -0.5731194 4.420264 0.9061761
v -0.07693303 4.692147 0.9265673
v -0.8789878 4.47464 0.4847574
v -0.4711633 4.705741 0.7974229
v 0.378471 4.698944 0.8721907
v 0.2697178 5.07958 0.6750755
v 0.6639482 4.998015 0.2536569
v 0.8134838 4.8009 0.2264686
v -0.7226551 4.75332 0.443975
v -0.355613 5.099971 0.627496
v -0.2740481 5.249507 -0.283312
v -0.6614814 5.018406 0.1517007
v -0.8246112 4.814494 0.09052718
v -0.6750755 4.882465 -0.3308915
v -0.8178141 4.63777 -0.4804271
v -0.4303808 4.692147 -0.7998896
v -0.4643662 4.338699 -0.9630194
v 0.5280067 3.24437 -0.3308915
v 0.5280067 3.203588 -0.19495
v 0.7183248 3.325934 -0.1677617
v 0.7183248 3.35992 -0.2969061
v 0.1745588 3.128819 -0.3580798
v 0.1745588 3.094834 -0.2289354
v 0.378471 3.142414 -0.2153412
v 0.378471 3.176399 -0.3444856
v 1.03099 3.842512 -0.1813558
v 1.03099 3.808527 -0.04541433
v 1.07857 4.094004 0.02255642
v 1.07857 4.127989 -0.106588
v 0.7183248 3.35992 -0.2969061
v 0.7183248 3.325934 -0.1677617
v 0.9018458 3.529847 -0.1201822
v 0.9018458 3.563832 -0.2493266
v 0.378471 3.176399 -0.3444856
v 0.378471 3.142414 -0.2153412
v 0.5280067 3.203588 -0.19495
v 0.5280067 3.24437 -0.3308915
v 0.9018458 3.563832 -0.2493266
v 0.9018458 3.529847 -0.1201822
v 1.03099 3.808527 -0.04541433
v 1.03099 3.842512 -0.1813558
v 0.1745588 3.128819 -0.3580798
v -0.002165198 3.094834 -0.2289354
v 0.1745588 3.094834 -0.2289354
v -0.002165198 3.128819 -0.3580798
v -0.172092 3.128819 -0.3580798
v -0.172092 3.094834 -0.2289354
v 1.024193 4.100801 0.02255642
v 1.07857 4.094004 0.02255642
v 1.03099 3.808527 -0.04541433
v 0.9834107 3.822121 -0.04541433
v 0.9018458 3.529847 -0.1201822
v 0.8610633 3.557035 -0.1133851
v 0.7183248 3.325934 -0.1677617
v 0.6843394 3.366717 -0.1609646
v 0.5280067 3.203588 -0.19495
v 0.5008184 3.251167 -0.1881529
v 0.378471 3.142414 -0.2153412
v 0.3648769 3.189993 -0.2017471
v 0.1745588 3.094834 -0.2289354
v 0.1677617 3.142414 -0.2153412
v -0.002165198 3.094834 -0.2289354
v -0.002165198 3.142414 -0.2153412
v -0.1652949 3.142414 -0.2153412
v -0.172092 3.094834 -0.2289354
v -0.3624101 3.189993 -0.2017471
v -0.3760042 3.142414 -0.2153412
v -0.5051486 3.251167 -0.1881529
v -0.5255399 3.203588 -0.19495
v -0.6818726 3.366717 -0.1609646
v -0.715858 3.325934 -0.1677617
v -0.8585966 3.557035 -0.1133851
v -0.9061761 3.529847 -0.1201822
v -0.987741 3.822121 -0.04541433
v -1.035321 3.808527 -0.04541433
v -1.028523 4.100801 0.02255642
v -1.076103 4.094004 0.02255642
v 0.9834107 3.856106 -0.1745588
v 1.07857 4.127989 -0.106588
v 1.024193 4.134787 -0.106588
v 1.03099 3.842512 -0.1813558
v 0.8610633 3.591021 -0.2425295
v 0.9018458 3.563832 -0.2493266
v 0.6843394 3.400702 -0.290109
v 0.7183248 3.35992 -0.2969061
v 0.5008184 3.285152 -0.3172973
v 0.5280067 3.24437 -0.3308915
v 0.3648769 3.223979 -0.3308915
v 0.378471 3.176399 -0.3444856
v 0.1677617 3.176399 -0.3444856
v 0.1745588 3.128819 -0.3580798
v -0.002165198 3.176399 -0.3444856
v -0.002165198 3.128819 -0.3580798
v -0.172092 3.128819 -0.3580798
v -0.1652949 3.176399 -0.3444856
v -0.3760042 3.176399 -0.3444856
v -0.3624101 3.223979 -0.3308915
v -0.5255399 3.24437 -0.3308915
v -0.5051486 3.285152 -0.3172973
v -0.715858 3.35992 -0.2969061
v -0.6818726 3.400702 -0.290109
v -0.9061761 3.563832 -0.2493266
v -0.8585966 3.591021 -0.2425295
v -1.035321 3.842512 -0.1813558
v -0.987741 3.856106 -0.1745588
v -1.076103 4.127989 -0.106588
v -1.028523 4.134787 -0.106588
v -0.5255399 3.24437 -0.3308915
v -0.715858 3.35992 -0.2969061
v -0.715858 3.325934 -0.1677617
v -0.5255399 3.203588 -0.19495
v -0.172092 3.128819 -0.3580798
v -0.3760042 3.176399 -0.3444856
v -0.3760042 3.142414 -0.2153412
v -0.172092 3.094834 -0.2289354
v -1.035321 3.842512 -0.1813558
v -1.076103 4.127989 -0.106588
v -1.076103 4.094004 0.02255642
v -1.035321 3.808527 -0.04541433
v -0.715858 3.35992 -0.2969061
v -0.9061761 3.563832 -0.2493266
v -0.9061761 3.529847 -0.1201822
v -0.715858 3.325934 -0.1677617
v -0.3760042 3.176399 -0.3444856
v -0.5255399 3.24437 -0.3308915
v -0.5255399 3.203588 -0.19495
v -0.3760042 3.142414 -0.2153412
v -0.9061761 3.563832 -0.2493266
v -1.035321 3.842512 -0.1813558
v -1.035321 3.808527 -0.04541433
v -0.9061761 3.529847 -0.1201822
vt 0.09668046 0.9694196
vt 0.09668046 0.9694196
vt 0.09668046 0.9694196
vt 0.09668046 0.9694196
vt 0.09668046 0.9694196
vt 0.09668046 0.9694196
vt 0.09668046 0.9694196
vt 0.09668046 0.9694196
vt 0.09668046 0.9694196
vt 0.09668046 0.9694196
vt 0.09668046 0.9694196
vt 0.09668046 0.9694196
vt 0.09668046 0.9694196
vt 0.09668046 0.9694196
vt 0.09668046 0.9694196
vt 0.09668046 0.9694196
vt 0.09668046 0.9694196
vt 0.09668046 0.9694196
vt 0.09668046 0.9694196
vt 0.09668046 0.9694196
vt 0.09668046 0.9694196
vt 0.09668046 0.9694196
vt 0.09668046 0.9694196
vt 0.09668046 0.9694196
vt 0.09668046 0.9694196
vt 0.09668046 0.9694196
vt 0.09668046 0.9694196
vt 0.09668046 0.9694196
vt 0.09668046 0.9694196
vt 0.09668046 0.9694196
vt 0.09668046 0.9694196
vt 0.09668046 0.9694196
vt 0.09668046 0.9694196
vt 0.09668046 0.9694196
vt 0.09668046 0.9694196
vt 0.09668046 0.9694196
vt 0.09668046 0.9694196
vt 0.09668046 0.9694196
vt 0.09668046 0.9694196
vt 0.09668046 0.9694196
vt 0.09668046 0.9694196
vt 0.09668046 0.9694196
vt 0.09668046 0.9694196
vt 0.09668046 0.9694196
vt 0.09668046 0.9694196
vt 0.09668046 0.9694196
vt 0.09668046 0.9694196
vt 0.09668046 0.9694196
vt 0.09668046 0.9694196
vt 0.09668046 0.9694196
vt 0.09668046 0.9694196
vt 0.09668046 0.9694196
vt 0.09668046 0.9694196
vt 0.09668046 0.9694196
vt 0.09668046 0.9694196
vt 0.09668046 0.9694196
vt 0.09668046 0.9694196
vt 0.09668046 0.9694196
vt 0.09668046 0.9694196
vt 0.09668046 0.9694196
vt 0.09668046 0.9694196
vt 0.09668046 0.9694196
vt 0.09668046 0.9694196
vt 0.09668046 0.9694196
vt 0.09668046 0.9694196
vt 0.09668046 0.9694196
vt 0.09668046 0.9694196
vt 0.09668046 0.9694196
vt 0.09668046 0.9694196
vt 0.09668046 0.02641757
vt 0.09668046 0.02641757
vt 0.09668046 0.02641757
vt 0.09668046 0.02641757
vt 0.09668046 0.02641757
vt 0.09668046 0.02641757
vt 0.09668046 0.02641757
vt 0.09668046 0.02641757
vt 0.09668046 0.02641757
vt 0.09668046 0.02641757
vt 0.09668046 0.02641757
vt 0.09668046 0.02641757
vt 0.09668046 0.02641757
vt 0.09668046 0.02641757
vt 0.09668046 0.02641757
vt 0.09668046 0.02641757
vt 0.09668046 0.02641757
vt 0.09668046 0.02641757
vt 0.09668046 0.02641757
vt 0.09668046 0.02641757
vt 0.09668046 0.02641757
vt 0.09668046 0.02641757
vt 0.09668046 0.02641757
vt 0.09668046 0.02641757
vt 0.09668046 0.02641757
vt 0.09668046 0.02641757
vt 0.09668046 0.02641757
vt 0.09668046 0.02641757
vt 0.09668046 0.02641757
vt 0.09668046 0.02641757
vt 0.09668046 0.02641757
vt 0.09668046 0.02641757
vt 0.09668046 0.02641757
vt 0.09668046 0.02641757
vt 0.09668046 0.02641757
vt 0.09668046 0.02641757
vt 0.09668046 0.02641757
vt 0.09668046 0.02641757
vt 0.09668046 0.02641757
vt 0.09668046 0.02641757
vt 0.09668046 0.02641757
vt 0.09668046 0.02641757
vt 0.09668046 0.02641757
vt 0.09668046 0.02641757
vt 0.09668046 0.02641757
vt 0.09668046 0.02641757
vt 0.09668046 0.02641757
vt 0.09668046 0.02641757
vt 0.09668046 0.02641757
vt 0.09668046 0.02641757
vt 0.09668046 0.02641757
vt 0.09668046 0.02641757
vt 0.09668046 0.02641757
vt 0.09668046 0.02641757
vt 0.09668046 0.02641757
vt 0.09668046 0.02641757
vt 0.09668046 0.02641757
vt 0.09668046 0.02641757
vt 0.09668046 0.02641757
vt 0.09668046 0.02641757
vt 0.09668046 0.02641757
vt 0.09668046 0.02641757
vt 0.09668046 0.02641757
vt 0.09668046 0.02641757
vt 0.09668046 0.02641757
vt 0.09668046 0.02641757
vt 0.09668046 0.02641757
vt 0.09668046 0.02641757
vt 0.09668046 0.02641757
vt 0.09668046 0.02641757
vt 0.09668046 0.02641757
vt 0.09668046 0.02641757
vt 0.09668046 0.02641757
vt 0.09668046 0.02641757
vt 0.09668046 0.02641757
vt 0.09668046 0.02641757
vt 0.09668046 0.02641757
vt 0.09668046 0.02641757
vt 0.09668046 0.02641757
vt 0.09668046 0.02641757
vt 0.09668046 0.02641757
vt 0.09668046 0.02641757
vt 0.09668046 0.02641757
vt 0.09668046 0.02641757
vt 0.09668046 0.02641757
vt 0.09668046 0.02641757
vt 0.09668046 0.02641757
vt 0.09668046 0.02641757
vt 0.09668046 0.02641757
vt 0.09668046 0.02641757
vt 0.09668046 0.02641757
vt 0.09668046 0.02641757
vt 0.09668046 0.02641757
vt 0.09668046 0.02641757
vt 0.09668046 0.02641757
vt 0.09668046 0.02641757
vt 0.09668046 0.02641757
vt 0.09668046 0.02641757
vt 0.09668046 0.02641757
vt 0.09668046 0.02641757
vt 0.09668046 0.02641757
vt 0.09668046 0.02641757
vt 0.09668046 0.02641757
vt 0.09668046 0.02641757
vt 0.09668046 0.02641757
vt 0.09668046 0.02641757
vt 0.09668046 0.02641757
vt 0.09668046 0.02641757
vt 0.09668046 0.02641757
vt 0.09668046 0.02641757
vt 0.09668046 0.02641757
vt 0.09668046 0.02641757
vt 0.09668046 0.02641757
vt 0.09668046 0.02641757
vn 0.2661207 0.8030775 0.5331475
vn 0.3604617 0.9288656 -0.08529981
vn 0.6434848 0.7401835 0.1950784
vn 0.01454467 0.5829485 -0.8123789
vn -0.4257135 0.5515015 -0.7173662
vn -0.2684785 0.8659716 -0.4219153
vn 0.01454467 0.8659716 -0.4998816
vn -0.2684785 0.8659716 -0.4219153
vn -0.3942664 0.04834932 -0.9177235
vn -0.8345246 -0.01454467 -0.5507787
vn -0.5200545 0.8345246 -0.1819672
vn 0.1403327 0.01690239 -0.9899601
vn -0.01690239 -0.9894019 -0.144216
vn -0.9917596 -0.07743865 -0.1020596
vn 0.6749318 -0.04599166 -0.7364454
vn 0.3290147 0.8659716 -0.3766198
vn 0.01454467 0.5829485 -0.8123789
vn -0.6143956 0.7716306 0.1646339
vn -0.9205098 0.3907197 0
vn -0.8974186 -0.1717797 0.4063639
vn -0.5829485 0.7087365 0.3973205
vn 0.5805908 0.8030775 -0.1340926
vn 0.4862497 0.5829485 -0.6509472
vn 0.9894019 -0.1088856 -0.09606179
vn 0.04599166 0.7401835 -0.6708301
vn -0.4257135 0.5515015 -0.7173662
vn -0.3628195 0.6772895 -0.6400319
vn 0.6749318 0.7087365 0.2053282
vn 0.9265078 -0.2032267 0.3166736
vn 0.5805908 0.6772895 0.4518774
vn 0.9265078 0.3628195 0.09972599
vn 0.8321669 0.4886075 -0.2622233
vn 0.6749318 0.7087365 0.2053282
vn 0.7378258 0.6458425 -0.1962156
vn 0.4548028 0.7087365 -0.5393024
vn 0.04599166 0.9288656 -0.3675506
vn -0.3628195 0.6772895 -0.6400319
vn 0.5491438 -0.2661207 0.7922252
vn 0.3604617 0.9288656 -0.08529981
vn 0.6434848 0.7401835 0.1950784
vn 0.2661207 0.8030775 0.5331475
vn 0.7692728 0.6143956 0.1753209
vn -0.01690239 0.8030775 0.5956348
vn 0.8007199 0.2999254 0.5185484
vn 0.6749318 0.5200545 0.52346
vn 0.2975677 0.6458425 0.7030938
vn 0.01454467 -0.2661207 0.9638299
vn 0.4233558 0.2684785 0.8652683
vn -0.5515015 -0.2346737 0.8004839
vn -0.04834932 0.6458425 0.7619382
vn -0.3628195 0.6772895 0.6400319
vn -0.07979637 0.2370314 0.9682193
vn -0.5515015 0.2684785 0.7897882
vn -0.07979637 0.4886075 0.8688471
vn -0.8345246 0.2999254 0.4621834
vn -0.4886075 0.4886075 0.7228593
vn 0.3604617 0.4886075 0.7945629
vn 0.2661207 0.8030775 0.5331475
vn 0.6434848 0.7401835 0.1950784
vn 0.7692728 0.6143956 0.1753209
vn -0.7401835 0.4886075 0.4619427
vn -0.3313724 0.8030775 0.4952361
vn -0.2999254 0.9288656 -0.2173787
vn -0.6458425 0.7401835 0.1871251
vn -0.7942254 0.6076232 0
vn -0.6458425 0.6772895 -0.3523724
vn -0.7716306 0.4571604 -0.4422563
vn -0.4257135 0.5515015 -0.7173662
vn -0.2684785 0.8659716 -0.4219153
vn 0.5491438 -0.8007199 -0.2393508
vn 0.5491438 -0.8007199 -0.2393508
vn 0.5491438 -0.8007199 -0.2393508
vn 0.5491438 -0.8007199 -0.2393508
vn 0.2346737 -0.9265078 -0.2941284
vn 0.2346737 -0.9265078 -0.2941284
vn 0.2346737 -0.9265078 -0.2941284
vn 0.2346737 -0.9265078 -0.2941284
vn 0.9894019 -0.1403327 -0.03729188
vn 0.9894019 -0.1403327 -0.03729188
vn 0.9894019 -0.1403327 -0.03729188
vn 0.9894019 -0.1403327 -0.03729188
vn 0.7378258 -0.6434848 -0.2038145
vn 0.7378258 -0.6434848 -0.2038145
vn 0.7378258 -0.6434848 -0.2038145
vn 0.7378258 -0.6434848 -0.2038145
vn 0.4233558 -0.8636138 -0.2737536
vn 0.4233558 -0.8636138 -0.2737536
vn 0.4233558 -0.8636138 -0.2737536
vn 0.4233558 -0.8636138 -0.2737536
vn 0.8950608 -0.3919087 -0.212776
vn 0.8950608 -0.3919087 -0.212776
vn 0.8950608 -0.3919087 -0.212776
vn 0.8950608 -0.3919087 -0.212776
vn 0.01454467 -0.9579549 -0.28655
vn 0.01454467 -0.9579549 -0.28655
vn 0.01454467 -0.9579549 -0.28655
vn 0.01454467 -0.9579549 -0.28655
vn -0.01690239 -0.9579549 -0.2864206
vn -0.01690239 -0.9579549 -0.2864206
vn 0.01454467 -0.2346737 0.9719654
vn 0.01454467 -0.2346737 0.9719654
vn 0.01454467 -0.2346737 0.9719654
vn 0.01454467 -0.2346737 0.9719654
vn 0.01454467 -0.2346737 0.9719654
vn 0.01454467 -0.2346737 0.9719654
vn 0.01454467 -0.2346737 0.9719654
vn 0.01454467 -0.2346737 0.9719654
vn 0.01454467 -0.2346737 0.9719654
vn 0.01454467 -0.2346737 0.9719654
vn 0.01454467 -0.2346737 0.9719654
vn 0.01454467 -0.2346737 0.9719654
vn 0.01454467 -0.2346737 0.9719654
vn 0.01454467 -0.2346737 0.9719654
vn 0.01454467 -0.2346737 0.9719654
vn 0.01454467 -0.2346737 0.9719654
vn 0.01454467 -0.2346737 0.9719654
vn 0.01454467 -0.2346737 0.9719654
vn 0.01454467 -0.2346737 0.9719654
vn 0.01454467 -0.2346737 0.9719654
vn 0.01454467 -0.2346737 0.9719654
vn 0.01454467 -0.2346737 0.9719654
vn 0.01454467 -0.2346737 0.9719654
vn 0.01454467 -0.2346737 0.9719654
vn 0.01454467 -0.2346737 0.9719654
vn 0.01454467 -0.2346737 0.9719654
vn 0.01454467 -0.2346737 0.9719654
vn 0.01454467 -0.2346737 0.9719654
vn 0.01454467 -0.2346737 0.9719654
vn 0.01454467 -0.2346737 0.9719654
vn 0.01454467 0.2370314 -0.9713931
vn 0.01454467 0.2370314 -0.9713931
vn 0.01454467 0.2370314 -0.9713931
vn 0.01454467 0.2370314 -0.9713931
vn 0.01454467 0.2370314 -0.9713931
vn 0.01454467 0.2370314 -0.9713931
vn 0.01454467 0.2370314 -0.9713931
vn 0.01454467 0.2370314 -0.9713931
vn 0.01454467 0.2370314 -0.9713931
vn 0.01454467 0.2370314 -0.9713931
vn 0.01454467 0.2370314 -0.9713931
vn 0.01454467 0.2370314 -0.9713931
vn 0.01454467 0.2370314 -0.9713931
vn 0.01454467 0.2370314 -0.9713931
vn 0.01454467 0.2370314 -0.9713931
vn 0.01454467 0.2370314 -0.9713931
vn 0.01454467 0.2370314 -0.9713931
vn 0.01454467 0.2370314 -0.9713931
vn 0.01454467 0.2370314 -0.9713931
vn 0.01454467 0.2370314 -0.9713931
vn 0.01454467 0.2370314 -0.9713931
vn 0.01454467 0.2370314 -0.9713931
vn 0.01454467 0.2370314 -0.9713931
vn 0.01454467 0.2370314 -0.9713931
vn 0.01454467 0.2370314 -0.9713931
vn 0.01454467 0.2370314 -0.9713931
vn 0.01454467 0.2370314 -0.9713931
vn 0.01454467 0.2370314 -0.9713931
vn 0.01454467 0.2370314 -0.9713931
vn 0.01454467 0.2370314 -0.9713931
vn -0.5515015 -0.8007199 -0.2338672
vn -0.5515015 -0.8007199 -0.2338672
vn -0.5515015 -0.8007199 -0.2338672
vn -0.5515015 -0.8007199 -0.2338672
vn -0.2370314 -0.9265078 -0.2922317
vn -0.2370314 -0.9265078 -0.2922317
vn -0.2370314 -0.9265078 -0.2922317
vn -0.2370314 -0.9265078 -0.2922317
vn -0.9901369 -0.1401031 0
vn -0.9901369 -0.1401031 0
vn -0.9901369 -0.1401031 0
vn -0.9901369 -0.1401031 0
vn -0.7401835 -0.6434848 -0.1950785
vn -0.7401835 -0.6434848 -0.1950785
vn -0.7401835 -0.6434848 -0.1950785
vn -0.7401835 -0.6434848 -0.1950785
vn -0.4257135 -0.8636138 -0.2700725
vn -0.4257135 -0.8636138 -0.2700725
vn -0.4257135 -0.8636138 -0.2700725
vn -0.4257135 -0.8636138 -0.2700725
vn -0.8974186 -0.3919087 -0.2026018
vn -0.8974186 -0.3919087 -0.2026018
vn -0.8974186 -0.3919087 -0.2026018
vn -0.8974186 -0.3919087 -0.2026018
g hat_StrawHat_0
f 3/3/3 2/2/2 1/1/1
f 6/6/6 5/5/5 4/4/4
f 7/7/7 6/6/6 4/4/4
f 9/9/9 8/8/8 7/7/7
f 9/9/9 10/10/10 8/8/8
f 10/10/10 11/11/11 8/8/8
f 12/12/12 9/9/9 7/7/7
f 9/9/9 13/13/13 10/10/10
f 12/12/12 13/13/13 9/9/9
f 10/10/10 13/13/13 14/14/14
f 13/13/13 12/12/12 15/15/15
f 7/7/7 16/16/16 12/12/12
f 16/16/16 15/15/15 12/12/12
f 16/16/16 7/7/7 17/17/17
f 10/10/10 14/14/14 18/18/18
f 11/11/11 10/10/10 18/18/18
f 18/18/18 19/19/19 11/11/11
f 14/14/14 20/20/20 18/18/18
f 13/13/13 20/20/20 14/14/14
f 19/19/19 18/18/18 21/21/21
f 20/20/20 21/21/21 18/18/18
f 16/16/16 22/22/22 15/15/15
f 23/23/23 16/16/16 17/17/17
f 16/16/16 23/23/23 22/22/22
f 15/15/15 24/24/24 13/13/13
f 22/22/22 24/24/24 15/15/15
f 17/17/17 25/25/25 23/23/23
f 17/17/17 26/26/26 25/25/25
f 26/26/26 27/27/27 25/25/25
f 28/28/28 24/24/24 22/22/22
f 28/28/28 29/29/29 24/24/24
f 13/13/13 24/24/24 29/29/29
f 30/30/30 29/29/29 28/28/28
f 28/28/28 31/31/31 30/30/30
f 23/23/23 32/32/32 22/22/22
f 33/33/33 22/22/22 32/32/32
f 31/31/31 33/33/33 32/32/32
f 34/34/34 32/32/32 23/23/23
f 32/32/32 34/34/34 31/31/31
f 25/25/25 35/35/35 23/23/23
f 35/35/35 34/34/34 23/23/23
f 35/35/35 25/25/25 36/36/36
f 36/36/36 25/25/25 37/37/37
f 13/13/13 29/29/29 38/38/38
f 38/38/38 29/29/29 30/30/30
f 34/34/34 35/35/35 39/39/39
f 39/39/39 35/35/35 36/36/36
f 34/34/34 39/39/39 40/40/40
f 39/39/39 36/36/36 41/41/41
f 42/42/42 34/34/34 40/40/40
f 34/34/34 42/42/42 31/31/31
f 36/36/36 43/43/43 41/41/41
f 31/31/31 42/42/42 44/44/44
f 31/31/31 44/44/44 30/30/30
f 42/42/42 45/45/45 44/44/44
f 46/46/46 38/38/38 30/30/30
f 30/30/30 44/44/44 46/46/46
f 47/47/47 13/13/13 38/38/38
f 47/47/47 38/38/38 46/46/46
f 44/44/44 48/48/48 46/46/46
f 48/48/48 44/44/44 45/45/45
f 13/13/13 47/47/47 49/49/49
f 13/13/13 49/49/49 20/20/20
f 50/50/50 47/47/47 46/46/46
f 47/47/47 50/50/50 49/49/49
f 46/46/46 48/48/48 50/50/50
f 49/49/49 51/51/51 20/20/20
f 50/50/50 51/51/51 49/49/49
f 51/51/51 21/21/21 20/20/20
f 50/50/50 52/52/52 51/51/51
f 48/48/48 52/52/52 50/50/50
f 51/51/51 53/53/53 21/21/21
f 52/52/52 53/53/53 51/51/51
f 54/54/54 52/52/52 48/48/48
f 52/52/52 54/54/54 53/53/53
f 53/53/53 55/55/55 21/21/21
f 55/55/55 19/19/19 21/21/21
f 53/53/53 56/56/56 55/55/55
f 54/54/54 56/56/56 53/53/53
f 57/57/57 54/54/54 48/48/48
f 57/57/57 48/48/48 45/45/45
f 43/43/43 54/54/54 57/57/57
f 54/54/54 43/43/43 56/56/56
f 58/58/58 57/57/57 45/45/45
f 58/58/58 43/43/43 57/57/57
f 58/58/58 45/45/45 59/59/59
f 45/45/45 60/60/60 59/59/59
f 56/56/56 61/61/61 55/55/55
f 55/55/55 61/61/61 19/19/19
f 43/43/43 62/62/62 56/56/56
f 56/56/56 62/62/62 61/61/61
f 62/62/62 43/43/43 63/63/63
f 43/43/43 36/36/36 63/63/63
f 63/63/63 36/36/36 37/37/37
f 62/62/62 64/64/64 61/61/61
f 64/64/64 62/62/62 63/63/63
f 64/64/64 65/65/65 61/61/61
f 65/65/65 64/64/64 63/63/63
f 61/61/61 65/65/65 19/19/19
f 66/66/66 65/65/65 63/63/63
f 66/66/66 63/63/63 37/37/37
f 65/65/65 66/66/66 19/19/19
f 66/66/66 37/37/37 67/67/67
f 66/66/66 67/67/67 19/19/19
f 37/37/37 68/68/68 67/67/67
f 19/19/19 67/67/67 11/11/11
f 11/11/11 67/67/67 68/68/68
f 69/69/69 11/11/11 68/68/68
f 72/72/72 71/71/71 70/70/70
f 73/73/73 72/72/72 70/70/70
f 76/76/76 75/75/75 74/74/74
f 77/77/77 76/76/76 74/74/74
f 80/80/80 79/79/79 78/78/78
f 81/81/81 80/80/80 78/78/78
f 84/84/84 83/83/83 82/82/82
f 85/85/85 84/84/84 82/82/82
f 88/88/88 87/87/87 86/86/86
f 89/89/89 88/88/88 86/86/86
f 92/92/92 91/91/91 90/90/90
f 93/93/93 92/92/92 90/90/90
f 96/96/96 95/95/95 94/94/94
f 95/95/95 97/97/97 94/94/94
f 97/97/97 95/95/95 98/98/98
f 95/95/95 99/99/99 98/98/98
f 102/102/102 101/101/101 100/100/100
f 103/103/103 102/102/102 100/100/100
f 104/104/104 102/102/102 103/103/103
f 105/105/105 104/104/104 103/103/103
f 106/106/106 104/104/104 105/105/105
f 107/107/107 106/106/106 105/105/105
f 108/108/108 106/106/106 107/107/107
f 109/109/109 108/108/108 107/107/107
f 110/110/110 108/108/108 109/109/109
f 111/111/111 110/110/110 109/109/109
f 112/112/112 110/110/110 111/111/111
f 113/113/113 112/112/112 111/111/111
f 114/114/114 112/112/112 113/113/113
f 115/115/115 114/114/114 113/113/113
f 114/114/114 115/115/115 116/116/116
f 117/117/117 114/114/114 116/116/116
f 117/117/117 116/116/116 118/118/118
f 119/119/119 117/117/117 118/118/118
f 119/119/119 118/118/118 120/120/120
f 121/121/121 119/119/119 120/120/120
f 121/121/121 120/120/120 122/122/122
f 123/123/123 121/121/121 122/122/122
f 123/123/123 122/122/122 124/124/124
f 125/125/125 123/123/123 124/124/124
f 125/125/125 124/124/124 126/126/126
f 127/127/127 125/125/125 126/126/126
f 127/127/127 126/126/126 128/128/128
f 129/129/129 127/127/127 128/128/128
f 132/132/132 131/131/131 130/130/130
f 131/131/131 133/133/133 130/130/130
f 130/130/130 133/133/133 134/134/134
f 133/133/133 135/135/135 134/134/134
f 134/134/134 135/135/135 136/136/136
f 135/135/135 137/137/137 136/136/136
f 136/136/136 137/137/137 138/138/138
f 137/137/137 139/139/139 138/138/138
f 138/138/138 139/139/139 140/140/140
f 139/139/139 141/141/141 140/140/140
f 140/140/140 141/141/141 142/142/142
f 141/141/141 143/143/143 142/142/142
f 142/142/142 143/143/143 144/144/144
f 143/143/143 145/145/145 144/144/144
f 145/145/145 146/146/146 144/144/144
f 146/146/146 147/147/147 144/144/144
f 146/146/146 148/148/148 147/147/147
f 148/148/148 149/149/149 147/147/147
f 148/148/148 150/150/150 149/149/149
f 150/150/150 151/151/151 149/149/149
f 150/150/150 152/152/152 151/151/151
f 152/152/152 153/153/153 151/151/151
f 152/152/152 154/154/154 153/153/153
f 154/154/154 155/155/155 153/153/153
f 154/154/154 156/156/156 155/155/155
f 156/156/156 157/157/157 155/155/155
f 156/156/156 158/158/158 157/157/157
f 158/158/158 159/159/159 157/157/157
f 162/162/162 161/161/161 160/160/160
f 163/163/163 162/162/162 160/160/160
f 166/166/166 165/165/165 164/164/164
f 167/167/167 166/166/166 164/164/164
f 170/170/170 169/169/169 168/168/168
f 171/171/171 170/170/170 168/168/168
f 174/174/174 173/173/173 172/172/172
f 175/175/175 174/174/174 172/172/172
f 178/178/178 177/177/177 176/176/176
f 179/179/179 178/178/178 176/176/176
f 182/182/182 181/181/181 180/180/180
f 183/183/183 182/182/182 180/180/180
