g hat_FaceMask_White
v -0.0005464554 3.024651 -0.662905
v -0.0005464554 3.04008 -0.3491799
v 0.5703303 3.184085 -0.2977495
v -0.5714233 3.184085 -0.2977495
v 0.3234647 3.09151 -0.5909024
v 0.6526189 3.245801 -0.5291861
v 0.5137569 3.394949 -0.8531972
v 0.9200566 3.544097 -0.225747
v 0.8943415 3.492667 -0.1383154
v 0.9303427 3.569812 -0.009739518
v 0.832625 3.487524 -0.5137569
v 0.9560579 3.641815 -0.05088389
v 0.971487 3.749818 0.08283508
v 0.9457718 3.703531 0.1394085
v 1.012631 3.847536 0.1496944
v 0.9817731 3.832107 0.2319831
v 1.048633 3.950397 0.0982641
v 1.038346 4.032685 0.1702666
v 1.079491 3.996684 -0.0303117
v 1.079491 4.104688 0.02111864
v 1.064062 3.940111 -0.1897458
v 1.064062 4.063544 -0.1846027
v 0.9046276 3.893824 -0.524043
v 0.8994845 3.713817 -0.5291861
v 0.524043 3.749818 -0.9509149
v 0.5137569 3.873251 -0.9303427
v -0.0005464554 3.852679 -1.02806
v -0.0005464554 3.312661 -0.9406288
v -0.0005464554 3.729247 -1.156636
v -0.5199929 3.749818 -0.9509149
v -0.5148499 3.873251 -0.9303427
v -0.9057205 3.893824 -0.524043
v -0.5148499 3.394949 -0.8531972
v -0.9005775 3.713817 -0.5291861
v -1.060012 3.940111 -0.1897458
v -1.065155 4.063544 -0.1846027
v -1.075441 4.104688 0.02111864
v -1.080584 3.996684 -0.0303117
v -1.034297 4.032685 0.1702666
v -1.049726 3.950397 0.0982641
v -0.982866 3.832107 0.2319831
v -1.008581 3.847536 0.1496944
v -0.9468648 3.703531 0.1394085
v -0.97258 3.749818 0.08283508
v -0.9314358 3.569812 -0.009739518
v -0.9571509 3.641815 -0.05088389
v -0.9211497 3.544097 -0.225747
v -0.8954344 3.492667 -0.1383154
v -0.6485689 3.245801 -0.5291861
v -0.8337181 3.487524 -0.5137569
v -0.3245577 3.09151 -0.5909024
vt 0.5902443 0.02781676
vt 0.5902443 0.02781676
vt 0.5902443 0.02781676
vt 0.5902443 0.02781676
vt 0.5902443 0.02781676
vt 0.5902443 0.02781676
vt 0.5902443 0.02781676
vt 0.5902443 0.02781676
vt 0.5902443 0.02781676
vt 0.5902443 0.02781676
vt 0.5902443 0.02781676
vt 0.5902443 0.02781676
vt 0.5902443 0.02781676
vt 0.5902443 0.02781676
vt 0.5902443 0.02781676
vt 0.5902443 0.02781676
vt 0.5902443 0.02781676
vt 0.5902443 0.02781676
vt 0.5902443 0.02781676
vt 0.5902443 0.02781676
vt 0.5902443 0.02781676
vt 0.5902443 0.02781676
vt 0.5902443 0.02781676
vt 0.5902443 0.02781676
vt 0.5902443 0.02781676
vt 0.5902443 0.02781676
vt 0.5902443 0.02781676
vt 0.5902443 0.02781676
vt 0.5902443 0.02781676
vt 0.5902443 0.02781676
vt 0.5902443 0.02781676
vt 0.5902443 0.02781676
vt 0.5902443 0.02781676
vt 0.5902443 0.02781676
vt 0.5902443 0.02781676
vt 0.5902443 0.02781676
vt 0.5902443 0.02781676
vt 0.5902443 0.02781676
vt 0.5902443 0.02781676
vt 0.5902443 0.02781676
vt 0.5902443 0.02781676
vt 0.5902443 0.02781676
vt 0.5902443 0.02781676
vt 0.5902443 0.02781676
vt 0.5902443 0.02781676
vt 0.5902443 0.02781676
vt 0.5902443 0.02781676
vt 0.5902443 0.02781676
vt 0.5902443 0.02781676
vt 0.5902443 0.02781676
vt 0.5902443 0.02781676
vn -0.01584733 -0.9349908 -0.3543179
vn -0.01584733 -0.9983799 0.0546477
vn 0.5229609 -0.8399069 -0.1451489
vn -0.5229609 -0.8399069 -0.1451489
vn 0.3327934 -0.8716015 -0.3599436
vn 0.6180447 -0.6814339 -0.3920058
vn 0.4912663 -0.4912663 -0.719246
vn 0.8082123 -0.5863501 -0.05464743
vn 0.8344646 -0.5510616 0
vn 0.9349908 -0.3010987 0.1874349
vn 0.8399069 -0.3644879 -0.4021254
vn 0.931708 -0.3632082 0
vn 0.9349908 -0.3327934 0.1226411
vn 0.931708 -0.3632082 0
vn 0.9349908 -0.3010987 0.1874349
vn 0.9349908 -0.2694041 0.2306809
vn 0.9666854 -0.1109311 0.230681
vn 0.9349908 -0.1109311 0.3368777
vn 0.9983799 -0.01584733 0.05464749
vn 0.9983799 -0.01584733 0.05464749
vn 0.9666854 -0.01584733 -0.2554767
vn 0.9666854 0.01584733 -0.2554767
vn 0.8082123 0.04754186 -0.586969
vn 0.8082123 -0.1109311 -0.5783486
vn 0.5546556 0.01584733 -0.8319291
vn 0.4278771 0.2377095 -0.872018
vn -0.01584733 0.5546556 -0.8319291
vn 0.01584733 -0.5546556 -0.8319291
vn -0.01584733 0.1743203 -0.9845615
vn -0.5546556 0.01584733 -0.8319291
vn -0.4278771 0.2377095 -0.872018
vn -0.8082123 0.04754186 -0.5869691
vn -0.4912663 -0.4912663 -0.719246
vn -0.8082123 -0.1109311 -0.5783487
vn -0.9666853 -0.01584733 -0.2554768
vn -0.9666853 0.01584733 -0.2554768
vn -0.9983799 -0.01584733 0.05464749
vn -0.9983799 -0.01584733 0.05464749
vn -0.9349908 -0.1109311 0.3368777
vn -0.9666853 -0.1109311 0.2306812
vn -0.9349908 -0.2694041 0.2306809
vn -0.9349908 -0.3010987 0.1874349
vn -0.931708 -0.3632082 0
vn -0.9349908 -0.3327934 0.1226411
vn -0.9349908 -0.3010987 0.1874349
vn -0.931708 -0.3632082 0
vn -0.8082123 -0.5863501 -0.05464852
vn -0.8344646 -0.5510616 0
vn -0.6180447 -0.6814339 -0.3920058
vn -0.8399069 -0.3644879 -0.4021254
vn -0.3327932 -0.8716015 -0.3599437
g hat_FaceMask_White_0
f 3/3/3 2/2/2 1/1/1
f 2/2/2 4/4/4 1/1/1
f 5/5/5 3/3/3 1/1/1
f 6/6/6 3/3/3 5/5/5
f 7/7/7 5/5/5 1/1/1
f 5/5/5 7/7/7 6/6/6
f 3/3/3 6/6/6 8/8/8
f 9/9/9 3/3/3 8/8/8
f 9/9/9 8/8/8 10/10/10
f 8/8/8 6/6/6 11/11/11
f 7/7/7 11/11/11 6/6/6
f 8/8/8 12/12/12 10/10/10
f 10/10/10 12/12/12 13/13/13
f 14/14/14 10/10/10 13/13/13
f 14/14/14 13/13/13 15/15/15
f 16/16/16 14/14/14 15/15/15
f 16/16/16 15/15/15 17/17/17
f 18/18/18 16/16/16 17/17/17
f 18/18/18 17/17/17 19/19/19
f 20/20/20 18/18/18 19/19/19
f 20/20/20 19/19/19 21/21/21
f 22/22/22 20/20/20 21/21/21
f 22/22/22 21/21/21 23/23/23
f 21/21/21 24/24/24 23/23/23
f 11/11/11 7/7/7 24/24/24
f 24/24/24 25/25/25 23/23/23
f 7/7/7 25/25/25 24/24/24
f 25/25/25 26/26/26 23/23/23
f 25/25/25 27/27/27 26/26/26
f 7/7/7 28/28/28 25/25/25
f 28/28/28 7/7/7 1/1/1
f 29/29/29 27/27/27 25/25/25
f 28/28/28 29/29/29 25/25/25
f 27/27/27 29/29/29 30/30/30
f 29/29/29 28/28/28 30/30/30
f 27/27/27 30/30/30 31/31/31
f 31/31/31 30/30/30 32/32/32
f 33/33/33 28/28/28 1/1/1
f 28/28/28 33/33/33 30/30/30
f 30/30/30 34/34/34 32/32/32
f 30/30/30 33/33/33 34/34/34
f 34/34/34 35/35/35 32/32/32
f 35/35/35 36/36/36 32/32/32
f 37/37/37 36/36/36 35/35/35
f 38/38/38 37/37/37 35/35/35
f 39/39/39 37/37/37 38/38/38
f 40/40/40 39/39/39 38/38/38
f 41/41/41 39/39/39 40/40/40
f 42/42/42 41/41/41 40/40/40
f 43/43/43 41/41/41 42/42/42
f 44/44/44 43/43/43 42/42/42
f 45/45/45 43/43/43 44/44/44
f 46/46/46 45/45/45 44/44/44
f 46/46/46 47/47/47 45/45/45
f 47/47/47 48/48/48 45/45/45
f 4/4/4 48/48/48 47/47/47
f 49/49/49 4/4/4 47/47/47
f 49/49/49 47/47/47 50/50/50
f 4/4/4 49/49/49 51/51/51
f 4/4/4 51/51/51 1/1/1
f 51/51/51 33/33/33 1/1/1
f 33/33/33 51/51/51 49/49/49
f 50/50/50 33/33/33 49/49/49
f 33/33/33 50/50/50 34/34/34
